<?xml version="1.0" standalone="no"?>
<!DOCTYPE svg PUBLIC "-//W3C//DTD SVG 20010904//EN"
 "http://www.w3.org/TR/2001/REC-SVG-20010904/DTD/svg10.dtd">
<svg version="1.0" xmlns="http://www.w3.org/2000/svg"
 width="104.000000pt" height="119.000000pt" viewBox="0 0 104.000000 119.000000"
 preserveAspectRatio="xMidYMid meet">

<g transform="translate(0.000000,119.000000) scale(0.100000,-0.100000)"
fill="#000000" stroke="none">
<path d="M443 1170 c-79 -18 -158 -86 -194 -165 -22 -47 -25 -157 -7 -218 17
-56 96 -139 159 -167 43 -18 66 -21 128 -18 88 4 133 23 192 80 60 58 83 117
83 208 0 61 -5 84 -27 126 -64 124 -199 186 -334 154z m178 -88 c125 -65 158
-234 66 -338 -46 -53 -101 -78 -172 -78 -89 0 -157 40 -196 116 -44 86 -33
181 29 250 74 82 176 101 273 50z"/>
<path d="M205 498 c-137 -49 -213 -185 -203 -362 3 -62 7 -71 36 -97 l32 -29
449 0 448 0 26 24 c34 32 40 60 35 164 -7 139 -63 233 -171 286 -60 31 -152
35 -231 11 -27 -8 -77 -15 -111 -15 -34 0 -84 7 -111 15 -56 17 -155 18 -199
3z m166 -65 c75 -23 197 -22 291 1 74 19 80 19 131 3 63 -20 121 -71 148 -131
22 -49 27 -204 7 -224 -16 -16 -829 -17 -859 -2 -16 9 -19 22 -19 87 0 41 5
93 12 114 25 85 126 164 214 168 11 1 45 -7 75 -16z"/>
</g>
</svg>
