<?xml version="1.0" standalone="no"?>
<!DOCTYPE svg PUBLIC "-//W3C//DTD SVG 20010904//EN"
 "http://www.w3.org/TR/2001/REC-SVG-20010904/DTD/svg10.dtd">
<svg version="1.0" xmlns="http://www.w3.org/2000/svg"
 width="104.000000pt" height="118.000000pt" viewBox="0 0 104.000000 118.000000"
 preserveAspectRatio="xMidYMid meet">

<g transform="translate(0.000000,118.000000) scale(0.100000,-0.100000)"
fill="#000000" stroke="none">
<path d="M2 963 l3 -38 513 -3 512 -2 0 40 0 40 -516 0 -515 0 3 -37z"/>
<path d="M2 593 l3 -38 510 0 510 0 3 38 3 37 -516 0 -516 0 3 -37z"/>
<path d="M0 225 l0 -35 515 0 515 0 0 35 0 35 -515 0 -515 0 0 -35z"/>
</g>
</svg>
