<?xml version="1.0" standalone="no"?>
<!DOCTYPE svg PUBLIC "-//W3C//DTD SVG 20010904//EN"
 "http://www.w3.org/TR/2001/REC-SVG-20010904/DTD/svg10.dtd">
<svg version="1.0" xmlns="http://www.w3.org/2000/svg"
 width="90.000000pt" height="72.000000pt" viewBox="0 0 90.000000 72.000000"
 preserveAspectRatio="xMidYMid meet">

<g transform="translate(0.000000,72.000000) scale(0.100000,-0.100000)"
fill="#000000" stroke="none">
<path d="M197 702 c-12 -13 -17 -37 -17 -75 0 -56 0 -57 29 -57 28 0 30 3 33
43 3 41 4 42 38 42 34 0 35 -1 38 -42 3 -40 5 -43 33 -43 28 0 29 2 29 45 l0
45 160 0 160 0 0 -215 0 -215 88 0 c55 0 92 4 100 12 9 9 12 73 12 228 0 197
-2 218 -18 233 -17 15 -55 17 -344 17 -302 0 -326 -1 -341 -18z m638 -87 c0
-39 -1 -40 -37 -43 -38 -3 -38 -3 -38 36 0 47 6 54 45 50 28 -3 30 -6 30 -43z
m3 -142 c3 -32 2 -33 -37 -33 -40 0 -41 1 -41 36 0 35 1 35 38 32 34 -3 37 -6
40 -35z m2 -143 l0 -40 -40 0 -40 0 0 40 0 40 40 0 40 0 0 -40z"/>
<path d="M10 471 c-6 -12 -10 -104 -10 -229 0 -190 2 -210 18 -225 16 -15 52
-17 299 -17 258 0 281 1 296 18 15 16 17 47 17 226 0 124 -4 215 -10 227 -10
18 -24 19 -305 19 -281 0 -295 -1 -305 -19z m560 -176 c0 -74 -3 -135 -8 -135
-4 0 -39 32 -77 70 -38 39 -74 70 -79 70 -6 0 -43 -32 -83 -72 l-73 -72 -28
27 c-15 15 -35 27 -43 27 -8 0 -35 -20 -59 -45 -24 -25 -48 -45 -52 -45 -4 0
-8 70 -8 155 l0 155 255 0 255 0 0 -135z"/>
<path d="M158 349 c-44 -25 -3 -93 42 -69 26 14 26 56 1 70 -23 12 -22 12 -43
-1z"/>
</g>
</svg>
