<?xml version="1.0" standalone="no"?>
<!DOCTYPE svg PUBLIC "-//W3C//DTD SVG 20010904//EN"
 "http://www.w3.org/TR/2001/REC-SVG-20010904/DTD/svg10.dtd">
<svg version="1.0" xmlns="http://www.w3.org/2000/svg"
 width="133.000000pt" height="118.000000pt" viewBox="0 0 133.000000 118.000000"
 preserveAspectRatio="xMidYMid meet">

<g transform="translate(0.000000,118.000000) scale(0.100000,-0.100000)"
fill="#000000" stroke="none">
<path d="M356 875 c-152 -124 -276 -228 -276 -231 0 -14 22 -44 33 -44 7 0 32
16 57 36 l45 36 5 -284 c3 -155 9 -289 13 -295 11 -18 328 -18 345 -1 8 8 12
59 12 165 l0 153 75 0 75 0 0 -152 c0 -84 4 -159 8 -166 7 -9 49 -12 178 -10
l169 3 3 293 c1 160 6 292 10 292 4 0 27 -16 51 -35 24 -19 48 -35 54 -35 10
0 36 29 37 41 0 4 -34 34 -75 68 l-75 62 0 95 0 94 -30 0 -30 0 0 -65 c0 -36
-3 -65 -7 -65 -5 0 -82 61 -173 135 -135 111 -170 135 -196 135 -27 0 -77 -36
-308 -225z m529 -17 l150 -124 3 -292 2 -292 -115 0 -115 0 0 153 c0 106 -4
157 -12 165 -17 17 -249 17 -266 0 -8 -8 -12 -59 -12 -165 l0 -153 -115 0
-115 0 0 293 0 292 187 152 187 152 35 -29 c20 -15 104 -84 186 -152z"/>
</g>
</svg>
