<svg xmlns="http://www.w3.org/2000/svg" xmlns:xlink="http://www.w3.org/1999/xlink" width="388" height="388.004" viewBox="0 0 388 388.004">
  <defs>
    <linearGradient id="linear-gradient" x1="0.237" y1="0.715" x2="1.073" y2="0.63" gradientUnits="objectBoundingBox">
      <stop offset="0" stop-color="#ef403a"/>
      <stop offset="0.957" stop-color="#363190"/>
      <stop offset="1" stop-color="#333191"/>
    </linearGradient>
    <linearGradient id="linear-gradient-2" x1="0.214" y1="0.193" x2="0.951" y2="0.144" gradientUnits="objectBoundingBox">
      <stop offset="0" stop-color="#ef3e3f"/>
      <stop offset="1" stop-color="#363191"/>
    </linearGradient>
  </defs>
  <g id="Group_1" data-name="Group 1" transform="translate(-687 -346)">
    <g id="_1" data-name="1" transform="translate(687 734.004)">
      <path id="Path_1" data-name="Path 1" d="M.2-218.8C.5-57.4.6-49.2,2.3-44,9.2-23.5,23.5-9.2,44-2.3,49.2-.6,57.3-.5,218.8-.2L388,0V-167.3c0-163.4,0-167.6-2-175.1-2.8-11.2-7.3-19-16-27.6-5.5-5.5-9.5-8.5-15-11.2-14.7-7.2-4.2-6.8-189-6.8H0ZM339.9-375.5c17.5,4.6,32.1,19.4,36,36.5.7,3,1.1,58.3,1.1,166.3V-11l-164.2-.2L48.5-11.5l-6.4-2.7A53.848,53.848,0,0,1,13.8-42.8l-2.3-5.7-.3-164.3L11-377H172.7C309.8-377,335.3-376.8,339.9-375.5Z" fill="url(#linear-gradient)"/>
      <path id="Path_2" data-name="Path 2" d="M18-216.8c0,169-.3,159.8,6.3,172.2A53.484,53.484,0,0,0,44.6-24.3C57-17.7,47.8-18,216.8-18H370V-172.3c0-168.7.3-159.7-5.8-171.1-3.6-6.9-14.4-17.5-21.3-20.9-12-6-2.6-5.7-170.6-5.7H18ZM257-330.5a13.822,13.822,0,0,1,4.5,4.5,11.829,11.829,0,0,1-19.3,13.5L239-316H210.7c-39.6,0-52.2,1.6-67.4,8.5-12.5,5.7-20.1,14.7-23.9,28.2l-1.7,6.2,3.6,4.1c5.4,5.8,5,12.5-.9,17.5-2.4,2.1-2.4,2.1-.8,7.5,4.4,14.8,10.4,22.8,49.4,66.1,16.6,18.4,30.9,34.7,31.8,36.4,2.1,4,2,11.3-.2,14.7-3.7,5.6-6.9,6.1-43.3,6.6-31.9.4-33.3.5-33.9,2.4-.8,2.7-6.3,5.8-10.2,5.8-7.1,0-12.2-5.2-12.2-12.5,0-2.6.9-4.5,3.4-7.3,3.1-3.3,3.9-3.7,8.5-3.7,4.3,0,5.5.5,8.3,3.2l3.4,3.3,31.9-.1c17.6-.1,33.1-.4,34.5-.8,2.9-.8,3.8-4.7,2-8.2-.7-1.2-11.4-13.4-23.9-27.2-48-53.1-53.6-60.7-58.2-78.5-1-4.1-2-5.7-4.1-6.8-3.5-1.8-5.8-6.2-5.8-11,0-3,.8-4.4,4.2-7.8,3.5-3.3,4.5-5.2,5.5-10.1a50.421,50.421,0,0,1,13.2-24.4c6.6-6.7,13.7-11,24.3-14.6,13.6-4.5,24.2-5.5,58.9-5.5h31.7l4-4C247.3-332.5,251.7-333.3,257-330.5Zm15.9,57c3.7,1.9,6.5,7.7,5.7,12-2,10.4-14.2,13.5-21,5.4l-2.5-2.9h-29c-16.4,0-30.1.4-31.5,1-2,.7-2.6,1.7-2.6,3.8,0,3.4,1.4,5.3,12.9,18.2l8.5,9.5h5.7c5,0,6.2.4,8.8,2.9a11.826,11.826,0,0,1,3.2,12.6c-1,3-.8,3.4,9.7,14.8,17.2,18.7,19.9,22,25.8,30.8,6.9,10.4,11.3,22.1,12.1,32.5.5,6.6.9,7.9,2.8,8.9,5,2.7,6.9,10.3,4,16-1.5,2.9-6,6-8.7,6-.7,0-2.4,2.4-3.8,5.2-3.2,6.8-12.2,16.4-19.5,20.7A85.089,85.089,0,0,1,240-69.9C226.3-65,215.2-64,176.2-64c-34.4,0-35.2,0-36.2,2.1-1.7,3.1-7.1,5.9-11.4,5.9-3,0-4.5-.7-7.1-3.3-5.6-5.6-5.8-11.1-.7-16.8,5-5.6,15.5-4.6,18.4,1.6l1.1,2.5h32.4c17.8,0,36.7-.5,42.1-1,23.4-2.6,39.9-10.3,48.1-22.6,4.1-6.3,4.8-9,2.7-11.3-4.1-4.5-2.5-13.1,3-16.8,2.5-1.6,2.6-2,2-8.3-1.6-17.5-8.4-28.7-34.6-57.3-11.2-12.3-12.8-13.7-15.8-13.7-7.3,0-12.2-5.2-12.2-13,0-3.8-.8-4.9-9.6-14.8-12.8-14.1-14.7-17.2-14.8-23.1-.1-5.8,2.2-9.7,7.2-11.9,3.2-1.4,7.7-1.6,33.5-1.5l29.9.2,3.7-4c3.2-3.3,4.4-3.9,8-3.9A18.09,18.09,0,0,1,272.9-273.5Z" fill="url(#linear-gradient-2)"/>
    </g>
  </g>
</svg>
