<svg xmlns="http://www.w3.org/2000/svg" width="27.668" height="25" viewBox="0 0 27.668 25"><defs><style>.a{fill:#888;}</style></defs><path class="a" d="M26.355,140.427c-.064-1.611-.96-3.99-3.311-4.578a1.6,1.6,0,0,1-.314-.165c.444-.643.866-1.253,1.26-1.823l-2.147-1.32c-.393.753-.8,1.509-1.18,2.283-.15.3-.327.4-.645.289-1-.346-2.012-.681-3.045-1.029a3.743,3.743,0,0,1-3.594,2.6,4.039,4.039,0,0,1-4.012-2.737,8.648,8.648,0,0,1-3.382,1.218c-.243-.874-.472-1.679-.695-2.5l-3.443.926c.2.765.411,1.475.562,2.2a.642.642,0,0,1-.215.543,4.156,4.156,0,0,0-1.619,1.969c-.209.519-.385,1.052-.575,1.58v.944A1.38,1.38,0,0,0,1.468,141.9q11.737-.019,23.472-.009A1.242,1.242,0,0,0,26.355,140.427ZM3.043,135.943c-.031-.025-.073-.042-.081-.07-.158-.539-.33-1.075-.454-1.622-.028-.118.112-.282.176-.425.127.089.329.151.368.269.176.531.306,1.077.472,1.686Zm.9-.286c-.156-.583-.32-1.119-.429-1.666-.026-.135.129-.3.2-.459.118.107.3.195.34.327.168.514.29,1.043.455,1.661Zm.891-.6c-.1-.433-.254-.854-.33-1.291-.026-.146.118-.322.177-.485.129.118.327.208.373.354.173.529.3,1.074.441,1.626C5.174,135.437,4.94,135.5,4.838,135.054Z" transform="translate(0 -116.901)"/><path class="a" d="M71.106,9.321A1.484,1.484,0,0,1,70.7,8c0-.688.031-1.377.015-2.064a4.309,4.309,0,0,0-1.393-3.2A10.478,10.478,0,0,0,65.137.313,15.366,15.366,0,0,0,63.293,0a3.294,3.294,0,0,0,0,.491c.165.826.162.809-.59,1.123A4.5,4.5,0,0,0,59.57,5.192a26.627,26.627,0,0,0-.039,3.235.735.735,0,0,1-.071.432c-.811.944-.922,1.358-.329,2.36a42.081,42.081,0,0,0,2.478,3.855c1.666,2.214,4.293,2.524,6.195.765a9.056,9.056,0,0,0,1.473-1.9,37.716,37.716,0,0,0,1.9-3.432A1.273,1.273,0,0,0,71.106,9.321Zm-.539,1.062a16.808,16.808,0,0,1-3.321,5.093,3.268,3.268,0,0,1-4.811-.441,36.648,36.648,0,0,1-2.8-4.265c-.559-.953-.236-1.377.978-1.405-.063-.682-.1-1.327-.19-1.966-.052-.361.118-.485.406-.577a7.52,7.52,0,0,1,4.236.037,12.325,12.325,0,0,0,4.807.636c-.149.708-.284,1.343-.426,2.006.169.009.323.025.472.027C70.694,9.537,70.89,9.721,70.567,10.383Z" transform="translate(-51.824)"/><path class="a" d="M210.967,72.016a1.838,1.838,0,0,1-.736,1.644,1.706,1.706,0,0,1-1.825.1,1.593,1.593,0,0,1-.487-1.805c.5-1.46,1.74-2.006,3.05-2.5C210.968,70.341,210.969,71.181,210.967,72.016Z" transform="translate(-183.3 -61.256)"/><path class="a" d="M189.766,109.536c-.286.779-.577,1.581-.872,2.381-.067.182-.15.354-.274.649l-2.23-1.324,2.277-2.382Z" transform="translate(-164.398 -96.015)"/><path class="a" d="M18.216,118.815l-3.436.927c.118-.635.216-1.216.34-1.793.017-.078.157-.145.254-.185a2.446,2.446,0,0,1,.288-.044c.427-.118.984-.472,1.252-.322A6.475,6.475,0,0,1,18.216,118.815Z" transform="translate(-13.036 -103.514)"/><path class="a" d="M20.06,103.59l-1.25.336c.1-.546.185-.981.287-1.516Z" transform="translate(-16.591 -90.327)"/></svg>