<svg xmlns="http://www.w3.org/2000/svg" width="35" height="35" viewBox="0 0 35 35"><defs><style>.a{fill:rgba(239,45,86,0.07);}.b{fill:#ef2d56;}</style></defs><g transform="translate(-25 -485)"><path class="a" d="M32.143,9.7c0,7.7,3.6,12.991,3.6,16.7S33.818,37.9,18.411,37.9.743,27.417.743,23.335a18.139,18.139,0,0,1,.211-2.683C3.325,3.573,32.143-3.372,32.143,9.7Z" transform="translate(24.256 482.098)"/><g transform="translate(33.167 494.333)"><path class="b" d="M19.738,1.018a1.161,1.161,0,0,0-1.025-1A.591.591,0,0,1,18.635,0h-.181a1.76,1.76,0,0,0-.943.572q-.65.608-1.3,1.218c-.116.109-.119.113-.259.025A12.088,12.088,0,0,0,14.188.906,10.793,10.793,0,0,0,11.84.239a11.392,11.392,0,0,0-2.18-.17A10.232,10.232,0,0,0,3.973,1.9a8.849,8.849,0,0,0-3.6,4.8A7.81,7.81,0,0,0,.025,9.354,7.155,7.155,0,0,0,1.555,13.6,11.166,11.166,0,0,0,5.44,16.8a7.1,7.1,0,0,0,1.936.638,6.518,6.518,0,0,0,1.314.053,3.71,3.71,0,0,0,2.422-1.03,4.229,4.229,0,0,0,.923-1.376,17.778,17.778,0,0,0,.885-2.554c.1-.349.206-.7.33-1.041a3.175,3.175,0,0,1,1.223-1.505c.5-.356,1.027-.68,1.53-1.037a6.08,6.08,0,0,0,1.745-1.812,3.208,3.208,0,0,0,.5-1.86,3.438,3.438,0,0,0-.414-1.495l-.089-.163c.086-.085.171-.17.256-.254l1.212-1.178c.089-.087.17-.181.256-.27A1.094,1.094,0,0,0,19.738,1.018ZM5.581,3.761A1.449,1.449,0,0,1,7.057,5.208a1.475,1.475,0,0,1-1.5,1.454A1.491,1.491,0,0,1,4.114,5.206,1.439,1.439,0,0,1,5.581,3.761ZM3.52,10.591A1.4,1.4,0,0,1,2.073,9.138a1.448,1.448,0,1,1,2.9.016A1.422,1.422,0,0,1,3.52,10.591ZM5.6,14.524a1.446,1.446,0,0,1-1.484-1.448,1.474,1.474,0,0,1,2.948.01A1.444,1.444,0,0,1,5.6,14.524Zm4.472-13.35a1.458,1.458,0,1,1,.051,2.913A1.486,1.486,0,0,1,8.679,2.624,1.485,1.485,0,0,1,10.071,1.174Zm.5,8.37a1.622,1.622,0,0,1-.931,1,4.609,4.609,0,0,1-.543.2,1.256,1.256,0,0,0-.628.393c-.037.043-.077.083-.116.126H8.32c-.02-.114-.046-.227-.06-.341a1.684,1.684,0,0,1,.232-1.163,2.124,2.124,0,0,1,.968-.886,2.344,2.344,0,0,1,.457-.1.218.218,0,0,1,.205.1c.119.134.242.266.373.388.113.1.128.136.078.284ZM19,1.51c-.678.654-1.346,1.319-2.027,1.97Q14.612,5.74,12.239,7.989c-.251.237-.509.468-.761.7a.424.424,0,0,1-.325.141.549.549,0,0,1-.546-.686.488.488,0,0,1,.122-.19c.907-.885,1.812-1.773,2.727-2.65q2.222-2.13,4.455-4.248c.114-.109.231-.214.35-.316A.525.525,0,0,1,18.978.8.508.508,0,0,1,19,1.51Z" transform="translate(-0.019)"/></g></g></svg>