<svg xmlns="http://www.w3.org/2000/svg" width="31.791" height="25" viewBox="0 0 31.791 25"><defs><style>.a{fill:#888;}</style></defs><g transform="translate(0 0.001)"><g transform="translate(0 -0.001)"><g transform="translate(0 0)"><path class="a" d="M20.841,154.42v1.738h-1.3v7.291H1.331V156.18H0v-1.76Z" transform="translate(0 -138.449)"/><path class="a" d="M216.458,101.77v1.737h-1.306v7.258h-4.528V107.2h1.307v-3.689H205.97V101.77Z" transform="translate(-184.668 -91.244)"/><path class="a" d="M163.667,128.29V130h-1.328v7.271h-4.5v-3.552h1.31v-3.7H153.18V128.29Z" transform="translate(-137.337 -115.021)"/><path class="a" d="M66.574,113.048H57.7c-.052-1.177-.189-2.37.931-3.189a1.842,1.842,0,0,1,2.259-.163,1.931,1.931,0,0,0,2.443.049,2.14,2.14,0,0,1,3.24,1.8C66.6,112.029,66.574,112.507,66.574,113.048Z" transform="translate(-51.705 -98.067)"/><path class="a" d="M130.071,86.813H127.36c-.361,0-.724-.024-1.083,0a1.374,1.374,0,0,1-1.485-.676,2.865,2.865,0,0,0-2.4-1.218,16.415,16.415,0,0,1,.924-1.576.779.779,0,0,1,.7-.1c.445.17.838.472,1.279.656a1.1,1.1,0,0,0,.693-.006,2.818,2.818,0,0,0,.765-.414,2.2,2.2,0,0,1,3.31,1.744A14.975,14.975,0,0,1,130.071,86.813Z" transform="translate(-109.732 -74.546)"/><path class="a" d="M182.719,60.39c-1.564,0-3.06.008-4.551-.011a.621.621,0,0,1-.425-.271A3.244,3.244,0,0,0,175,58.519a17.111,17.111,0,0,1,.964-1.607c.1-.131.5-.128.724-.056a3.568,3.568,0,0,1,.995.525.93.93,0,0,0,1.2-.014,2.626,2.626,0,0,1,1.959-.6,2.338,2.338,0,0,1,1.871,2.126C182.757,59.366,182.719,59.848,182.719,60.39Z" transform="translate(-156.901 -50.865)"/><path class="a" d="M188.654,2.378a2.274,2.274,0,0,1-2.337,2.289A2.33,2.33,0,0,1,184,2.326,2.355,2.355,0,0,1,186.379,0,2.317,2.317,0,0,1,188.654,2.378Z" transform="translate(-164.97 0.001)"/><path class="a" d="M83.13,55.344a2.343,2.343,0,0,1-2.347,2.309A2.327,2.327,0,1,1,80.777,53a2.331,2.331,0,0,1,2.353,2.345Z" transform="translate(-70.36 -47.517)"/><path class="a" d="M135.914,28.952a2.32,2.32,0,1,1-2.277-2.362,2.32,2.32,0,0,1,2.277,2.362Z" transform="translate(-117.698 -23.84)"/></g></g></g></svg>