<svg xmlns="http://www.w3.org/2000/svg" width="58.006" height="60" viewBox="0 0 58.006 60"><defs><style>.a{fill:#fff;}</style></defs><g transform="translate(-8.506 0)"><path class="a" d="M37.509,17.875H35.865v.943a.65.65,0,0,0,.193.462.661.661,0,0,0,.465.2H38.5a.669.669,0,0,0,.658-.658v-.943ZM61.041,39.2l-4.4-1.492-2.867,1.405v1.325a3.632,3.632,0,0,0,7.265,0V39.2Zm-7.265-2.036L56.148,36a.864.864,0,0,1,.721-.07l4.172,1.412V35.6A1.656,1.656,0,0,0,59.4,33.956H55.424A1.656,1.656,0,0,0,53.776,35.6v1.558Zm-39.8-.983h7.265V33.956H15.625A1.656,1.656,0,0,0,13.977,35.6Zm7.265,1.761H13.977v2.5a3.633,3.633,0,0,0,7.265,0Zm19.9,1.173a5.9,5.9,0,0,1-4.753-1.276,4.432,4.432,0,0,1-2.511.6v2a3.632,3.632,0,0,0,7.265,0V39.112ZM33.879,36.68a2.639,2.639,0,0,0,2.043-.641.874.874,0,0,1,1.236.086,4.13,4.13,0,0,0,3.986,1.219V35.6A1.656,1.656,0,0,0,39.5,33.956H35.523A1.656,1.656,0,0,0,33.879,35.6ZM23,40.437a5.357,5.357,0,0,1-.92,3.006,5.141,5.141,0,0,1,4.634,5.109v10.57a.876.876,0,0,1-.877.877H9.386a.879.879,0,0,1-.88-.877v-3.3a.879.879,0,0,1,1.757,0v2.415h1.691V50.194a.88.88,0,1,1,1.761,0v8.049h7.793V50.194a.879.879,0,1,1,1.757,0v8.049h1.691v-9.69a3.38,3.38,0,0,0-3.375-3.375H20.173a5.387,5.387,0,0,1-5.122,0H13.642a3.385,3.385,0,0,0-3.378,3.375v3.3a.879.879,0,0,1-1.757,0v-3.3a5.147,5.147,0,0,1,4.637-5.109,5.359,5.359,0,0,1-.924-3.006V35.6a3.414,3.414,0,0,1,3.4-3.4h6.5a.876.876,0,0,1,.877.877v7.361Zm39.8,0a5.357,5.357,0,0,1-.92,3.006,5.141,5.141,0,0,1,4.634,5.109v10.57a.876.876,0,0,1-.877.877H49.186a.879.879,0,0,1-.88-.877v-3.3a.879.879,0,0,1,1.757,0v2.415h1.691V50.194a.88.88,0,1,1,1.761,0v8.049h7.793V50.194a.879.879,0,1,1,1.757,0v8.049h1.691v-9.69a3.38,3.38,0,0,0-3.375-3.375H59.972a5.387,5.387,0,0,1-5.122,0H53.441a3.386,3.386,0,0,0-3.378,3.375v3.3a.879.879,0,0,1-1.757,0v-3.3a5.147,5.147,0,0,1,4.637-5.109,5.359,5.359,0,0,1-.924-3.006V35.6a3.414,3.414,0,0,1,3.4-3.4H59.4a3.408,3.408,0,0,1,3.4,3.4v4.834Zm-19.9,0a5.382,5.382,0,0,1-.92,3.006,5.148,5.148,0,0,1,4.634,5.109v10.57a.877.877,0,0,1-.88.877H29.284a.876.876,0,0,1-.877-.877v-3.3a.879.879,0,0,1,1.757,0v2.415h1.691V50.194a.879.879,0,1,1,1.757,0v8.049h7.8V50.194a.879.879,0,1,1,1.757,0v8.049h1.691v-9.69a3.385,3.385,0,0,0-3.375-3.375H40.07a5.381,5.381,0,0,1-5.119,0H33.54a3.386,3.386,0,0,0-3.375,3.375v3.3a.879.879,0,0,1-1.757,0v-3.3a5.141,5.141,0,0,1,4.634-5.109,5.356,5.356,0,0,1-.92-3.006V35.6a3.408,3.408,0,0,1,3.4-3.4H39.5a3.414,3.414,0,0,1,3.4,3.4ZM23.993,23.257H34.367a.879.879,0,0,1,.791.5l2.352,4.076Q38.7,25.76,39.894,23.7a.875.875,0,0,1,.757-.442h10.4a.881.881,0,0,1,.654.292l4.328,4.169.488-4.189a.881.881,0,0,1,.661-.754,10.836,10.836,0,0,0,5.465-3.893A10.754,10.754,0,0,0,54.006,1.757H21.013a10.738,10.738,0,0,0-8.643,17.124,10.846,10.846,0,0,0,5.511,3.91.875.875,0,0,1,.621.784l.482,4.142L23.361,23.5a.915.915,0,0,1,.631-.246Zm9.869,1.757H24.318l-5.362,5.166a.864.864,0,0,1-.541.269.873.873,0,0,1-.97-.771l-.628-5.395a12.627,12.627,0,0,1-5.856-4.358A12.51,12.51,0,0,1,21.013,0H54.005A12.489,12.489,0,0,1,64.057,19.925,12.618,12.618,0,0,1,58.2,24.283l-.628,5.381a.9.9,0,0,1-.242.521.876.876,0,0,1-1.239.023l-5.395-5.2H41.157q-1.445,2.5-2.887,5a.9.9,0,0,1-.322.319.874.874,0,0,1-1.2-.322q-1.445-2.5-2.89-5Zm.249-8.086a5,5,0,0,0-1.089-2.621A7.26,7.26,0,0,1,31.46,9.992a6.049,6.049,0,0,1,12.1,0A7.281,7.281,0,0,1,42,14.307a5.005,5.005,0,0,0-1.09,2.621l0,1.89A2.427,2.427,0,0,1,38.5,21.234H36.523a2.421,2.421,0,0,1-2.415-2.415Zm1.674-.814h3.451a7.251,7.251,0,0,1,1.3-2.77A5.832,5.832,0,0,0,41.8,9.992a4.29,4.29,0,1,0-8.58,0,5.808,5.808,0,0,0,1.262,3.352A7.348,7.348,0,0,1,35.785,16.114Z"/></g></svg>