<svg xmlns="http://www.w3.org/2000/svg" width="52.886" height="50" viewBox="0 0 52.886 50"><defs><style>.a{fill:#fff;}</style></defs><g transform="translate(0.03)"><g transform="translate(-0.03)"><path class="a" d="M51.629,204.983H34.961v-8.189c0-1.016-.188-1.214-1.173-1.214H17.247c-.956,0-1.132.182-1.134,1.164v5.971H1.084c-.908.009-1.11.2-1.11,1.126q-.009,5.465,0,10.93c0,.911.211,1.117,1.123,1.117H51.705c.937,0,1.151-.225,1.151-1.17v-8.5C52.86,205.153,52.689,204.983,51.629,204.983Zm-.322,9.333H1.514V204.268c.267-.012.534-.035.8-.035H16.355c1.076,0,1.262-.19,1.263-1.287v-5.825H33.45V205.3c0,.973.22,1.189,1.214,1.189H51.307Z" transform="translate(0.03 -165.889)"/><path class="a" d="M106.8,2.437h-3.159V1.41C103.66.129,103.54,0,102.289,0H86.814C85.377,0,85.286.094,85.3,1.564v.877H81.512c-.607,0-1.008.284-.9.926.663,4,2.616,7,6.589,8.428a1.312,1.312,0,0,1,.607.487q1.63,2.5,3.211,5.04a2.054,2.054,0,0,1,.352.956c.038,1.366.032,2.733,0,4.1a1.215,1.215,0,0,1-.3.8,25.084,25.084,0,0,1-2.244,1.9c-.688.506-.551,1.152-.393,1.77s.7.531,1.195.455a2.25,2.25,0,0,1,.378,0c2.922.023,5.843.043,8.765.074.513,0,1.047-.058,1.166-.607a1.561,1.561,0,0,0-.41-1.734c-.771-.607-1.545-1.214-2.268-1.882a1.4,1.4,0,0,1-.395-.893c-.047-1.136.015-2.277-.032-3.413a2.542,2.542,0,0,1,.589-1.717c1.14-1.539,2.189-3.145,3.3-4.706a2.046,2.046,0,0,1,.721-.574A26.46,26.46,0,0,0,104,10.567a9.587,9.587,0,0,0,4.067-6.575C108.316,2.61,108.211,2.44,106.8,2.437ZM82.384,3.965h3c.185,1.023.329,2.022.554,3s.531,1.931.8,2.9C84.971,9.421,82.5,6.54,82.384,3.965ZM97.868,25.855H90.451l-.124-.2c.788-.566,1.518-1.471,2.377-1.627,1.949-.361,3.941-.275,5.162,1.826Zm-4.922-3.473V18.369h2.345v4.009ZM101.1,7.6a24.751,24.751,0,0,1-5.113,8.943c-.361.422-3.32.439-3.651.015A24.092,24.092,0,0,1,87.424,6.68c-.346-1.67-.506-3.37-.759-5.136h15.459A23.126,23.126,0,0,1,101.1,7.6Zm.959,2.3c.43-1.822.868-3.7,1.328-5.565.038-.152.228-.381.354-.386.9-.033,1.8-.018,2.7-.018C106.207,6.528,104.021,9.4,102.061,9.9Z" transform="translate(-68.355 0)"/><path class="a" d="M259.205,157.41a6.435,6.435,0,1,0,6.387,6.493,6.387,6.387,0,0,0-6.387-6.493Zm-.062,11.371a5,5,0,0,1-4.917-5.017,4.93,4.93,0,1,1,4.913,5.017Z" transform="translate(-214.35 -133.513)"/><path class="a" d="M12.086,142.31a6.432,6.432,0,1,0,6.279,6.365A6.607,6.607,0,0,0,12.086,142.31Zm-.109,11.358a5.006,5.006,0,0,1-5-4.694c-.131-2.352,1.908-5.313,4.784-5.151a4.924,4.924,0,1,1,.216,9.846Z" transform="translate(-4.643 -120.706)"/><path class="a" d="M144.874,222.376c.018.686-.466.788-1.032.782-1.388-.014-2.774,0-4.161,0s-2.774-.008-4.161,0c-.543,0-1-.129-.99-.759s.455-.759,1-.759q4.161.009,8.322,0C144.376,221.645,144.857,221.739,144.874,222.376Z" transform="translate(-114.102 -187.993)"/><path class="a" d="M156.991,25.417v9.274h-2.338V29.53c0-1.485,0-1.485-1.5-1.612-.191-.635-.181-1.11.65-1.312a2.549,2.549,0,0,0,1.234-.7A1.915,1.915,0,0,1,156.991,25.417Z" transform="translate(-129.813 -21.505)"/><path class="a" d="M286.873,184.707a2.331,2.331,0,0,1-2.517.486c-.8-.314-1.023-.944-.853-2.462h1.445c.053.572.1,1.09.162,1.752a1.345,1.345,0,0,0-.427-2.341v-.73c.97-.279,1.177-.777.551-1.87l-.336,1.251h-1.366c-.191-1.084,0-1.643.624-1.907a2.874,2.874,0,0,1,2.641.413,1.947,1.947,0,0,1-.159,2.292A3.21,3.21,0,0,1,286.873,184.707Z" transform="translate(-240.414 -151.602)"/><path class="a" d="M37.924,168.991h1.656v1.026h-3.5a5.5,5.5,0,0,1,.332-1.257c.5-.934,1.092-1.822,1.608-2.742a2.608,2.608,0,0,0,.282-1c.012-.129-.222-.281-.343-.422-.117.132-.291.247-.339.4a4.1,4.1,0,0,0-.08.8H36.22c-.172-1.307.3-2.074,1.353-2.213a1.71,1.71,0,0,1,2.125,1.433,4.742,4.742,0,0,1-.5,1.934A20.812,20.812,0,0,1,37.924,168.991Z" transform="translate(-30.598 -138.728)"/></g></g></svg>