<svg xmlns="http://www.w3.org/2000/svg" width="64.81" height="50" viewBox="0 0 64.81 50"><g transform="translate(0 -58.5)"><g transform="translate(0 58.5)"><path d="M.949,70.4a.949.949,0,0,0,.949-.949V63.584A3.2,3.2,0,0,1,5.1,60.4H36.733a.949.949,0,0,0,0-1.9H5.1A5.1,5.1,0,0,0,0,63.584v5.865a.949.949,0,0,0,.949.949Z" transform="translate(0 -58.5)"/><path d="M52.146,206.171H5.1A3.2,3.2,0,0,1,1.9,202.985V173.449a.949.949,0,1,0-1.9,0v29.536a5.1,5.1,0,0,0,5.1,5.084H52.146a.949.949,0,1,0,0-1.9Z" transform="translate(0 -158.07)"/><path d="M337.165,58.5H318.619a.949.949,0,1,0,0,1.9h18.546a3.2,3.2,0,0,1,3.205,3.185v39.832a3.2,3.2,0,0,1-3.205,3.185h-3.131a.949.949,0,1,0,0,1.9h3.131a5.1,5.1,0,0,0,5.1-5.084V63.584A5.1,5.1,0,0,0,337.165,58.5Z" transform="translate(-277.459 -58.5)"/><path d="M78.674,135.828a.949.949,0,0,0-.949.949v9.051a3.221,3.221,0,0,0,6.331,0V127.222a5.358,5.358,0,0,0,0-10.7v-1.516a3.223,3.223,0,0,0-6.331,0v1.516a5.358,5.358,0,0,0,0,10.7v5.027a.949.949,0,0,0,1.9,0v-5.017h2.534v18.6c0,.344-.542.729-1.267.729s-1.267-.385-1.267-.729v-9.051A.95.95,0,0,0,78.674,135.828Zm2.216-21.54c.714,0,1.267.386,1.267.718v1.506H79.624v-1.506C79.624,114.674,80.177,114.288,80.891,114.288Zm-6.333,7.585a3.476,3.476,0,0,1,3.483-3.461h5.7a3.461,3.461,0,1,1,0,6.923c-.556-.036-5.02.02-5.7,0A3.476,3.476,0,0,1,74.558,121.872Z" transform="translate(-63.462 -105.568)"/><path d="M209.185,138.99a5.376,5.376,0,0,0-5.079-5.351l.014-18.5a3.221,3.221,0,0,0-6.331,0l.012,18.5a5.358,5.358,0,0,0,0,10.7l-.008,1.638a3.223,3.223,0,0,0,6.331-.005l-.009-1.633a5.376,5.376,0,0,0,5.075-5.351Zm-8.231-24.582c.725,0,1.267.385,1.267.728l-.014,18.494H199.7l-.012-18.493C199.688,114.793,200.23,114.408,200.955,114.408Zm0,32.287c-.714,0-1.267-.385-1.267-.711l.008-1.633h2.516l.009,1.629C202.222,146.31,201.668,146.694,200.955,146.694Zm2.849-4.243h-5.7a3.461,3.461,0,1,1,0-6.923h5.7a3.461,3.461,0,1,1,0,6.923Z" transform="translate(-168.327 -105.672)"/><path d="M322.182,123.265v-8.023a3.219,3.219,0,0,0-6.331,0l.024,8.018a5.359,5.359,0,0,0,0,10.7l-.025,12.135a3.223,3.223,0,0,0,6.331,0V133.965a5.358,5.358,0,0,0,0-10.7Zm-3.166-8.76c.725,0,1.267.389,1.267.737v8.013h-2.51l-.024-8.013C317.75,114.894,318.292,114.5,319.017,114.5Zm0,32.316c-.714,0-1.267-.386-1.267-.717l.025-12.129h2.509V146.1C320.284,146.434,319.73,146.82,319.017,146.82Zm2.85-14.744h-5.7a3.461,3.461,0,1,1,0-6.923h5.7a3.461,3.461,0,1,1,0,6.923Z" transform="translate(-271.445 -105.757)"/></g></g></svg>