<svg xmlns="http://www.w3.org/2000/svg" width="35" height="35" viewBox="0 0 35 35"><defs><style>.a{fill:rgba(239,45,86,0.07);}.b{fill:#ef2d56;}</style></defs><g transform="translate(-25 -830)"><path class="a" d="M32.143,9.7c0,7.7,3.6,12.991,3.6,16.7S33.818,37.9,18.411,37.9.743,27.417.743,23.335a18.139,18.139,0,0,1,.211-2.683C3.325,3.573,32.143-3.372,32.143,9.7Z" transform="translate(24.256 827.098)"/><g transform="translate(34 762)"><g transform="translate(0 80)"><g transform="translate(0 0)"><path class="b" d="M16.406,80H1.094A1.094,1.094,0,0,0,0,81.094v.622l8.75,3.706,8.75-3.707v-.621A1.094,1.094,0,0,0,16.406,80Z" transform="translate(0 -80)"/></g></g><g transform="translate(0 82.904)"><g transform="translate(0 0)"><path class="b" d="M8.963,168.575a.542.542,0,0,1-.427,0L0,164.96v8.034a1.094,1.094,0,0,0,1.094,1.094H16.406a1.094,1.094,0,0,0,1.094-1.094V164.96Z" transform="translate(0 -164.96)"/></g></g></g></g></svg>