<svg xmlns="http://www.w3.org/2000/svg" width="35" height="35" viewBox="0 0 35 35"><defs><style>.a{fill:rgba(239,45,86,0.07);}.b{fill:none;}.c{fill:#ef2d56;fill-rule:evenodd;}</style></defs><g transform="translate(-25 -880)"><path class="a" d="M32.143,9.7c0,7.7,3.6,12.991,3.6,16.7S33.818,37.9,18.411,37.9.743,27.417.743,23.335a18.139,18.139,0,0,1,.211-2.683C3.325,3.573,32.143-3.372,32.143,9.7Z" transform="translate(24.257 877.098)"/><g transform="translate(34 889)"><rect class="b" width="16.999" height="16.999"/><path class="c" d="M85.761,17V9.255h2.644l.378-3.022H85.761V4.344c0-.85.283-1.511,1.511-1.511h1.605V.094C88.5.094,87.555,0,86.516,0a3.646,3.646,0,0,0-3.872,3.967V6.233H80V9.255h2.644V17Z" transform="translate(-75.75 0.001)"/></g></g></svg>