<svg xmlns="http://www.w3.org/2000/svg" xmlns:xlink="http://www.w3.org/1999/xlink" width="1080" zoomAndPan="magnify" viewBox="0 0 810 809.999993" height="1080" preserveAspectRatio="xMidYMid meet" version="1.0"><defs><clipPath id="093e43bb1b"><path d="M 165.550781 132.898438 L 644.800781 132.898438 L 644.800781 677.398438 L 165.550781 677.398438 Z M 165.550781 132.898438 " clip-rule="nonzero"/></clipPath></defs><rect x="-81" width="972" fill="#ffffff" y="-80.999999" height="971.999992" fill-opacity="1"/><rect x="-81" width="972" fill="#ffffff" y="-80.999999" height="971.999992" fill-opacity="1"/><path fill="#ffedee" d="M 779.917969 407.070312 C 779.917969 407.070312 725.511719 -56.800781 437.5625 21.46875 C 149.617188 99.734375 -37.933594 366.238281 55.839844 566.429688 C 149.617188 766.617188 471.949219 851.746094 640.953125 769.957031 C 809.964844 688.160156 779.917969 407.070312 779.917969 407.070312 " fill-opacity="1" fill-rule="nonzero"/><g clip-path="url(#093e43bb1b)"><path fill="#ef2d56" d="M 597.34375 132.898438 L 297.097656 132.898438 C 271.203125 132.898438 250.183594 153.914062 250.183594 179.808594 L 250.183594 395.613281 L 175.121094 395.613281 C 169.960938 395.613281 165.738281 399.832031 165.738281 404.996094 L 165.738281 625.488281 C 165.738281 653.917969 188.914062 677.09375 217.34375 677.09375 L 597.34375 677.09375 C 623.238281 677.09375 644.257812 656.074219 644.257812 630.179688 L 644.257812 179.808594 C 644.257812 153.914062 623.238281 132.898438 597.34375 132.898438 Z M 250.183594 625.488281 C 250.183594 643.597656 235.453125 658.328125 217.34375 658.328125 C 199.234375 658.328125 184.503906 643.597656 184.503906 625.488281 L 184.503906 414.378906 L 250.183594 414.378906 Z M 456.976562 201.015625 L 505.207031 201.015625 C 510.367188 201.015625 514.589844 205.238281 514.589844 210.398438 C 514.589844 215.558594 510.367188 219.78125 505.207031 219.78125 L 456.976562 219.78125 C 451.816406 219.78125 447.597656 215.558594 447.597656 210.398438 C 447.597656 205.238281 451.722656 201.015625 456.976562 201.015625 Z M 456.976562 254.496094 L 587.679688 254.496094 C 592.839844 254.496094 597.0625 258.71875 597.0625 263.878906 C 597.0625 269.039062 592.839844 273.261719 587.679688 273.261719 L 456.976562 273.261719 C 451.816406 273.261719 447.597656 269.039062 447.597656 263.878906 C 447.597656 258.71875 451.722656 254.496094 456.976562 254.496094 Z M 293.90625 278.046875 C 298.785156 258.90625 311.828125 243.800781 328.8125 235.730469 C 322.710938 229.070312 318.867188 220.25 318.867188 210.492188 C 318.867188 189.753906 335.753906 172.867188 356.488281 172.867188 C 377.226562 172.867188 394.113281 189.753906 394.113281 210.492188 C 394.113281 220.25 390.265625 229.070312 384.167969 235.730469 C 401.339844 243.894531 414.570312 259.1875 419.261719 278.703125 C 419.730469 280.582031 419.542969 282.550781 418.882812 284.425781 C 418.507812 285.460938 417.945312 286.398438 417.195312 287.148438 C 401.808594 304.507812 379.757812 314.453125 356.488281 314.453125 C 333.410156 314.453125 311.453125 304.695312 296.160156 287.523438 C 295.316406 286.679688 294.5625 285.554688 294.09375 284.425781 C 293.34375 282.363281 293.25 280.109375 293.90625 278.046875 Z M 589.648438 606.066406 L 304.792969 606.066406 C 299.632812 606.066406 295.410156 601.84375 295.410156 596.683594 C 295.410156 591.523438 299.632812 587.300781 304.792969 587.300781 L 589.554688 587.300781 C 594.714844 587.300781 598.9375 591.523438 598.9375 596.683594 C 598.9375 601.84375 594.808594 606.066406 589.648438 606.066406 Z M 589.648438 545.734375 L 304.792969 545.734375 C 299.632812 545.734375 295.410156 541.511719 295.410156 536.351562 C 295.410156 531.191406 299.632812 526.96875 304.792969 526.96875 L 589.554688 526.96875 C 594.714844 526.96875 598.9375 531.191406 598.9375 536.351562 C 598.9375 541.511719 594.808594 545.734375 589.648438 545.734375 Z M 589.648438 485.402344 L 304.792969 485.402344 C 299.632812 485.402344 295.410156 481.183594 295.410156 476.019531 C 295.410156 470.859375 299.632812 466.636719 304.792969 466.636719 L 589.554688 466.636719 C 594.714844 466.636719 598.9375 470.859375 598.9375 476.019531 C 598.9375 481.183594 594.808594 485.402344 589.648438 485.402344 Z M 589.648438 425.074219 L 304.792969 425.074219 C 299.632812 425.074219 295.410156 420.851562 295.410156 415.691406 C 295.410156 410.53125 299.632812 406.308594 304.792969 406.308594 L 589.554688 406.308594 C 594.714844 406.308594 598.9375 410.53125 598.9375 415.691406 C 598.9375 420.851562 594.808594 425.074219 589.648438 425.074219 Z M 589.648438 364.742188 L 304.792969 364.742188 C 299.632812 364.742188 295.410156 360.519531 295.410156 355.359375 C 295.410156 350.199219 299.632812 345.976562 304.792969 345.976562 L 589.554688 345.976562 C 594.714844 345.976562 598.9375 350.199219 598.9375 355.359375 C 598.9375 360.519531 594.808594 364.742188 589.648438 364.742188 Z M 589.648438 364.742188 " fill-opacity="1" fill-rule="nonzero"/></g></svg>