<svg xmlns="http://www.w3.org/2000/svg" width="54.052" height="50" viewBox="0 0 54.052 50"><defs><style>.a{fill:rgba(239,45,86,0.15);}</style></defs><g transform="translate(-0.004)"><g transform="translate(0.004 0)"><g transform="translate(0 0)"><path class="a" d="M163.06,68.883c0,1.078-.282,1.508-1.412,1.457-1.914-.09-3.84-.051-5.757-.014-.847.017-1.282-.192-1.282-1.166q.037-15.528,0-31.039c0-.954.429-1.214,1.285-1.2,1.976.028,3.933.045,5.9,0,1-.02,1.273.4,1.268,1.347q0,1.99-.017,3.984V61.478Q163.032,65.174,163.06,68.883Z" transform="translate(-110.961 -26.495)"/><path class="a" d="M51.333,165.586h-24.3c-8.427,0-16.855-.023-25.282.028-1.335,0-1.8-.356-1.742-1.731.133-3.281-.378-2.756,2.747-2.758q24.72-.025,49.438,0c1.855,0,1.869,0,1.855,1.8C54.023,165.9,54.449,165.586,51.333,165.586Z" transform="translate(-0.004 -115.615)"/><path class="a" d="M64.57,82.316c0,1.1-.316,1.5-1.44,1.448-1.917-.082-3.842-.062-5.762-.017-.872.02-1.29-.22-1.287-1.172q.031-12.866,0-25.728c0-.9.325-1.256,1.239-1.234,1.976.045,3.953.068,5.9,0,1.1-.04,1.35.418,1.341,1.412-.037,4.215-.017,8.433-.017,12.648S64.527,78.1,64.57,82.316Z" transform="translate(-40.248 -39.911)"/><path class="a" d="M113.868,95.7c0,1.07-.387,1.372-1.412,1.341-1.914-.062-3.837-.065-5.751,0-1.078.042-1.364-.37-1.347-1.392.051-3.365.02-6.733.02-10.1h0c0-3.323.034-6.643-.017-9.963-.02-1.1.378-1.491,1.468-1.454,1.917.068,3.837.068,5.754.025.985-.023,1.293.367,1.29,1.327Q113.825,85.6,113.868,95.7Z" transform="translate(-75.613 -53.202)"/><path class="a" d="M15.417,109.18c0,.847-.327,1.158-1.163,1.129-2.013-.034-4.029-.056-6.042,0-1.047.054-1.265-.4-1.265-1.321.04-2.541,0-5.059,0-7.586h0c0-2.484.04-4.966-.02-7.448-.023-.991.322-1.33,1.293-1.307,1.976.048,3.936.04,5.9,0,.881,0,1.262.282,1.259,1.214Q15.363,101.521,15.417,109.18Z" transform="translate(-4.972 -66.49)"/><path class="a" d="M163.936,3.7a3.569,3.569,0,0,1-3.7,3.577A3.634,3.634,0,0,1,156.66,3.69,3.727,3.727,0,0,1,160.319,0a3.651,3.651,0,0,1,3.617,3.7Z" transform="translate(-112.432 0)"/><path class="a" d="M114.879,37.939a3.718,3.718,0,0,1-3.721,3.634,3.649,3.649,0,0,1,.184-7.3A3.693,3.693,0,0,1,114.879,37.939Z" transform="translate(-77.223 -24.599)"/><path class="a" d="M15.047,59.275A3.693,3.693,0,0,1,11.4,62.968a3.64,3.64,0,1,1-.118-7.278A3.741,3.741,0,0,1,15.047,59.275Z" transform="translate(-5.526 -39.967)"/><path class="a" d="M65.469,20.8a3.577,3.577,0,0,1-3.67,3.6,3.67,3.67,0,0,1-3.619-3.724,3.775,3.775,0,0,1,3.656-3.566,3.639,3.639,0,0,1,3.634,3.69Z" transform="translate(-41.754 -12.279)"/><path class="a" d="M39.8,39.673l-5.813,4.382L32.8,42.762l5.957-4.492Z" transform="translate(-23.541 -27.465)"/><path class="a" d="M140.972,22.952l-5.155,3.868c-.333-.542-.6-.968-.906-1.465l4.983-3.794Z" transform="translate(-96.822 -15.473)"/><path class="a" d="M93.291,32.736l-.627,1.629a19.268,19.268,0,0,1-3-1.841c-.4-.35-.336-1.225-.483-1.863l.381-.141Z" transform="translate(-64.003 -21.903)"/></g></g></g></svg>