<svg xmlns="http://www.w3.org/2000/svg" width="46.925" height="50" viewBox="0 0 46.925 50"><g transform="translate(-15.742)"><path d="M174.99,368.986H163.77a.983.983,0,0,0,0,1.967h11.22a.983.983,0,0,0,0-1.967Z" transform="translate(-132.685 -332.952)"/><path d="M119.127,421.6a.983.983,0,0,0,.983.983H125.6a.983.983,0,0,0,0-1.967H120.11A.983.983,0,0,0,119.127,421.6Z" transform="translate(-93.289 -379.541)"/><path d="M265.124,421.6a.983.983,0,0,0,.983.983H271.6a.983.983,0,0,0,0-1.967h-5.489A.983.983,0,0,0,265.124,421.6Z" transform="translate(-225.028 -379.541)"/><path d="M221.115,420.617a.984.984,0,0,0,0,1.967h.019a.984.984,0,0,0,0-1.967Z" transform="translate(-184.43 -379.541)"/><path d="M16.725,148.18a.983.983,0,0,0,.983-.984v-.019a.983.983,0,1,0-1.967,0v.019A.983.983,0,0,0,16.725,148.18Z" transform="translate(0 -131.917)"/><path d="M61.51,38.8,57.092,34.38V9.476c0-.031,0-.063,0-.094,0-.013,0-.026-.005-.039s0-.035-.008-.052-.007-.031-.011-.046-.007-.028-.011-.042-.01-.032-.016-.048l-.014-.038q-.009-.024-.02-.047l-.018-.037-.023-.043-.023-.038-.025-.038-.029-.039-.025-.032-.007-.009L49.532.341l-.02-.021C49.5.305,49.484.29,49.469.276L49.438.248,49.392.209,49.36.185,49.308.15l-.032-.02L49.217.1l-.03-.014c-.022-.01-.045-.019-.068-.027l-.026-.01c-.025-.008-.05-.015-.075-.021L48.994.022c-.027-.006-.054-.01-.081-.013l-.021,0a1.025,1.025,0,0,0-.1-.006H20.14a4.4,4.4,0,0,0-4.4,4.4v6.476a.983.983,0,1,0,1.967,0V4.4A2.435,2.435,0,0,1,20.14,1.967H47.8V8.306a2.158,2.158,0,0,0,2.156,2.154h5.165V32.414l-2.16-2.16-.016-.017-.017-.016L48.3,25.584a13.088,13.088,0,1,0-21.167,2.868.979.979,0,0,0,.155.164,13.062,13.062,0,0,0,15.463,2.519l4.635,4.637.016.018.018.016,7.71,7.713V45.6a2.435,2.435,0,0,1-2.431,2.434H20.14A2.435,2.435,0,0,1,17.709,45.6V19.644a.983.983,0,1,0-1.967,0V45.6a4.4,4.4,0,0,0,4.4,4.4H52.694a4.4,4.4,0,0,0,4.4-4.4v-.408a3.515,3.515,0,0,0,1.614.4,4.03,4.03,0,0,0,2.8-6.792ZM49.771,8.306V3.63l4.192,4.863h-4A.191.191,0,0,1,49.771,8.306Zm-13.075.1a11.118,11.118,0,0,1,9.616,16.7.978.978,0,0,0-.162.269q-.29.468-.625.9A10.237,10.237,0,0,0,40.2,21.6a5.841,5.841,0,1,0-7.309,0,10.228,10.228,0,0,0-5.2,4.448A11.116,11.116,0,0,1,36.7,8.409Zm-4.028,8.641a3.874,3.874,0,1,1,3.875,3.873A3.88,3.88,0,0,1,32.669,17.051ZM29.081,27.629a8.244,8.244,0,0,1,15.013.2,11.191,11.191,0,0,1-1.551,1.161.98.98,0,0,0-.272.164,11.1,11.1,0,0,1-13.19-1.523Zm16.773,1.242a.98.98,0,0,0,.178-.178,13.2,13.2,0,0,0,1.192-1.4l3.638,3.638L48.094,33.7l-3.637-3.639a13.19,13.19,0,0,0,1.4-1.192ZM60.03,43.026a1.76,1.76,0,0,1-2.681-.066l-7.865-7.868,2.769-2.77L55.4,35.465l.038.038L60.12,40.19a1.961,1.961,0,0,1-.09,2.837Z" transform="translate(0 0)"/></g></svg>