<svg xmlns="http://www.w3.org/2000/svg" width="35" height="35" viewBox="0 0 35 35"><defs><style>.a{fill:rgba(239,45,86,0.07);}.b{fill:#ef2d56;}</style></defs><g transform="translate(-25 -880)"><path class="a" d="M32.143,9.7c0,7.7,3.6,12.991,3.6,16.7S33.818,37.9,18.411,37.9.743,27.417.743,23.335a18.139,18.139,0,0,1,.211-2.683C3.325,3.573,32.143-3.372,32.143,9.7Z" transform="translate(24.257 877.098)"/><g transform="translate(34 889)"><path class="b" d="M19.472,19.209h0V12.974c0-3.05-.657-5.4-4.222-5.4a3.7,3.7,0,0,0-3.334,1.832h-.05V7.859H8.489v11.35h3.52v-5.62c0-1.48.28-2.911,2.113-2.911,1.806,0,1.832,1.689,1.832,3.005v5.526Z" transform="translate(-2.476 -2.209)"/><path class="b" d="M.4,7.977H3.921v11.35H.4Z" transform="translate(-0.116 -2.327)"/><path class="b" d="M2.041,0A2.051,2.051,0,1,0,4.083,2.041,2.042,2.042,0,0,0,2.041,0Z"/></g></g></svg>