<svg xmlns="http://www.w3.org/2000/svg" width="75.158" height="60" viewBox="0 0 75.158 60"><defs><style>.a{fill-rule:evenodd;}</style></defs><g transform="translate(-5.5 -14.475)"><path class="a" d="M6.3,17.3l9.164-.084a.862.862,0,0,1,.633.253,1.017,1.017,0,0,1,.211.591v1.393l2.068-.084.043-.042,4.77-2.618q4.055-2.238,4.688-2.238a9.393,9.393,0,0,1,3.04,1.1l2.449,1.182a18.129,18.129,0,0,0,5.278.633.747.747,0,0,1,.844.844l.043.338V18.7l-.043.507a40.1,40.1,0,0,0,5.7-.633,15.64,15.64,0,0,0,5.827-2.027.8.8,0,0,1,1.14.127,21.637,21.637,0,0,0,6.334,5.489.872.872,0,0,1-.043,1.52,28.987,28.987,0,0,1-5.785,2.027,23.882,23.882,0,0,1-6.207.718l-.254.169a92.3,92.3,0,0,1-9.625,3.927q-5.786,2.027-6.756,2.027-2.365,0-8.192-1.858-2.7-.845-4.729-1.6l-.633.084L16.182,32a.742.742,0,0,1-.76.8l-9.035.76H6.344a1.008,1.008,0,0,1-.59-.211.857.857,0,0,1-.254-.633V18.148a.9.9,0,0,1,.211-.591A.809.809,0,0,1,6.3,17.3Zm12.667,3.631a.682.682,0,0,1-.422.127l-2.236.084v5.785a.623.623,0,0,1,.59.3l.422.211q3,1.055,4.856,1.647a31.081,31.081,0,0,0,7.643,1.773,44.166,44.166,0,0,0,6.207-1.942q3.884-1.393,7.051-2.745a29.728,29.728,0,0,1-3.462-.76,7.221,7.221,0,0,1-1.267-.38l-.084-.042q-1.816-.845-3-1.267a15.966,15.966,0,0,1-2.618-1.056,14.281,14.281,0,0,1-3.421-.718,22.84,22.84,0,0,0-3.968-1.013.768.768,0,0,1-.549-.338.993.993,0,0,1-.127-.633.782.782,0,0,1,.971-.718,29.526,29.526,0,0,1,4.222,1.1,9.492,9.492,0,0,0,3.124.633h.465A6.969,6.969,0,0,0,36.28,20.3a4.253,4.253,0,0,0,1.267-.8.841.841,0,0,0,.254-.422,17.364,17.364,0,0,1-5.024-.718L30.2,17.093a12.617,12.617,0,0,0-2.238-.929,43.7,43.7,0,0,0-3.968,2.027l-4.729,2.618ZM7.189,18.993V31.787l7.346-.591.086-12.287Zm31.752,4.476,1.14.338a25.031,25.031,0,0,0,6,.929,21.338,21.338,0,0,0,6.164-.676,28.065,28.065,0,0,0,4.011-1.267,24.854,24.854,0,0,1-4.9-4.476,20.649,20.649,0,0,1-5.87,1.942,44.278,44.278,0,0,1-7.008.676,4.811,4.811,0,0,1-1.521.887,4.291,4.291,0,0,1-.929.38A23.507,23.507,0,0,1,38.941,23.469ZM80.4,26.509a1.039,1.039,0,0,1,.254.591V39.471a.888.888,0,0,1-.3.633.864.864,0,0,1-.633.211l-12.288-.8a.8.8,0,0,1-.76-.76l-.211-1.816-2.49-.253-1.056,2.745q-1.69,3.885-3.589,4.053l.084.084a8.338,8.338,0,0,1,1.436,3l1.689.127a.778.778,0,0,1,.758.718l4.054,22.674a.744.744,0,0,1-.168.676l-2.745,3.42a.932.932,0,0,1-.676.3H40.25a.8.8,0,0,1-.676-.338l-3.419-4.6a.843.843,0,0,1-.127-.676L40.968,47.2a.8.8,0,0,1,.844-.676h1.562A10.588,10.588,0,0,1,44.9,43.145l.59-.718q-1.942-1.6-1.689-2.745a37.85,37.85,0,0,1,1.478-3.927,8.773,8.773,0,0,1,3.167-4.265Q50.173,30.478,56,29.127a61.446,61.446,0,0,1,6.418-1.351l2.913.084-.041-.549a.637.637,0,0,1,.211-.633.682.682,0,0,1,.59-.3l13.723-.127A.805.805,0,0,1,80.4,26.509Zm-1.435,1.436-11.907.127.971,7.938v.042l.211,1.816,10.724.718V27.944Zm-13.427,1.6-3.167-.084q-.507,0-6,1.309a34.826,34.826,0,0,0-7.094,2.153,6.958,6.958,0,0,0-2.449,3.5,31.266,31.266,0,0,0-1.392,3.547q.042.043.336.38a7.9,7.9,0,0,0,1.1.971,7.381,7.381,0,0,1,2.745-1.1l.254-.38a6.7,6.7,0,0,1,1.814-1.562,29.383,29.383,0,0,0,5.659-3.969.726.726,0,0,1,.59-.253.864.864,0,0,1,.844.844.855.855,0,0,1-.3.591,30.064,30.064,0,0,1-5.911,4.222,9.735,9.735,0,0,0-1.351,1.056l-.254.549a3.2,3.2,0,0,0-.168,1.013,2.655,2.655,0,0,0,.211.929l.084.127.549-.253.844-.507a10.118,10.118,0,0,1,4.433-1.013h.379l1.859.169q.927-.127,2.2-3l1.267-3.251V35.5l.084-.253a.746.746,0,0,1,.844-.718.762.762,0,0,1,.76.507l1.941.169ZM56.886,43.314a8.349,8.349,0,0,0-3.63.844l-.8.464a3.927,3.927,0,0,1-1.435.507,1.78,1.78,0,0,1-1.478-1.056l-.043-.084a3.816,3.816,0,0,1-.379-1.647l.041-.253a5.6,5.6,0,0,0-1.773.971h-.041V43.1a3.561,3.561,0,0,0-1.1,1.056,7.139,7.139,0,0,0-1.1,2.365H59.081a6.673,6.673,0,0,0-1.056-1.942A9.568,9.568,0,0,0,56.886,43.314Zm4.9,5.025-1.732-.127H42.446L37.758,68.859l2.956,3.927H63.39L65.626,70l-.464-2.829L48.1,66.917a.808.808,0,0,1-.59-.253.683.683,0,0,1-.211-.591.867.867,0,0,1,.844-.844l16.721.253ZM45.275,65.186a.992.992,0,0,1,.592.3.744.744,0,0,1,.168.591.807.807,0,0,1-.254.591.739.739,0,0,1-.547.211h-.086l-.633-.042a.816.816,0,0,1-.547-.3.679.679,0,0,1-.211-.591.812.812,0,0,1,.252-.591.8.8,0,0,1,.633-.211Z"/></g></svg>