<svg xmlns="http://www.w3.org/2000/svg" width="18" height="18" viewBox="0 0 18 18"><defs><style>.a{fill:#191919;}</style></defs><g transform="translate(-0.032)"><g transform="translate(0.032)"><path class="a" d="M18.027,4.21a4.895,4.895,0,0,0-.075-.856A4.142,4.142,0,0,0,13.984,0H4.105a3.876,3.876,0,0,0-.962.133A4.149,4.149,0,0,0,.04,4.141q-.013,2.953,0,5.9a3.966,3.966,0,0,0,1.427,3.039A4.174,4.174,0,0,0,3.9,14.1v3.541c0,.246.167.408.371.346a.577.577,0,0,0,.225-.158q1.787-1.782,3.562-3.57a.419.419,0,0,1,.327-.135H13.8a4.669,4.669,0,0,0,.635-.04,4.168,4.168,0,0,0,3.6-4.158C18.033,8.021,18.034,6.115,18.027,4.21Zm-12,3.743a.892.892,0,1,1,.9-.884A.9.9,0,0,1,6.028,7.953Zm3.014,0a.892.892,0,1,1,.89-.9.9.9,0,0,1-.89.9Zm2.992,0a.892.892,0,1,1,.9-.888.892.892,0,0,1-.9.888Z" transform="translate(-0.032)"/></g></g></svg>