<svg xmlns="http://www.w3.org/2000/svg" width="32.405" height="25" viewBox="0 0 32.405 25"><defs><style>.a{fill:#888;}</style></defs><g transform="translate(0 -58.5)"><g transform="translate(0.475 58.975)"><path class="a" d="M85.225,156.872h-2.85a2.205,2.205,0,1,1,0-4.411h2.85a2.205,2.205,0,1,1,0,4.411Z" transform="translate(-75.56 -146.989)"/><path class="a" d="M87.3,157.675a2.216,2.216,0,0,1-2.07,1.416H82.376a2.2,2.2,0,0,1-.8-4.261,2.181,2.181,0,0,0-.147.79,2.211,2.211,0,0,0,2.216,2.205h2.849A2.215,2.215,0,0,0,87.3,157.675Z" transform="translate(-75.561 -149.208)"/><path class="a" d="M205.288,291.273h-2.85a2.205,2.205,0,1,1,0-4.411h2.85a2.205,2.205,0,1,1,0,4.411Z" transform="translate(-188.024 -272.883)"/><path class="a" d="M207.355,292.075a2.216,2.216,0,0,1-2.07,1.416h-2.849a2.2,2.2,0,0,1-.8-4.261,2.181,2.181,0,0,0-.147.79,2.211,2.211,0,0,0,2.216,2.205h2.849A2.215,2.215,0,0,0,207.355,292.075Z" transform="translate(-188.023 -275.102)"/><path class="a" d="M323.35,208.641H320.5a2.205,2.205,0,1,1,0-4.411h2.85a2.205,2.205,0,1,1,0,4.411Z" transform="translate(-298.614 -195.481)"/><path class="a" d="M325.416,209.446a2.216,2.216,0,0,1-2.07,1.415H320.5a2.2,2.2,0,0,1-.8-4.261,2.182,2.182,0,0,0-.147.79,2.211,2.211,0,0,0,2.216,2.205h2.85a2.228,2.228,0,0,0,.8-.149Z" transform="translate(-298.61 -197.701)"/></g><g transform="translate(0 58.5)"><path class="a" d="M.475,64.449a.475.475,0,0,0,.475-.475V61.042a1.6,1.6,0,0,1,1.6-1.593H18.367a.475.475,0,0,0,0-.949H2.552A2.55,2.55,0,0,0,0,61.042v2.933a.475.475,0,0,0,.475.475Z" transform="translate(0 -58.5)"/><path class="a" d="M26.073,189.335H2.552a1.6,1.6,0,0,1-1.6-1.593V172.975a.475.475,0,1,0-.949,0v14.768a2.55,2.55,0,0,0,2.552,2.542H26.073a.475.475,0,0,0,0-.949Z" transform="translate(0 -165.285)"/><path class="a" d="M327.417,58.5h-9.273a.475.475,0,1,0,0,.949h9.273a1.6,1.6,0,0,1,1.6,1.593V80.958a1.6,1.6,0,0,1-1.6,1.593h-1.565a.475.475,0,1,0,0,.949h1.565a2.55,2.55,0,0,0,2.552-2.542V61.042A2.55,2.55,0,0,0,327.417,58.5Z" transform="translate(-297.564 -58.5)"/><path class="a" d="M75.667,124.108a.475.475,0,0,0-.475.475v4.526a1.61,1.61,0,0,0,3.166,0v-9.3a2.679,2.679,0,0,0,0-5.35V113.7a1.612,1.612,0,0,0-3.166,0v.758a2.679,2.679,0,0,0,0,5.35v2.514a.475.475,0,1,0,.949,0v-2.509h1.267v9.3c0,.172-.271.365-.633.365s-.633-.192-.633-.365v-4.526A.475.475,0,0,0,75.667,124.108Zm1.108-10.77c.357,0,.633.193.633.359v.753H76.141V113.7C76.141,113.531,76.418,113.338,76.775,113.338Zm-3.166,3.792A1.738,1.738,0,0,1,75.35,115.4H78.2a1.731,1.731,0,1,1,0,3.461c-.278-.018-2.51.01-2.85,0A1.738,1.738,0,0,1,73.608,117.131Z" transform="translate(-68.06 -108.978)"/><path class="a" d="M200.954,125.749a2.688,2.688,0,0,0-2.539-2.676l.007-9.251a1.61,1.61,0,0,0-3.166,0l.006,9.251a2.679,2.679,0,0,0,0,5.351l0,.819a1.612,1.612,0,0,0,3.166,0l0-.816a2.688,2.688,0,0,0,2.537-2.675Zm-4.115-12.291c.363,0,.633.192.633.364l-.007,9.247h-1.254l-.006-9.246C196.2,113.651,196.476,113.458,196.838,113.458Zm0,16.143c-.357,0-.633-.192-.633-.356l0-.817h1.258l0,.814C197.472,129.409,197.2,129.6,196.838,129.6Zm1.424-2.122h-2.85a1.731,1.731,0,1,1,0-3.461h2.85a1.731,1.731,0,1,1,0,3.461Z" transform="translate(-180.524 -109.091)"/><path class="a" d="M316.484,117.935v-4.011a1.609,1.609,0,0,0-3.166,0l.012,4.009a2.679,2.679,0,0,0,0,5.352l-.013,6.068a1.612,1.612,0,0,0,3.166,0v-6.069a2.679,2.679,0,0,0,0-5.35Zm-1.583-4.38c.363,0,.633.195.633.369v4.006h-1.255l-.012-4.006C314.267,113.75,314.538,113.555,314.9,113.555Zm0,16.158c-.357,0-.633-.193-.633-.358l.013-6.064h1.255v6.064C315.534,129.52,315.258,129.713,314.9,129.713Zm1.425-7.372h-2.85a1.731,1.731,0,1,1,0-3.461h2.85a1.731,1.731,0,1,1,0,3.461Z" transform="translate(-291.115 -109.182)"/></g></g></svg>