<svg xmlns="http://www.w3.org/2000/svg" width="40" height="40" viewBox="0 0 40 40"><defs><style>.a{fill:#f2f2f2;}.b{fill:#3f3d56;}.c{fill:#a1a1a1;}.d{fill:#fff;}.e{fill:#e6e6e6;}</style></defs><g transform="translate(-0.001 -0.004)"><path class="a" d="M338.306,169.325H327.528a.939.939,0,0,0-.926.949v24.541l-.124.039-2.644.83a.493.493,0,0,1-.617-.336l-7.865-26.319a.509.509,0,0,1,.328-.632l4.075-1.278,11.812-3.7,4.075-1.278a.483.483,0,0,1,.376.037.5.5,0,0,1,.241.3l2.01,6.727Z" transform="translate(-312.911 -160.326)"/><path class="b" d="M303.931,142.786l-2.423-8.108a1.045,1.045,0,0,0-1.311-.714l-5.729,1.8-11.812,3.7-5.729,1.8a1.081,1.081,0,0,0-.7,1.343l8.281,27.71a1.055,1.055,0,0,0,1,.761,1.013,1.013,0,0,0,.307-.047l3.927-1.231.123-.039v-.132l-.123.039-3.963,1.243a.924.924,0,0,1-1.157-.63l-8.281-27.71a.968.968,0,0,1,.067-.723.931.931,0,0,1,.547-.462l5.729-1.8,11.812-3.7,5.729-1.8a.915.915,0,0,1,.272-.042.93.93,0,0,1,.884.671l2.412,8.071.038.127h.128Z" transform="translate(-276.184 -133.913)"/><path class="c" d="M378.329,155.006a.559.559,0,0,1-.532-.4l-.8-2.662a.572.572,0,0,1,.369-.711l10.867-3.408a.554.554,0,0,1,.694.378l.8,2.662a.573.573,0,0,1-.369.711l-10.867,3.408a.543.543,0,0,1-.162.025Z" transform="translate(-370.751 -146.915)"/><ellipse class="c" cx="1.235" cy="1.265" rx="1.235" ry="1.265" transform="translate(10.51 0.317)"/><ellipse class="d" cx="0.782" cy="0.801" rx="0.782" ry="0.801" transform="translate(10.964 0.781)"/><path class="e" d="M553.721,320.789H532.845a.532.532,0,0,1-.525-.538V294.625a.532.532,0,0,1,.525-.538h20.876a.532.532,0,0,1,.525.538v25.626A.532.532,0,0,1,553.721,320.789Z" transform="translate(-516.499 -283.949)"/><path class="b" d="M509.871,274.087h-13a1.065,1.065,0,0,0-1.05,1.076v25.8l.123-.039V275.163a.939.939,0,0,1,.927-.949h13.04Zm11.334,0H496.87a1.065,1.065,0,0,0-1.05,1.076v28.98a1.065,1.065,0,0,0,1.05,1.076h24.335a1.064,1.064,0,0,0,1.05-1.076v-28.98A1.064,1.064,0,0,0,521.205,274.087Zm.926,30.055a.939.939,0,0,1-.926.949H496.87a.939.939,0,0,1-.927-.949v-28.98a.939.939,0,0,1,.927-.949h24.335a.939.939,0,0,1,.926.949Z" transform="translate(-482.254 -265.214)"/><path class="c" d="M620.741,260.01H609.376a.563.563,0,0,1-.556-.569v-2.784a.563.563,0,0,1,.556-.569h11.364a.563.563,0,0,1,.556.569v2.784A.563.563,0,0,1,620.741,260.01Z" transform="translate(-588.274 -248.353)"/><ellipse class="c" cx="1.235" cy="1.265" rx="1.235" ry="1.265" transform="translate(25.549 5.393)"/><ellipse class="d" cx="0.752" cy="0.771" rx="0.752" ry="0.771" transform="translate(26.032 5.887)"/></g></svg>