<svg xmlns="http://www.w3.org/2000/svg" width="50" height="50" viewBox="0 0 50 50"><defs><style>.a{fill:rgba(239,45,86,0.15);}</style></defs><g transform="translate(-687 -346)"><g transform="translate(687 346)"><path class="a" d="M.026-366.2c.039,20.8.052,21.855.271,22.526A8.232,8.232,0,0,0,5.67-338.3c.67.219,1.714.232,22.526.271L50-338v-21.559c0-21.057,0-21.6-.258-22.564a6.976,6.976,0,0,0-2.062-3.557,6.735,6.735,0,0,0-1.933-1.443c-1.894-.928-.541-.876-24.355-.876H0ZM43.8-386.393a6.561,6.561,0,0,1,4.639,4.7c.09.387.142,7.513.142,21.43v20.837l-21.16-.026L6.25-339.486l-.825-.348a6.938,6.938,0,0,1-3.647-3.685l-.3-.734-.039-21.172-.026-21.16H22.255C39.922-386.586,43.208-386.56,43.8-386.393Z" transform="translate(0 388.004)"/><path class="a" d="M18-350.26c0,21.778-.039,20.593.812,22.191a6.892,6.892,0,0,0,2.616,2.616c1.6.851.412.812,22.191.812H63.359v-19.884c0-21.739.039-20.58-.747-22.049a8.072,8.072,0,0,0-2.745-2.693c-1.546-.773-.335-.734-21.984-.734H18Zm30.8-14.651a1.776,1.776,0,0,1,.58.58,1.524,1.524,0,0,1-.452,2,1.524,1.524,0,0,1-2.035-.262l-.412-.451H42.83c-5.1,0-6.727.206-8.686,1.1a5.307,5.307,0,0,0-3.08,3.634l-.219.8.464.528a1.438,1.438,0,0,1-.116,2.255c-.309.271-.309.271-.1.967.567,1.907,1.34,2.938,6.366,8.518,2.139,2.371,3.982,4.472,4.1,4.691a2.258,2.258,0,0,1-.026,1.895c-.477.721-.889.786-5.58.85-4.111.052-4.291.064-4.369.309a1.608,1.608,0,0,1-1.314.747,1.533,1.533,0,0,1-1.572-1.611,1.313,1.313,0,0,1,.438-.941,1.106,1.106,0,0,1,1.1-.477,1.184,1.184,0,0,1,1.07.412l.438.425,4.111-.013c2.268-.013,4.265-.051,4.446-.1.374-.1.49-.606.258-1.057-.09-.155-1.469-1.727-3.08-3.505-6.186-6.843-6.907-7.822-7.5-10.116-.129-.528-.258-.734-.528-.876a1.581,1.581,0,0,1-.747-1.417c0-.387.1-.567.541-1.005a1.99,1.99,0,0,0,.709-1.3,6.5,6.5,0,0,1,1.7-3.144,7.414,7.414,0,0,1,3.131-1.881c1.753-.58,3.119-.709,7.59-.709h4.085l.515-.516A1.4,1.4,0,0,1,48.8-364.912Zm2.049,7.345a1.611,1.611,0,0,1,.735,1.546,1.519,1.519,0,0,1-2.706.7l-.322-.374H44.815a34.683,34.683,0,0,0-4.059.129.432.432,0,0,0-.335.49c0,.438.18.683,1.662,2.345l1.1,1.224h.735c.644,0,.8.052,1.134.374a1.524,1.524,0,0,1,.412,1.624c-.129.387-.1.438,1.25,1.907a27.824,27.824,0,0,1,3.325,3.969,9.155,9.155,0,0,1,1.559,4.188c.064.851.116,1.018.361,1.147a1.593,1.593,0,0,1,.515,2.062,1.635,1.635,0,0,1-1.121.773c-.09,0-.309.309-.49.67a7.5,7.5,0,0,1-2.513,2.668,10.965,10.965,0,0,1-1.74.8c-1.765.631-3.2.76-8.222.76-4.433,0-4.536,0-4.665.271a1.884,1.884,0,0,1-1.469.76,1.1,1.1,0,0,1-.915-.425,1.394,1.394,0,0,1-.09-2.165,1.514,1.514,0,0,1,2.371.206l.142.322h4.175c2.294,0,4.729-.064,5.425-.129,3.015-.335,5.142-1.328,6.2-2.912.528-.812.619-1.16.348-1.456a1.535,1.535,0,0,1,.387-2.165c.322-.206.335-.258.258-1.07-.206-2.255-1.082-3.7-4.459-7.384-1.443-1.585-1.649-1.766-2.036-1.766a1.537,1.537,0,0,1-1.572-1.675c0-.49-.1-.631-1.237-1.907-1.649-1.817-1.894-2.216-1.907-2.977a1.484,1.484,0,0,1,.928-1.534c.412-.18.992-.206,4.317-.193l3.853.026.477-.516c.412-.425.567-.5,1.031-.5A2.33,2.33,0,0,1,50.846-357.567Z" transform="translate(-15.679 372.322)"/></g></g></svg>