<svg xmlns="http://www.w3.org/2000/svg" width="35" height="35" viewBox="0 0 35 35"><defs><style>.a{fill:rgba(239,45,86,0.07);}.b{fill:#ef2d56;}</style></defs><g transform="translate(-25 -437)"><path class="a" d="M32.143,9.7c0,7.7,3.6,12.991,3.6,16.7S33.818,37.9,18.411,37.9.743,27.417.743,23.335a18.139,18.139,0,0,1,.211-2.683C3.325,3.573,32.143-3.372,32.143,9.7Z" transform="translate(24.256 434.098)"/><g transform="translate(34.333 447.5)"><path class="b" d="M13.1,5.281a.729.729,0,0,1-.729-.729V3.458H9.458V4.552A.729.729,0,0,1,8,4.552V3.458A1.46,1.46,0,0,1,9.458,2h2.917a1.46,1.46,0,0,1,1.458,1.458V4.552A.729.729,0,0,1,13.1,5.281Z" transform="translate(-2.167 -2)"/><path class="b" d="M9.268,14.362a1.5,1.5,0,0,1-.518.087,1.6,1.6,0,0,1-.561-.1L0,11.62v5.564a2,2,0,0,0,2.005,2.005h13.49A2,2,0,0,0,17.5,17.184V11.62Z" transform="translate(0 -4.605)"/><path class="b" d="M17.5,7.005v1.67L8.925,11.533a.54.54,0,0,1-.35,0L0,8.675V7.005A2,2,0,0,1,2.005,5h13.49A2,2,0,0,1,17.5,7.005Z" transform="translate(0 -2.812)"/></g></g></svg>