<svg xmlns="http://www.w3.org/2000/svg" width="35" height="35" viewBox="0 0 35 35"><defs><style>.a{fill:rgba(239,45,86,0.07);}.b{fill:#ef2d56;}</style></defs><g transform="translate(-25 -583)"><path class="a" d="M32.143,9.7c0,7.7,3.6,12.991,3.6,16.7S33.818,37.9,18.411,37.9.743,27.417.743,23.335a18.139,18.139,0,0,1,.211-2.683C3.325,3.573,32.143-3.372,32.143,9.7Z" transform="translate(24.256 580.098)"/><g transform="translate(34.333 593.5)"><g transform="translate(0 0)"><path class="b" d="M14.561,4.1l2.934-2.827-.2-.056L12.042.061A2.643,2.643,0,0,1,11.783,0a.214.214,0,0,0-.222.058L9,2.161l-.047.033-.781-.585L6.108.033a.186.186,0,0,0-.175-.039C5.129.153,4.318.309,3.5.467L1.1.94l-.96.187a.306.306,0,0,0-.067.016l-.023.032a.475.475,0,0,1,.091.058L2.986,4.054a.469.469,0,0,0,.1.068l-1.133,1.1L.075,7.049c-.023.021-.051.039-.075.06v.018L1.557,7.8c.45.2.9.4,1.354.592a.116.116,0,0,1,.081.126v2.7a.121.121,0,0,0,.089.137Q5.8,12.425,8.511,13.5a.65.65,0,0,0,.536,0q2.717-1.118,5.444-2.212a.124.124,0,0,0,.089-.138v-2.7a.135.135,0,0,1,.1-.149q1.371-.578,2.738-1.16L17.5,7.1Zm-1.414.445L9.171,6.27a.228.228,0,0,1-.156,0Q6.26,5.268,3.5,4.249c-.042-.014-.082-.025-.079-.088s.046-.06.082-.072L8.7,2.424a.252.252,0,0,1,.135,0l5.209,1.668.088.03Z" transform="translate(0 0.014)"/></g></g></g></svg>