<svg xmlns="http://www.w3.org/2000/svg" width="35.737" height="50" viewBox="0 0 35.737 50"><defs><style>.a{fill:rgba(239,45,86,0.15);}</style></defs><path class="a" d="M32.519,22.291a1.972,1.972,0,0,1,.668-2.9c.814-.633,1.64-1.252,2.551-1.955-.9-.679-1.718-1.3-2.532-1.929a1.956,1.956,0,0,1-.7-2.9c.464-.949.969-1.883,1.514-2.938-1.194-.232-2.2-.415-3.212-.619a1.924,1.924,0,0,1-1.83-2.226V3.5l-3.163.777a1.868,1.868,0,0,1-2.572-1.248c-.448-.965-.87-1.941-1.352-3.015L19.276,2.236a1.882,1.882,0,0,1-2.7,0C15.733,1.512,14.889.8,13.945,0c-.5,1.12-.928,2.138-1.391,3.135a1.818,1.818,0,0,1-2.421,1.16c-1.074-.25-2.138-.529-3.277-.812V6.7c0,1.538-.438,2.087-1.923,2.368-1,.195-1.992.392-3.108.615.538,1.051,1,1.932,1.445,2.818.7,1.371.529,2.073-.673,2.987C1.756,16.127.911,16.756,0,17.44c1.013.754,1.883,1.391,2.734,2.043a1.923,1.923,0,0,1,.626,2.73c-.475.958-.974,1.906-1.521,2.975,1.055.211,1.987.4,2.917.587,1.746.353,2.117.812,2.1,2.567V31.4c1.1-.288,2.1-.571,3.108-.8a1.948,1.948,0,0,1,2.658,1.333c.42.928.842,1.872,1.241,2.753.153.016.2.037.232.019.835-.679,1.658-1.373,2.5-2.043a1.887,1.887,0,0,1,2.7.019c.851.7,1.688,1.415,2.621,2.2.464-1.046.874-1.95,1.282-2.855.652-1.449,1.28-1.765,2.822-1.391.981.232,1.96.492,2.975.747v-3.4a1.857,1.857,0,0,1,1.7-2.087c1.076-.2,2.143-.45,3.186-.673,0-.167.014-.211,0-.232C33.421,24.072,32.966,23.191,32.519,22.291ZM17.825,27.746A10.308,10.308,0,0,1,7.653,17.25a10.275,10.275,0,0,1,20.547.313A10.322,10.322,0,0,1,17.825,27.746Z"/><path class="a" d="M87.211,153.146c-.891-.278-1.561-.482-2.226-.7-.8-.253-1.6-.524-2.414-.768a2.066,2.066,0,0,0-2.783,1.143c-.666,1.292-1.282,2.609-2.05,4.174-.285-.564-.482-.9-.628-1.255q-2.484-6.018-4.947-12.041c-.654-1.6-.647-1.6.928-2.651.8.666,1.623,1.352,2.435,2.034,1.35,1.125,2.551.844,3.307-.772.448-.967.881-1.941,1.3-2.871a1.979,1.979,0,0,1,2.134,1.456c1.468,3.711,3.015,7.393,4.541,11.085C86.94,152.267,87.017,152.559,87.211,153.146Z" transform="translate(-55.113 -107.104)"/><path class="a" d="M29.508,148.738q-1.694,4.209-3.43,8.409l-.336.035c-.524-1.053-1.051-2.1-1.568-3.156-1.083-2.215-1.623-2.437-3.994-1.67-1.129.364-2.266.71-3.4,1.055-.053.016-.135-.051-.336-.137.246-.617.487-1.243.742-1.855,1.452-3.516,2.941-7.015,4.332-10.557a1.763,1.763,0,0,1,1.946-1.315l1.146,2.574c.721,1.623,1.206,1.878,3.068,1.542.6,1.459,1.22,2.936,1.811,4.425A.967.967,0,0,1,29.508,148.738Z" transform="translate(-12.627 -107.182)"/><path class="a" d="M57.638,47.009a8.509,8.509,0,1,1-8.546-8.5A8.509,8.509,0,0,1,57.638,47.009Z" transform="translate(-31.2 -29.578)"/></svg>