<svg xmlns="http://www.w3.org/2000/svg" width="35" height="35" viewBox="0 0 35 35"><defs><style>.a{fill:rgba(239,45,86,0.07);}.b{fill:#ef2d56;}</style></defs><g transform="translate(-25 -627)"><path class="a" d="M32.143,9.7c0,7.7,3.6,12.991,3.6,16.7S33.818,37.9,18.411,37.9.743,27.417.743,23.335a18.139,18.139,0,0,1,.211-2.683C3.325,3.573,32.143-3.372,32.143,9.7Z" transform="translate(24.256 624.098)"/><g transform="translate(33.167 636.333)"><g transform="translate(0 0)"><g transform="translate(0 0)"><path class="b" d="M42.429,88.317a6.555,6.555,0,0,1-4.208,3.068l-4,.655h-.873a22.006,22.006,0,0,1-4.534-1.995,14.37,14.37,0,0,0-2.326-.828c-.4-.121-.638-.225-.62-.735.049-1.263,0-2.528.031-3.792a.64.64,0,0,1,.311-.505,10.366,10.366,0,0,1,4.811-.378,5.346,5.346,0,0,1,1.467.529,12.831,12.831,0,0,0,4.306.992,9.314,9.314,0,0,1,1.474.327A1.081,1.081,0,0,1,39,86.947a.921.921,0,0,1-1.006.857c-1.081-.019-2.161-.109-3.242-.16-.406-.019-.814,0-1.221,0-.015.071-.031.142-.045.218a8.809,8.809,0,0,0,1.584.482c1.886.213,3.726.163,5.238-1.253a2.018,2.018,0,0,1,.714-.372,1.019,1.019,0,0,1,1.242.2A1.106,1.106,0,0,1,42.429,88.317Z" transform="translate(-23.048 -74.54)"/><path class="b" d="M0,80.87v6.724H2.229V80.87Zm1.091,6.211a.677.677,0,0,1-.406-.493c-.015-.116.294-.386.45-.381.186.007.362.235.686.47-.351.208-.565.433-.73.4Z" transform="translate(0 -72.046)"/><path class="b" d="M53.85,8.67c-.2.6-.4,1.2-.569,1.8a.353.353,0,0,1-.523.279l-.256-.084c-.518-.178-1.07-.492-1.223.234l-2.772-.8c1.571-1.521,1.931-3.253.327-5.038a3.2,3.2,0,0,0-3.94-.5c-1.405.829-1.868,2.263-1.356,4.171l-2.778-.2c-.031-.357-.091-.746-.089-1.136a.467.467,0,0,0-.374-.54c-1.135-.366-1.142-.382-.781-1.5.148-.458.213-1.091.538-1.3.263-.171.858.167,1.309.278a1.034,1.034,0,0,0,.134.01A6.527,6.527,0,0,1,43.717,2.2a.626.626,0,0,0,.151-.536C43.645.52,43.635.522,44.789.273,45.141.2,45.5.138,45.844.038c.313-.091.526,0,.534.318.02.909.472,1.219,1.363,1.283a5.114,5.114,0,0,1,1.756.655.507.507,0,0,0,.7-.091c.835-.782.845-.775,1.615.053.34.367.679.74,1.14,1.24-.248.176-.462.311-.655.469s-.369.34-.436.407c.272,1.194.52,2.292.79,3.474.218.072.577.2.938.3C53.881,8.229,53.943,8.391,53.85,8.67Z" transform="translate(-35.015 -0.005)"/></g></g></g></g></svg>