<svg xmlns="http://www.w3.org/2000/svg" width="59.935" height="60" viewBox="0 0 59.935 60"><g transform="translate(-0.012 0)"><path d="M51.768,44a13.439,13.439,0,0,0-.024-5.1l4.58-11.053a.171.171,0,0,0,0-.022,18.78,18.78,0,0,1,3.215-5.582,1.491,1.491,0,0,0,.369-1.365l-1.878-8.11a.979.979,0,0,0-.1-.242c-.008-.015-.011-.033-.019-.047s-.043-.048-.063-.074a1.008,1.008,0,0,0-.141-.165.929.929,0,0,0-.109-.066,1.016,1.016,0,0,0-.155-.094.988.988,0,0,0-.234-.057c-.023,0-.043-.015-.066-.017a1,1,0,0,0-.551.123c-.015.008-.033.011-.048.02h-.01l-7.061,4.407a1.492,1.492,0,0,0-.706,1.23,18.77,18.77,0,0,1-1.681,6.233v.011L44.8,29.563a13.414,13.414,0,0,0-3.572-1.29,54.033,54.033,0,0,0,.518-9.833,10.914,10.914,0,0,0,2.482-8.012C43.6,4.6,38.333.391,38.108.214a1,1,0,0,0-1.585,1.043c.515,1.934.069,3.975-3.735,8.172a5.852,5.852,0,0,0-1.371,6.377,7.763,7.763,0,0,0,1.424,2.3c-.242,1.545-.432,3.008-.563,4.433a50.082,50.082,0,0,0-.174,7.092,13.606,13.606,0,0,0-2.49,1.735l-4.85-20.74c0-.021-.02-.036-.026-.055a.948.948,0,0,0-.07-.193L19.714,1.229a2.309,2.309,0,0,0-4.338,1.016L15,12.64a1.037,1.037,0,0,0,.025.223v.045l4.948,21.117a11.258,11.258,0,0,0-2.312.345L12.218,21.225a2.021,2.021,0,0,0-2.61-1.069L1.289,23.6A2.006,2.006,0,0,0,.206,26.213L7.588,44.021A8,8,0,0,0,8,60H52a8,8,0,1,0-.232-16ZM50.749,18.116,54.941,15.5l-1.484,3.584a1,1,0,1,0,1.848.766l1.484-3.584L57.9,21.079A19.78,19.78,0,0,0,55,25.866a4.113,4.113,0,0,1-5.59-2.312A19.754,19.754,0,0,0,50.749,18.116Zm-2.3,7.851a6.091,6.091,0,0,0,2.493,1.815,6.345,6.345,0,0,0,2.447.516,5.3,5.3,0,0,0,.606-.037l-3.191,7.7a13.572,13.572,0,0,0-4.294-5.309Zm-13.7-7.142,5.024.307c.031.934.02,1.9-.011,2.881a21.02,21.02,0,0,1-5.01-.242c-.126-.018-.249-.032-.374-.049.1-.942.222-1.9.369-2.9Zm-.477-8.053c2.655-2.929,4.031-5.182,4.351-7.3a13.374,13.374,0,0,1,3.609,7.168,8.96,8.96,0,0,1-2.024,6.512q-2.963-.18-5.861-.36a4.171,4.171,0,0,1-.077-6.02ZM34.2,23.715l.29.038a28.492,28.492,0,0,0,3.893.331c.414,0,.85-.033,1.287-.067-.091,1.287-.24,2.631-.429,4.02C38.99,28.024,38.748,28,38.5,28a13.393,13.393,0,0,0-4.432.763,48.264,48.264,0,0,1,.126-5.048ZM26.461,35.409,23.6,23.222a1,1,0,0,0-1.947.456l2.571,10.969a11.326,11.326,0,0,0-2.18-.543l-4.389-18.73a4.739,4.739,0,0,0,1.958.426c.063,0,.13-.009.194-.012l.707,3.019a1,1,0,1,0,1.947-.456l-.708-3.021A4.736,4.736,0,0,0,23.5,14l4.462,19.079A13.415,13.415,0,0,0,26.461,35.409Zm-6.11-21.7a3.32,3.32,0,0,1-3.339-1.337l.127-3.522a5.886,5.886,0,0,0,1.055.1,4.456,4.456,0,0,0,1.016-.113,5.094,5.094,0,0,0,1.854-.922l1.684,3.108a3.317,3.317,0,0,1-2.4,2.688ZM17.612,2.027a.312.312,0,0,1,.344.154L20.1,6.146a3.412,3.412,0,0,1-1.35.75,3.4,3.4,0,0,1-1.541-.073l.163-4.506A.31.31,0,0,1,17.612,2.027ZM10.375,22l.764,1.846-3.7,1.532A1,1,0,0,0,7.824,27.3a1.014,1.014,0,0,0,.383-.076l3.7-1.533.765,1.848-1.851.767A1,1,0,0,0,11.2,30.23a1.016,1.016,0,0,0,.382-.076l1.851-.767.765,1.848L10.5,32.77a1,1,0,0,0,.384,1.924,1.012,1.012,0,0,0,.382-.076l3.7-1.532.809,1.953A11.609,11.609,0,0,0,9.3,42.92L2.052,25.444ZM52,58H8A6,6,0,0,1,8,46a5.891,5.891,0,0,1,1.711.248A1,1,0,0,0,11,45.309,9.5,9.5,0,0,1,26.2,37.9a1,1,0,0,0,1.533-.45,11.5,11.5,0,0,1,21.762,7.424,1,1,0,0,0,1.17,1.272A6.246,6.246,0,0,1,52,46a6,6,0,0,1,0,12Z"/><path d="M38.685,15.7a1,1,0,0,0,.8-.395,7.5,7.5,0,0,0,1.33-5.888,1,1,0,1,0-1.932.515,5.555,5.555,0,0,1-.992,4.166,1,1,0,0,0,.8,1.6Z"/><path d="M37.37,46a4.916,4.916,0,0,0-2.145.5A6,6,0,0,0,24.86,52.39a1,1,0,0,0,.92.608.989.989,0,0,0,.392-.08,1,1,0,0,0,.528-1.312A4.074,4.074,0,0,1,26.37,50a4,4,0,0,1,4-4,3.96,3.96,0,0,1,3.615,2.3,1.091,1.091,0,0,0,.07.094,1.015,1.015,0,0,0,.053.1c.018.022.044.032.064.053a.954.954,0,0,0,.155.13.969.969,0,0,0,.16.1.99.99,0,0,0,.18.056.919.919,0,0,0,.188.029,1.231,1.231,0,0,0,.382-.064.754.754,0,0,0,.079-.019.9.9,0,0,0,.093-.069,1.039,1.039,0,0,0,.1-.054A2.949,2.949,0,0,1,37.37,48a3,3,0,0,1,2.72,1.745,1,1,0,1,0,1.82-.83A5,5,0,0,0,37.37,46Z"/><path d="M17.684,39.051C17.533,39.1,14,40.322,14,44a1,1,0,0,0,2,0,3.438,3.438,0,0,1,2.322-3.053,1,1,0,0,0-.638-1.9Z"/><path d="M31.757,37.97A.976.976,0,0,0,32,38a1,1,0,0,0,.969-.757A4.265,4.265,0,0,1,37.005,34,1,1,0,0,0,37,32a6.229,6.229,0,0,0-5.97,4.757A1,1,0,0,0,31.757,37.97Z"/></g></svg>