<svg xmlns="http://www.w3.org/2000/svg" width="25" height="25" viewBox="0 0 25 25"><defs><style>.a{fill:#888;}</style></defs><g transform="translate(-0.057 0.003)"><g transform="translate(0.057 -0.003)"><g transform="translate(0 0)"><path class="a" d="M15.489,52.308a.7.7,0,0,1-.866.516,2.344,2.344,0,0,0-.314-.025H8.233V66.831a1.494,1.494,0,0,1-1.159,1.547,1.612,1.612,0,0,1-1.826-.921c-.016-.03-.034-.059-.063-.107-.039.064-.069.112-.1.161a1.814,1.814,0,0,1-1.323.943.642.642,0,0,0-.094.036H3.249a1.528,1.528,0,0,1-1.194-1.18,1.128,1.128,0,0,1-.041-.318V58.8H1.308a2.628,2.628,0,0,1-.5-.03.9.9,0,0,1-.744-.952v-2.3c0-1.289-.015-2.59,0-3.886A1.584,1.584,0,0,1,1.639,49.94c.416-.014.831-.009,1.252,0a.319.319,0,0,1,.205.129,6.863,6.863,0,0,0,1.365,1.4.73.73,0,0,0,.919.058,3.964,3.964,0,0,0,1.5-1.478.233.233,0,0,1,.165-.1H14.7a.766.766,0,0,1,.761.558A2.8,2.8,0,0,1,15.489,52.308Z" transform="translate(-0.057 -43.493)"/><path class="a" d="M91.878,3.335V18.42c-.031.129-.058.258-.094.379a1.534,1.534,0,0,1-1.336,1.136,2.529,2.529,0,0,1-.419.03H76.44v-1.96H88.417a2.435,2.435,0,0,0,.553-.073,1.268,1.268,0,0,0,.976-1.251,2.128,2.128,0,0,0,.006-.258q0-5.442-.006-10.885a2.865,2.865,0,0,0-.14-.847,1.212,1.212,0,0,0-.969-.841,2.9,2.9,0,0,0-.606-.059H76.446V1.68h3.819c.013-.144.015-.275.036-.4A1.364,1.364,0,0,1,81.377.128a3.74,3.74,0,0,1,1.959,0,1.286,1.286,0,0,1,1.023,1.381v.165h5.394a3.7,3.7,0,0,1,.835.084A1.638,1.638,0,0,1,91.84,3.2a1.007,1.007,0,0,0,.038.137Z" transform="translate(-66.878 0.003)"/><path class="a" d="M97.993,163.972H96.307c-.15-.179-.294-.365-.451-.539-.8-.894-1.6-1.784-2.42-2.688l-1.024,1.169-1.6,1.822c-.033.037-.081.084-.125.084h-1.6c.125-.156.23-.282.335-.407l3.118-3.72a.355.355,0,0,1,.312-.148c.386.009.772,0,1.158.008a.333.333,0,0,1,.223.1q1.858,2.117,3.706,4.246A.6.6,0,0,1,97.993,163.972Z" transform="translate(-77.944 -138.972)"/><path class="a" d="M23.9,2.834a2.648,2.648,0,1,1-5.294,0,2.649,2.649,0,1,1,5.295,0Z" transform="translate(-16.287 -0.095)"/></g></g></g></svg>