<svg xmlns="http://www.w3.org/2000/svg" width="35" height="35" viewBox="0 0 35 35"><defs><style>.a{fill:rgba(239,45,86,0.07);}.b{fill:#ef2d56;}</style></defs><g transform="translate(-25 -880)"><path class="a" d="M32.143,9.7c0,7.7,3.6,12.991,3.6,16.7S33.818,37.9,18.411,37.9.743,27.417.743,23.335a18.139,18.139,0,0,1,.211-2.683C3.325,3.573,32.143-3.372,32.143,9.7Z" transform="translate(24.256 877.098)"/><g transform="translate(34 843)"><g transform="translate(0 48)"><path class="b" d="M17,49.635a7.266,7.266,0,0,1-2.008.55,3.466,3.466,0,0,0,1.533-1.926,6.965,6.965,0,0,1-2.21.844,3.485,3.485,0,0,0-6.029,2.383,3.589,3.589,0,0,0,.081.795,9.865,9.865,0,0,1-7.184-3.645,3.486,3.486,0,0,0,1.071,4.658A3.442,3.442,0,0,1,.68,52.864V52.9a3.5,3.5,0,0,0,2.792,3.424,3.479,3.479,0,0,1-.914.115,3.082,3.082,0,0,1-.66-.059A3.518,3.518,0,0,0,5.155,58.81,7,7,0,0,1,.834,60.3,6.528,6.528,0,0,1,0,60.249a9.812,9.812,0,0,0,5.347,1.564,9.851,9.851,0,0,0,9.92-9.917c0-.154-.005-.3-.013-.451A6.953,6.953,0,0,0,17,49.635Z" transform="translate(0 -48)"/></g></g></g></svg>