<svg xmlns="http://www.w3.org/2000/svg" width="35" height="35" viewBox="0 0 35 35"><defs><style>.a{fill:rgba(239,45,86,0.07);}.b{fill:#ef2d56;}</style></defs><g transform="translate(-25 -880)"><path class="a" d="M32.143,9.7c0,7.7,3.6,12.991,3.6,16.7S33.818,37.9,18.411,37.9.743,27.417.743,23.335a18.139,18.139,0,0,1,.211-2.683C3.325,3.573,32.143-3.372,32.143,9.7Z" transform="translate(24.256 877.098)"/><g transform="translate(34 888.684)"><path class="b" d="M231.816,347.839c1.3-.185,2.44-1.545,3.157-3.552a15.4,15.4,0,0,0-3.157-.372Zm0,0" transform="translate(-223.013 -330.522)"/><path class="b" d="M279.762,360.7c.077-.022.153-.045.229-.069s.127-.043.19-.065.149-.052.223-.081.126-.05.189-.075l.216-.091c.062-.027.124-.056.186-.085s.14-.067.209-.1l.182-.1q.1-.055.2-.112c.061-.034.119-.069.179-.1l.2-.122c.058-.037.116-.075.174-.114s.127-.088.19-.133l.168-.122.184-.144c.054-.043.108-.086.161-.131s.119-.1.178-.155.1-.091.154-.139.115-.11.171-.166.1-.1.146-.146l.027-.029a10.2,10.2,0,0,0-2.082-.8,7.556,7.556,0,0,1-1.942,3.159l.074-.018C279.635,360.736,279.7,360.716,279.762,360.7Zm0,0" transform="translate(-268.882 -343.7)"/><path class="b" d="M339.815,231.684h-3.643a15.817,15.817,0,0,1-.613,4.212,10.554,10.554,0,0,1,2.306.919A8.515,8.515,0,0,0,339.815,231.684Zm0,0" transform="translate(-322.815 -222.563)"/><path class="b" d="M231.816,113h3.946a15.257,15.257,0,0,0-.6-4.062,15.972,15.972,0,0,1-3.348.4Zm0,0" transform="translate(-223.013 -104.491)"/><path class="b" d="M231.816.316V4.241a15.411,15.411,0,0,0,3.157-.372C234.256,1.861,233.116.5,231.816.316Zm0,0" transform="translate(-223.013)"/><path class="b" d="M231.816,235.346a15.982,15.982,0,0,1,3.348.4,15.258,15.258,0,0,0,.6-4.062h-3.946Zm0,0" transform="translate(-223.013 -222.563)"/><path class="b" d="M337.864,80.844a10.554,10.554,0,0,1-2.306.919,15.817,15.817,0,0,1,.613,4.212h3.643A8.518,8.518,0,0,0,337.864,80.844Zm0,0" transform="translate(-322.815 -77.463)"/><path class="b" d="M283.483,9.153l-.026-.028c-.048-.05-.1-.1-.147-.146s-.113-.112-.171-.166-.1-.091-.154-.138-.118-.105-.178-.156-.106-.087-.16-.13-.123-.1-.186-.146-.111-.082-.166-.122-.127-.091-.192-.135-.115-.076-.172-.113-.131-.084-.2-.124-.118-.07-.177-.1-.136-.077-.2-.114l-.182-.094c-.07-.035-.14-.069-.213-.1s-.123-.057-.185-.085-.145-.061-.217-.091-.125-.051-.188-.075-.148-.055-.223-.081-.126-.044-.19-.065-.152-.047-.23-.07-.127-.037-.191-.054l-.074-.018A7.558,7.558,0,0,1,281.4,9.956,10.184,10.184,0,0,0,283.483,9.153Zm0,0" transform="translate(-268.844 -6.234)"/><path class="b" d="M0,85.975H3.643a15.823,15.823,0,0,1,.613-4.212,10.541,10.541,0,0,1-2.306-.919A8.516,8.516,0,0,0,0,85.975Zm0,0" transform="translate(0 -77.463)"/><path class="b" d="M135.852,347.839v-3.925a15.412,15.412,0,0,0-3.157.372C133.412,346.294,134.552,347.654,135.852,347.839Zm0,0" transform="translate(-127.656 -330.522)"/><path class="b" d="M115.868,231.684h-3.946a15.253,15.253,0,0,0,.6,4.062,15.961,15.961,0,0,1,3.348-.4Zm0,0" transform="translate(-107.671 -222.563)"/><path class="b" d="M135.852.316c-1.3.185-2.44,1.545-3.157,3.552a15.391,15.391,0,0,0,3.157.372Zm0,0" transform="translate(-127.656)"/><path class="b" d="M115.868,109.341a15.973,15.973,0,0,1-3.348-.4,15.252,15.252,0,0,0-.6,4.062h3.946Zm0,0" transform="translate(-107.671 -104.491)"/><path class="b" d="M66.214,6.789l-.074.018c-.064.017-.128.036-.192.055s-.152.045-.228.069-.128.043-.192.065-.149.052-.222.08l-.189.076-.216.091c-.063.028-.124.056-.186.085s-.14.067-.209.1l-.182.1q-.1.055-.2.112t-.179.1c-.066.04-.131.081-.2.122s-.116.075-.174.114-.127.088-.19.133l-.168.122c-.062.047-.121.1-.184.144s-.108.086-.161.131-.119.1-.177.154-.1.091-.155.139-.114.11-.17.166-.1.1-.147.146l-.026.029a10.188,10.188,0,0,0,2.082.8A7.554,7.554,0,0,1,66.214,6.789Zm0,0" transform="translate(-59.83 -6.226)"/><path class="b" d="M62.4,358.539c.057.056.113.112.171.166s.1.091.154.138.118.105.178.156.106.087.16.13.121.1.186.146l.166.122c.063.046.128.091.192.135s.115.076.172.113.131.084.2.124.118.07.177.1.136.077.2.113l.182.094c.07.035.14.069.213.1l.185.085c.072.032.144.061.217.091s.125.051.188.075.148.055.223.081.126.044.19.065.152.047.23.07.127.037.19.055l.074.018a7.559,7.559,0,0,1-1.942-3.16,10.188,10.188,0,0,0-2.082.8l.026.028C62.3,358.443,62.351,358.491,62.4,358.539Zm0,0" transform="translate(-59.867 -343.651)"/><path class="b" d="M1.951,236.815a10.556,10.556,0,0,1,2.306-.919,15.823,15.823,0,0,1-.613-4.212H0A8.517,8.517,0,0,0,1.951,236.815Zm0,0" transform="translate(0 -222.563)"/></g></g></svg>