<svg xmlns="http://www.w3.org/2000/svg" width="35" height="35" viewBox="0 0 35 35"><defs><style>.a{fill:rgba(239,45,86,0.07);}.b{fill:#ef2d56;}</style></defs><g transform="translate(-25 -533)"><path class="a" d="M32.143,9.7c0,7.7,3.6,12.991,3.6,16.7S33.818,37.9,18.411,37.9.743,27.417.743,23.335a18.139,18.139,0,0,1,.211-2.683C3.325,3.573,32.143-3.372,32.143,9.7Z" transform="translate(24.256 530.098)"/><g transform="translate(35.5 542.333)"><path class="b" d="M13.113,13.628c-1.252.624-2.506,1.264-3.773,1.875A1.533,1.533,0,0,1,7.4,15.3a1.637,1.637,0,0,1-.2-1.952A12.314,12.314,0,0,1,10.668,8.3a7.717,7.717,0,0,0,2.313-2.457c.413-1,.118-2.281.138-3.441V1.655A1.563,1.563,0,0,0,11.433,0H1.672A1.509,1.509,0,0,0,.011,1.652C0,6.38.017,11.114,0,15.848A1.79,1.79,0,0,0,1.1,17.5H12.033a1.974,1.974,0,0,0,1.09-2.08C13.077,14.787,13.113,14.151,13.113,13.628ZM9.2,6.572c-.039.2-.466.457-.73.474-.928.058-1.861.022-2.792.022-.886,0-1.774.037-2.656-.022-.264-.018-.689-.275-.729-.475-.077-.432.325-.513.7-.513H8.506C8.876,6.057,9.278,6.139,9.2,6.572ZM3.076,3.32H6.62c1.16,0,2.32-.029,3.477.022.266.011.712.266.741.46.074.485-.362.531-.748.531H3.065c-.379,0-.8-.012-.8-.511S2.7,3.319,3.076,3.32ZM4.924,9.8a17.2,17.2,0,0,1-1.9-.023c-.269-.03-.689-.275-.729-.475-.077-.431.325-.516.689-.516H6.866c.369,0,.771.085.689.518-.037.2-.46.445-.73.474A17.144,17.144,0,0,1,4.924,9.8Z"/><path class="b" d="M102.682,45.52l.008.008-.022.025-.008.011Z" transform="translate(-88.519 -39.254)"/><path class="b" d="M106.209,39.378V40.2l-1.073,1.1-2.256-2.34c1.24-1.412,1.588-1.415,2.877-.066C105.91,39.049,106.065,39.214,106.209,39.378Z" transform="translate(-88.709 -32.68)"/><path class="b" d="M65.586,53.837a52.417,52.417,0,0,1-3.813,3.951A11.923,11.923,0,0,1,58.8,59.245a.579.579,0,0,1-.537-.111.688.688,0,0,1-.107-.6c.689-1.467,1.2-3.028,2.514-4.141.985-.826,1.836-1.821,2.731-2.724Z" transform="translate(-50.119 -44.557)"/></g></g></svg>