<svg xmlns="http://www.w3.org/2000/svg" xmlns:xlink="http://www.w3.org/1999/xlink" width="25" height="25" viewBox="0 0 25 25"><defs><style>.a{fill:url(#a);}.b{fill:#fff;}</style><linearGradient id="a" y1="0.526" x2="1" y2="0.522" gradientUnits="objectBoundingBox"><stop offset="0" stop-color="#ef2d56"/><stop offset="1" stop-color="#44318c"/></linearGradient></defs><g transform="translate(-176 -754)"><rect class="a" width="25" height="25" rx="12.5" transform="translate(176 754)"/><path class="b" d="M5.985,4.5,8.769,1.716A.787.787,0,0,0,8.769.6L8.4.231a.787.787,0,0,0-1.114,0L4.5,3.015,1.716.231A.787.787,0,0,0,.6.231L.231.6a.787.787,0,0,0,0,1.114L3.015,4.5.231,7.284a.787.787,0,0,0,0,1.114L.6,8.769a.787.787,0,0,0,1.114,0L4.5,5.985,7.284,8.769a.787.787,0,0,0,1.114,0L8.769,8.4a.787.787,0,0,0,0-1.114Zm0,0" transform="translate(184 762)"/></g></svg>