<svg xmlns="http://www.w3.org/2000/svg" width="24.997" height="25" viewBox="0 0 24.997 25"><defs><style>.a{fill:#ef2d56;}</style></defs><path class="a" d="M24.325,10.874l0,0L14.126.674a2.3,2.3,0,0,0-3.255,0L.678,10.867l-.01.01A2.3,2.3,0,0,0,2.2,14.8q.035,0,.071,0h.406v7.5A2.7,2.7,0,0,0,5.371,25H9.36a.732.732,0,0,0,.732-.732V18.384a1.23,1.23,0,0,1,1.229-1.229h2.353A1.23,1.23,0,0,1,14.9,18.384v5.884a.732.732,0,0,0,.732.732h3.99a2.7,2.7,0,0,0,2.694-2.693V14.8H22.7a2.3,2.3,0,0,0,1.629-3.928Zm0,0" transform="translate(0.001)"/></svg>