<svg xmlns="http://www.w3.org/2000/svg" width="25" height="25" viewBox="0 0 25 25"><defs><style>.a{fill:#ef2d56;}</style></defs><g transform="translate(0.002 0.001)"><g transform="translate(-0.002 -0.001)"><path class="a" d="M-331.087-746.355a3.092,3.092,0,0,1-.911-2.263v-5.192a3.081,3.081,0,0,1,.9-2.283,3.088,3.088,0,0,1,2.283-.9h5.175a3.082,3.082,0,0,1,2.27.893,3.077,3.077,0,0,1,.912,2.26v5.227a3.105,3.105,0,0,1-.914,2.26,3.112,3.112,0,0,1-2.267.9H-328.9A3.1,3.1,0,0,1-331.087-746.355Zm7.576-1.077h-.131A1.211,1.211,0,0,0-323.511-747.432Zm-2.821-7.646h2.791l.063,0c-.039,0-.077,0-.116,0h-5.152a1.193,1.193,0,0,0-.168,0Z" transform="translate(332 770.453)"/><path class="a" d="M-323.7-745.466h-5.152a3.117,3.117,0,0,1-2.239-.914,3.105,3.105,0,0,1-.906-2.239v-5.18a3.1,3.1,0,0,1,.909-2.291,3.11,3.11,0,0,1,2.3-.908h5.175a3.111,3.111,0,0,1,2.247.909,3.1,3.1,0,0,1,.91,2.244v5.143a3.1,3.1,0,0,1-.908,2.329,3.11,3.11,0,0,1-2.2.91Zm-6.315-3.153v0Zm.321-6.089a1.191,1.191,0,0,0-.323.824,1.188,1.188,0,0,1,.324-.824,1.185,1.185,0,0,1,.865-.372h5.211a1.187,1.187,0,0,1,1.187,1.185,1.187,1.187,0,0,0-1.187-1.185h-5.214A1.189,1.189,0,0,0-329.7-754.707Z" transform="translate(332 757)"/><path class="a" d="M-323.569-745.488h-5.318a3.1,3.1,0,0,1-2.21-.914,3.089,3.089,0,0,1-.9-2.215v-5.156a3.081,3.081,0,0,1,.9-2.32,3.09,3.09,0,0,1,2.32-.9h5.211a3.1,3.1,0,0,1,3.109,3.07v5.31a3.092,3.092,0,0,1-.9,2.215,3.1,3.1,0,0,1-2.2.914Z" transform="translate(345.459 770.451)"/><path class="a" d="M-330.332-747.172a5.765,5.765,0,0,1-1.2-6.32,5.779,5.779,0,0,1,5.4-3.507,5.776,5.776,0,0,1,5.7,5.76,5.771,5.771,0,0,1-3.58,5.349,5.775,5.775,0,0,1-2.2.435A5.785,5.785,0,0,1-330.332-747.172Z" transform="translate(345.438 757.001)"/></g></g></svg>