<svg xmlns="http://www.w3.org/2000/svg" width="25" height="25" viewBox="0 0 25 25"><defs><style>.a{fill:#888;}</style></defs><g transform="translate(0.002 0.001)"><g transform="translate(-0.002 -0.001)"><path class="a" d="M47.017,50.93H41.841a3.084,3.084,0,0,0-3.181,3.188V59.31a3.1,3.1,0,0,0,3.181,3.165h5.175A3.108,3.108,0,0,0,50.2,59.31V54.083a3.084,3.084,0,0,0-3.181-3.153Zm1.258,8.3A1.186,1.186,0,0,1,47.017,60.5H41.83a1.186,1.186,0,0,1-1.187-1.256V54.107a1.186,1.186,0,0,1,1.27-1.256h5.152a1.186,1.186,0,0,1,1.27,1.268Z" transform="translate(-38.658 -37.476)"/><path class="a" d="M47.04,39.58H41.865a3.108,3.108,0,0,0-3.2,3.2v5.18a3.108,3.108,0,0,0,3.146,3.153h5.152a3.108,3.108,0,0,0,3.24-3.236V42.733A3.108,3.108,0,0,0,47.04,39.58Zm1.187,8.3a1.186,1.186,0,0,1-1.258,1.268h-5.14a1.186,1.186,0,0,1-1.187-1.185v-5.2A1.186,1.186,0,0,1,41.829,41.5H47.04a1.186,1.186,0,0,1,1.187,1.185Z" transform="translate(-38.658 -39.579)"/><path class="a" d="M58.428,50.93H53.217A3.084,3.084,0,0,0,50,54.154V59.31a3.1,3.1,0,0,0,3.11,3.129h5.318a3.1,3.1,0,0,0,3.11-3.129V54a3.1,3.1,0,0,0-3.11-3.07Zm1.187,8.3A1.186,1.186,0,0,1,58.369,60.5H53.182a1.186,1.186,0,0,1-1.258-1.185V54.119a1.186,1.186,0,0,1,1.27-1.268h5.175A1.186,1.186,0,0,1,59.615,54.1Z" transform="translate(-36.538 -37.476)"/><path class="a" d="M55.844,39.58a5.771,5.771,0,1,0,5.7,5.76A5.781,5.781,0,0,0,55.844,39.58Zm-.059,9.6a3.839,3.839,0,1,1,3.834-3.84,3.846,3.846,0,0,1-3.834,3.84Z" transform="translate(-36.541 -39.579)"/></g></g></svg>