<svg xmlns="http://www.w3.org/2000/svg" width="20.857" height="25" viewBox="0 0 20.857 25"><defs><style>.a{fill:#ef2d56;}</style></defs><path class="a" d="M93.053,12.043a5.826,5.826,0,0,0,4.258-1.764,5.826,5.826,0,0,0,1.764-4.257A5.827,5.827,0,0,0,97.31,1.764a6.02,6.02,0,0,0-8.515,0,5.826,5.826,0,0,0-1.764,4.257A5.826,5.826,0,0,0,88.8,10.279,5.828,5.828,0,0,0,93.053,12.043Zm0,0" transform="translate(-82.782)"/><path class="a" d="M20.807,254.464a14.873,14.873,0,0,0-.2-1.58,12.445,12.445,0,0,0-.389-1.588,7.845,7.845,0,0,0-.653-1.481,5.59,5.59,0,0,0-.985-1.283,4.341,4.341,0,0,0-1.414-.889,4.888,4.888,0,0,0-1.805-.327,1.833,1.833,0,0,0-.979.415c-.293.191-.636.413-1.019.657a5.842,5.842,0,0,1-1.319.581,5.122,5.122,0,0,1-3.227,0,5.828,5.828,0,0,1-1.318-.581c-.379-.242-.723-.464-1.02-.658a1.83,1.83,0,0,0-.978-.415,4.882,4.882,0,0,0-1.805.327,4.337,4.337,0,0,0-1.414.889,5.59,5.59,0,0,0-.984,1.283A7.861,7.861,0,0,0,.641,251.3a12.475,12.475,0,0,0-.388,1.588,14.82,14.82,0,0,0-.2,1.58c-.033.478-.05.975-.05,1.476a4.151,4.151,0,0,0,1.233,3.141,4.438,4.438,0,0,0,3.177,1.159H16.448a4.437,4.437,0,0,0,3.177-1.159,4.149,4.149,0,0,0,1.233-3.141C20.857,255.437,20.84,254.94,20.807,254.464Zm0,0" transform="translate(0 -235.241)"/></svg>