<svg xmlns="http://www.w3.org/2000/svg" width="21.358" height="25.5" viewBox="0 0 21.358 25.5"><defs><style>.a{fill:#888;stroke:#888;stroke-width:0.5px;}</style></defs><g transform="translate(0.25 0.25)"><path class="a" d="M93.053,12.043a5.827,5.827,0,0,0,4.258-1.764,5.827,5.827,0,0,0,1.764-4.257A5.827,5.827,0,0,0,97.31,1.764a6.02,6.02,0,0,0-8.515,0,5.826,5.826,0,0,0-1.764,4.257A5.827,5.827,0,0,0,88.8,10.279,5.828,5.828,0,0,0,93.053,12.043ZM89.831,2.8a4.555,4.555,0,0,1,6.443,0,4.353,4.353,0,0,1,1.335,3.221,4.353,4.353,0,0,1-1.335,3.222,4.554,4.554,0,0,1-6.443,0A4.352,4.352,0,0,1,88.5,6.021,4.353,4.353,0,0,1,89.831,2.8Zm0,0" transform="translate(-82.782)"/><path class="a" d="M20.807,254.464a14.873,14.873,0,0,0-.2-1.58,12.445,12.445,0,0,0-.389-1.588,7.846,7.846,0,0,0-.653-1.481,5.584,5.584,0,0,0-.984-1.283,4.341,4.341,0,0,0-1.414-.889,4.888,4.888,0,0,0-1.805-.327,1.833,1.833,0,0,0-.979.415c-.293.191-.636.413-1.019.657a5.842,5.842,0,0,1-1.319.581,5.122,5.122,0,0,1-3.227,0,5.824,5.824,0,0,1-1.318-.581c-.379-.242-.723-.464-1.02-.658a1.831,1.831,0,0,0-.978-.415,4.882,4.882,0,0,0-1.805.327,4.337,4.337,0,0,0-1.414.889,5.585,5.585,0,0,0-.984,1.283A7.861,7.861,0,0,0,.641,251.3a12.475,12.475,0,0,0-.388,1.588,14.771,14.771,0,0,0-.2,1.58c-.033.477-.05.974-.05,1.476a4.151,4.151,0,0,0,1.233,3.141A4.438,4.438,0,0,0,4.41,260.24H16.448a4.438,4.438,0,0,0,3.177-1.159,4.15,4.15,0,0,0,1.233-3.141C20.857,255.437,20.84,254.94,20.807,254.464Zm-2.193,3.556a2.988,2.988,0,0,1-2.167.755H4.41a2.988,2.988,0,0,1-2.167-.755,2.711,2.711,0,0,1-.778-2.079c0-.468.015-.931.046-1.375a13.323,13.323,0,0,1,.183-1.423,11,11,0,0,1,.342-1.4,6.4,6.4,0,0,1,.531-1.2,4.139,4.139,0,0,1,.723-.948,2.88,2.88,0,0,1,.941-.585,3.371,3.371,0,0,1,1.154-.223c.051.027.143.079.291.176.3.2.648.42,1.032.665a7.259,7.259,0,0,0,1.656.74,6.586,6.586,0,0,0,4.128,0,7.267,7.267,0,0,0,1.657-.74c.393-.251.73-.468,1.031-.665.148-.1.239-.149.291-.176a3.373,3.373,0,0,1,1.154.223,2.884,2.884,0,0,1,.941.585,4.128,4.128,0,0,1,.723.948,6.378,6.378,0,0,1,.532,1.2,10.978,10.978,0,0,1,.342,1.4,13.435,13.435,0,0,1,.183,1.423h0c.031.442.047.9.047,1.374A2.711,2.711,0,0,1,18.614,258.02Zm0,0" transform="translate(0 -235.24)"/></g></svg>