<svg xmlns="http://www.w3.org/2000/svg" width="20.692" height="25" viewBox="0 0 20.692 25"><defs><style>.a{fill:#888;}</style></defs><path class="a" d="M38.685,23.956,37.164,7.014A.9.9,0,0,0,36.27,6.2H33.133V4.782a4.782,4.782,0,1,0-9.564,0V6.2H20.43a.9.9,0,0,0-.894.817L18.009,24.023A.9.9,0,0,0,18.9,25H37.8a.9.9,0,0,0,.9-.9A.914.914,0,0,0,38.685,23.956ZM25.364,4.782a2.987,2.987,0,1,1,5.975,0V6.2H25.364Zm-5.48,18.423L21.25,7.992h2.319V9.6a.9.9,0,1,0,1.795,0v-1.6h5.975V9.6a.9.9,0,0,0,1.795,0v-1.6H35.45l1.366,15.214H19.884Z" transform="translate(-18.005)"/></svg>