<svg xmlns="http://www.w3.org/2000/svg" xmlns:xlink="http://www.w3.org/1999/xlink" width="25" height="25" viewBox="0 0 25 25"><defs><style>.a{fill:url(#a);}.b{fill:url(#b);}</style><linearGradient id="a" x1="0.237" y1="0.715" x2="1.073" y2="0.63" gradientUnits="objectBoundingBox"><stop offset="0" stop-color="#ef2d56"/><stop offset="0.957" stop-color="#363190"/><stop offset="1" stop-color="#333191"/></linearGradient><linearGradient id="b" x1="0.214" y1="0.193" x2="0.951" y2="0.144" gradientUnits="objectBoundingBox"><stop offset="0" stop-color="#ef2d56"/><stop offset="1" stop-color="#363191"/></linearGradient></defs><g transform="translate(-687 -346)"><g transform="translate(687 346)"><path class="a" d="M.013-377.1c.019,10.4.026,10.928.135,11.263a4.116,4.116,0,0,0,2.687,2.687c.335.11.857.116,11.263.135L25-363v-10.78c0-10.528,0-10.8-.129-11.282a3.488,3.488,0,0,0-1.031-1.778,3.368,3.368,0,0,0-.966-.722C21.926-388.03,22.6-388,10.7-388H0ZM21.9-387.2a3.28,3.28,0,0,1,2.32,2.352c.045.193.071,3.756.071,10.715v10.419l-10.58-.013-10.586-.019-.412-.174a3.469,3.469,0,0,1-1.823-1.843l-.148-.367L.722-376.715l-.013-10.58H11.127C19.961-387.295,21.6-387.282,21.9-387.2Z" transform="translate(0 388.004)"/><path class="b" d="M18-360.131c0,10.889-.019,10.3.406,11.1a3.446,3.446,0,0,0,1.308,1.308c.8.425.206.406,11.1.406h9.871v-9.942c0-10.87.019-10.29-.374-11.024a4.036,4.036,0,0,0-1.372-1.347c-.773-.387-.168-.367-10.992-.367H18Zm15.4-7.326a.888.888,0,0,1,.29.29.762.762,0,0,1-.226,1,.762.762,0,0,1-1.018-.131l-.206-.226H30.414c-2.552,0-3.363.1-4.343.548a2.654,2.654,0,0,0-1.54,1.817l-.11.4.232.264a.719.719,0,0,1-.058,1.128c-.155.135-.155.135-.052.483.284.953.67,1.469,3.183,4.259,1.07,1.186,1.991,2.236,2.049,2.345a1.129,1.129,0,0,1-.013.947c-.238.361-.445.393-2.79.425-2.055.026-2.146.032-2.184.155a.8.8,0,0,1-.657.374.767.767,0,0,1-.786-.805.657.657,0,0,1,.219-.47.553.553,0,0,1,.548-.239.592.592,0,0,1,.535.206l.219.213,2.055-.006c1.134-.006,2.133-.026,2.223-.052.187-.052.245-.3.129-.528-.045-.077-.735-.863-1.54-1.753-3.093-3.421-3.454-3.911-3.75-5.058-.064-.264-.129-.367-.264-.438a.791.791,0,0,1-.374-.709c0-.193.052-.284.271-.5a1,1,0,0,0,.354-.651,3.249,3.249,0,0,1,.851-1.572,3.707,3.707,0,0,1,1.566-.941,10.958,10.958,0,0,1,3.8-.354h2.043l.258-.258A.7.7,0,0,1,33.4-367.457Zm1.024,3.673a.805.805,0,0,1,.367.773.759.759,0,0,1-1.353.348l-.161-.187H31.406a17.341,17.341,0,0,0-2.03.064.216.216,0,0,0-.168.245c0,.219.09.342.831,1.173l.548.612h.367c.322,0,.4.026.567.187a.762.762,0,0,1,.206.812c-.064.193-.052.219.625.954a13.912,13.912,0,0,1,1.662,1.985,4.577,4.577,0,0,1,.78,2.094c.032.425.058.509.18.573a.8.8,0,0,1,.258,1.031.817.817,0,0,1-.561.387c-.045,0-.155.155-.245.335a3.752,3.752,0,0,1-1.256,1.334,5.488,5.488,0,0,1-.87.4c-.883.316-1.6.38-4.111.38-2.216,0-2.268,0-2.332.135a.942.942,0,0,1-.735.38.549.549,0,0,1-.457-.213.7.7,0,0,1-.045-1.082.757.757,0,0,1,1.186.1l.071.161h2.088c1.147,0,2.365-.032,2.713-.065a4.1,4.1,0,0,0,3.1-1.456c.264-.406.309-.58.174-.728a.767.767,0,0,1,.193-1.082c.161-.1.168-.129.129-.535-.1-1.127-.541-1.849-2.229-3.692-.722-.792-.825-.883-1.018-.883a.769.769,0,0,1-.786-.838c0-.245-.052-.316-.619-.954-.825-.908-.947-1.108-.954-1.488a.742.742,0,0,1,.464-.767,7.242,7.242,0,0,1,2.158-.1l1.927.013.238-.258c.206-.213.284-.251.515-.251A1.165,1.165,0,0,1,34.422-363.785Z" transform="translate(-16.838 371.162)"/></g></g></svg>