<svg xmlns="http://www.w3.org/2000/svg" xmlns:xlink="http://www.w3.org/1999/xlink" width="355.591" height="299.5" viewBox="0 0 355.591 299.5"><defs><style>.a,.at{fill:none;}.b{fill:#fa5792;opacity:0.154;}.c{fill:url(#a);}.d,.j{fill:#fff;}.e{fill:#cfd1d1;}.f{isolation:isolate;}.g{fill:rgba(0,0,0,0.18);}.h{opacity:0.7;}.i{fill:#bdd0fb;}.j{opacity:0.5;}.k{opacity:0.99;}.l{fill:#91b3fa;}.m{fill:#6f6f6f;}.n{fill:url(#b);}.o{fill:url(#c);}.p{fill:url(#h);}.q{fill:#212020;}.r{fill:url(#i);}.s{fill:url(#j);}.t{fill:#92b3f9;}.u{fill:url(#k);}.v{fill:url(#l);}.w{fill:url(#m);}.x{fill:url(#n);}.y{fill:url(#o);}.z{fill:url(#p);}.aa{opacity:0.843;}.ab{clip-path:url(#q);}.ac{fill:url(#r);}.ad{fill:url(#s);}.ae{fill:url(#t);}.af{fill:url(#u);}.ag{fill:url(#v);}.ah{fill:url(#w);}.ai{fill:url(#x);}.aj{fill:url(#y);}.ak{fill:url(#z);}.al{fill:url(#aa);}.am{fill:url(#ab);}.an{fill:url(#ac);}.ao{fill:url(#ad);}.ap{fill:url(#ae);}.aq{fill:url(#af);}.ar{fill:url(#ag);}.as{fill:url(#ah);}.at{stroke:#fff;stroke-linecap:round;stroke-linejoin:round;stroke-width:3px;}</style><linearGradient id="a" x1="0.5" x2="0.5" y2="1" gradientUnits="objectBoundingBox"><stop offset="0" stop-color="#ef3e3f"/><stop offset="1" stop-color="#363191"/></linearGradient><linearGradient id="b" y1="0.5" x2="1" y2="0.5" gradientUnits="objectBoundingBox"><stop offset="0" stop-color="#ef2d56"/><stop offset="1" stop-color="#fe7062"/></linearGradient><linearGradient id="c" x1="0.5" x2="0.5" y2="1" gradientUnits="objectBoundingBox"><stop offset="0" stop-color="#fa5792"/><stop offset="1" stop-color="#c41051"/></linearGradient><linearGradient id="h" x1="2.538" y1="-1.29" x2="1.292" y2="-0.065" gradientUnits="objectBoundingBox"><stop offset="0" stop-color="#ff928e"/><stop offset="1" stop-color="#fe7062"/></linearGradient><linearGradient id="i" x1="0.696" y1="-0.843" x2="0.19" y2="2.39" gradientUnits="objectBoundingBox"><stop offset="0" stop-color="#febbba"/><stop offset="1" stop-color="#ff928e"/></linearGradient><linearGradient id="j" x1="0.632" y1="-0.224" x2="0.117" y2="2.539" xlink:href="#i"/><linearGradient id="k" x1="1.122" y1="-0.173" x2="0.279" y2="0.81" xlink:href="#h"/><linearGradient id="l" x1="2.359" y1="-3.323" x2="0.198" y2="1.233" xlink:href="#i"/><linearGradient id="m" x1="15.049" y1="-3.611" x2="-8.578" y2="3.068" gradientUnits="objectBoundingBox"><stop offset="0" stop-color="#e1473d"/><stop offset="1" stop-color="#e9605a"/></linearGradient><linearGradient id="n" x1="0" y1="0.5" x2="1" y2="0.5" xlink:href="#i"/><linearGradient id="o" x1="-1.505" y1="20.87" x2="-0.631" y2="20.87" xlink:href="#i"/><linearGradient id="p" x1="0.377" y1="0.216" x2="1.08" y2="1.432" gradientUnits="objectBoundingBox"><stop offset="0" stop-color="#09005d"/><stop offset="1" stop-color="#1a0f91"/></linearGradient><clipPath id="q"><path class="a" d="M1508.04,1684.337c-.294-.3-.936-1.455-1.485-4.442a67.8,67.8,0,0,1,0-21.084c.55-2.988,1.191-4.142,1.485-4.441.294.3.935,1.454,1.486,4.441.531,2.886,4.724,6.63,4.724,10.542s-4.193,7.656-4.724,10.542C1508.975,1682.882,1508.334,1684.037,1508.04,1684.337Z" transform="translate(-1505.73 -1654.37)"/></clipPath><linearGradient id="r" x1="1.291" y1="0.458" x2="-1.117" y2="0.593" xlink:href="#p"/><linearGradient id="s" x1="1.483" y1="-0.509" x2="0.93" y2="0.115" xlink:href="#p"/><linearGradient id="t" x1="0" y1="0.5" x2="1" y2="0.5" xlink:href="#i"/><linearGradient id="u" x1="47.808" y1="-2.45" x2="46.679" y2="-1.691" xlink:href="#i"/><linearGradient id="v" x1="33.435" y1="-2.183" x2="34.178" y2="-1.191" xlink:href="#p"/><linearGradient id="w" x1="195.005" y1="-9.646" x2="190.385" y2="-7.201" xlink:href="#i"/><linearGradient id="x" x1="-5.458" y1="3.937" x2="-5.858" y2="4.843" xlink:href="#i"/><linearGradient id="y" y1="0.5" x2="1" y2="0.5" gradientUnits="objectBoundingBox"><stop offset="0" stop-color="#dae3fe"/><stop offset="1" stop-color="#e9effd"/></linearGradient><linearGradient id="z" x1="0" y1="0.498" x2="1" y2="0.498" xlink:href="#y"/><linearGradient id="aa" x1="0" y1="0.5" x2="1" y2="0.5" xlink:href="#y"/><linearGradient id="ab" x1="0" y1="0.5" x2="1" y2="0.5" xlink:href="#y"/><linearGradient id="ac" x1="-2.233" y1="0.5" x2="-1.234" y2="0.5" xlink:href="#i"/><linearGradient id="ad" x1="-3.858" y1="0.5" x2="-2.858" y2="0.5" xlink:href="#i"/><linearGradient id="ae" x1="-1.971" y1="0.5" x2="-0.971" y2="0.5" xlink:href="#i"/><linearGradient id="af" x1="2.786" y1="-0.606" x2="1.997" y2="-0.227" xlink:href="#h"/><linearGradient id="ag" x1="-2.498" y1="0.531" x2="1.484" y2="0.806" xlink:href="#i"/><linearGradient id="ah" x1="-0.893" y1="0.169" x2="-1.699" y2="1.068" xlink:href="#p"/></defs><g transform="translate(-9.705 -91)"><path class="b" d="M345.685,266.53l-.254.256-.249.253-.247.249q-.124.124-.251.246-.469.452-.948.883t-.971.838q-.491.408-.992.793t-1.013.747a41.151,41.151,0,0,1-5.655,3.379,54.155,54.155,0,0,1-6.125,2.569c-2.1.74-4.247,1.373-6.411,1.927s-4.346,1.03-6.513,1.456c-4.862.955-9.754,1.718-14.666,2.337s-9.846,1.093-14.791,1.47-9.9.658-14.862.89-9.924.415-14.882.6c-13.4.495-26.806.989-40.218,1.382s-26.829.682-40.242.768-26.822-.033-40.219-.459-26.778-1.157-40.138-2.3c-5.278-.45-10.583-.975-15.87-1.654s-10.553-1.512-15.754-2.577a147.47,147.47,0,0,1-15.355-3.967,111.1,111.1,0,0,1-14.669-5.821q-1.02-.493-2.029-1.012t-2.008-1.062q-1-.544-1.986-1.113T26.4,266.445q-1.977-1.2-3.9-2.539T18.745,261.1q-1.83-1.47-3.546-3.076t-3.277-3.352q-1.467-1.636-2.781-3.394a43.566,43.566,0,0,1-2.44-3.639,39.808,39.808,0,0,1-2.049-3.885,37.35,37.35,0,0,1-1.606-4.135A39.453,39.453,0,0,1,1.3,230.529a48.784,48.784,0,0,1,.218-9.322,61.676,61.676,0,0,1,1.829-9.259,75.1,75.1,0,0,1,3.085-8.9q.746-1.745,1.535-3.455t1.623-3.38q.833-1.671,1.708-3.3t1.792-3.223q1.367-2.422,2.79-4.813t2.856-4.773q1.433-2.382,2.857-4.767t2.793-4.8a140.694,140.694,0,0,0,8.68-18.058,104.332,104.332,0,0,0,5.581-19.168,71.1,71.1,0,0,0,1.04-19.2,52.079,52.079,0,0,0-4.929-18.161c-.8-1.656-1.7-3.26-2.632-4.844s-1.9-3.144-2.851-4.714-1.878-3.148-2.732-4.764a43.131,43.131,0,0,1-2.277-4.991,37.917,37.917,0,0,1-1.816-6.764,49.473,49.473,0,0,1-.69-7,71.076,71.076,0,0,1,.162-7.119c.166-2.379.428-4.759.741-7.12q.061-.45.123-.9t.126-.892q.064-.445.129-.888t.132-.883c.525-3.5,1.154-7.057,1.972-10.567a75.461,75.461,0,0,1,3.107-10.254A46.989,46.989,0,0,1,33,15a33.522,33.522,0,0,1,6.919-7.566,31.92,31.92,0,0,1,9.234-5.079A41.274,41.274,0,0,1,59.475.191a59.306,59.306,0,0,1,10.79.121A83.49,83.49,0,0,1,80.915,2.09,150.08,150.08,0,0,1,96.764,6.774c5.2,1.835,10.324,3.91,15.4,6.124s10.121,4.57,15.145,6.964,10.041,4.828,15.07,7.2,10.126,4.694,15.282,6.858,10.381,4.171,15.668,5.91a140.677,140.677,0,0,0,16.062,4.308,105.319,105.319,0,0,0,16.458,2.049,83.882,83.882,0,0,0,15.108-.74,77.85,77.85,0,0,0,15.081-3.639,62.771,62.771,0,0,0,13.808-6.8,49.364,49.364,0,0,0,11.294-10.215,33.764,33.764,0,0,1,11.165-9.017,40,40,0,0,1,13.7-3.986,47.9,47.9,0,0,1,14.586.679,49.105,49.105,0,0,1,13.833,4.991,48.009,48.009,0,0,1,8.289,5.738,52.155,52.155,0,0,1,7.014,7.336,54.862,54.862,0,0,1,9.4,18.1q.3.989.558,1.994t.479,2.027q.22,1.021.4,2.055t.319,2.079q.129.955.22,1.916t.145,1.925q.054.964.069,1.931t-.006,1.933q-.011.477-.03.952t-.048.947q-.028.472-.064.942t-.079.937a64.97,64.97,0,0,1-4.755,18.651,123.449,123.449,0,0,1-9.054,17.426c-3.467,5.693-7.244,11.305-10.923,16.966s-7.268,11.386-10.345,17.283a81.424,81.424,0,0,0-4.065,9.032A59.294,59.294,0,0,0,299.2,157.2a42.373,42.373,0,0,0-.788,9.763,32.73,32.73,0,0,0,1.811,9.6,35.336,35.336,0,0,0,7.687,12.344,73.417,73.417,0,0,0,11.369,9.6c4.146,2.946,8.517,5.741,12.724,8.694a82.2,82.2,0,0,1,11.751,9.652q.986.979,1.916,2.051t1.8,2.231q.867,1.159,1.67,2.4t1.537,2.563a33.692,33.692,0,0,1,3.51,10.263,37.323,37.323,0,0,1,.255,10.886,36.432,36.432,0,0,1-2.876,10.423A31.508,31.508,0,0,1,345.685,266.53Z" transform="translate(9.705 102.905)"/><g transform="translate(-2859.775 1768.151)"><path class="c" d="M89.119,132.477c24.571-14.229,44.675-2.773,44.831,25.532s-19.9,62.9-44.544,77.109S44.731,237.891,44.6,209.586,64.5,146.683,89.119,132.477Z" transform="translate(2971.023 -1653.374)"/><path class="d" d="M89.119,132.477c24.571-14.229,44.675-2.773,44.831,25.532s-19.9,62.9-44.544,77.109S44.731,237.891,44.6,209.586,64.5,146.683,89.119,132.477Zm4.468,94c17.155-11.928,31.026-34.712,34.422-55.844a62.189,62.189,0,0,0,.78-9.65c0-24.974-17.87-35.07-39.559-22.538s-39.447,43.134-39.268,68.107,17.87,35.093,39.559,22.538q2.08-1.206,4.088-2.614Z" transform="translate(2971.023 -1653.374)"/><path class="e" d="M109.223,122.611c-8.131-4.735-19.366-4.065-31.764,3.083C52.888,139.923,32.784,174.5,32.941,202.8c0,14.073,5.027,23.968,13.045,28.637l26.046,15.123c-8.019-4.646-13-14.56-13.045-28.614,0-28.3,19.9-62.9,44.519-77.109,12.393-7.148,23.655-7.818,31.786-3.083Z" transform="translate(2956.637 -1661.736)"/><g class="f" transform="translate(3041.445 -1491.233)"><path class="g" d="M98.69,142.38l14.966,8.533c-3.4,21.087-17.267,43.871-34.422,55.844L56.16,193.578h.626l.357.246a13.872,13.872,0,0,0,9.181,1.653A20.418,20.418,0,0,0,71.662,194a20.953,20.953,0,0,0,2.569-1.206,9.189,9.189,0,0,0,.939-.469l1.765-1.072a46.91,46.91,0,0,0,9.784-8.646,60.609,60.609,0,0,0,7.349-10.521,57.786,57.786,0,0,0,4.468-9.918,56.956,56.956,0,0,0,2.032-7.751c.224-1.609.38-2.926.469-3.887l1.631-.939Z" transform="translate(-56.16 -142.38)"/></g><g transform="translate(3042.528 -1500.839)"><g transform="translate(11.52 15.211)"><path class="d" d="M6.917,27l-.59.289-.59.289-.591.289-.593.29-.164.081c-.055.028-.109.056-.164.087s-.11.064-.165.1-.111.076-.166.12a.427.427,0,0,0-.05.043.51.51,0,0,0-.046.053.571.571,0,0,0-.04.061.6.6,0,0,0-.033.067,2.513,2.513,0,0,1-.2.364,2.266,2.266,0,0,1-.243.309,1.835,1.835,0,0,1-.276.242,1.349,1.349,0,0,1-.3.16.679.679,0,0,1-.354-.023.625.625,0,0,1-.273-.193.893.893,0,0,1-.173-.337,1.437,1.437,0,0,1-.043-.455,2,2,0,0,1,.059-.274,2.183,2.183,0,0,1,.1-.269,2.208,2.208,0,0,1,.132-.255,2.073,2.073,0,0,1,.162-.232,1.809,1.809,0,0,1,.185-.2,1.473,1.473,0,0,1,.2-.153,1.143,1.143,0,0,1,.2-.1.861.861,0,0,1,.2-.053.507.507,0,0,1,.173-.007.421.421,0,0,1,.153.052.446.446,0,0,1,.125.107.582.582,0,0,1,.087.159.144.144,0,0,0,.029.055.1.1,0,0,0,.044.03.111.111,0,0,0,.055,0,.173.173,0,0,0,.062-.025l.992-.485.99-.484.987-.483.992-.474.491-.242c.164-.081.327-.165.491-.251s.327-.173.49-.271.326-.194.488-.3a7.973,7.973,0,0,0,.734-.482q.361-.266.71-.581t.679-.673q.33-.358.64-.758.173-.229.326-.478t.286-.51q.133-.26.242-.537t.194-.556a.953.953,0,0,0,.049-.191.76.76,0,0,0,.005-.178.526.526,0,0,0-.036-.153.341.341,0,0,0-.077-.116.644.644,0,0,1-.1-.14.847.847,0,0,1-.065-.173,1.114,1.114,0,0,1-.033-.2,1.409,1.409,0,0,1,0-.219,1.683,1.683,0,0,1,.035-.231,1.879,1.879,0,0,1,.067-.23,1.954,1.954,0,0,1,.1-.223,1.894,1.894,0,0,1,.123-.209,1.539,1.539,0,0,0,.228-.532,1.288,1.288,0,0,0,.03-.27.941.941,0,0,0-.031-.248,5.922,5.922,0,0,0-.131-.78,4.87,4.87,0,0,0-.223-.7A3.981,3.981,0,0,0,13.2,14.7a3.3,3.3,0,0,0-.4-.516q-.3-.34-.612-.662t-.637-.627q-.325-.305-.662-.592t-.686-.556a.468.468,0,0,0-.118-.079.462.462,0,0,0-.134-.039.532.532,0,0,0-.146,0,.678.678,0,0,0-.155.042.813.813,0,0,1-.184.055.634.634,0,0,1-.173.006A.538.538,0,0,1,9,11.6a.639.639,0,0,1-.115-.134.822.822,0,0,1-.087-.173,1.079,1.079,0,0,1-.049-.2,1.381,1.381,0,0,1-.014-.229,1.231,1.231,0,0,0-.016-.2.971.971,0,0,0-.046-.173.75.75,0,0,0-.074-.148.593.593,0,0,0-.1-.118q-.146-.143-.3-.283l-.3-.279q-.149-.14-.3-.282t-.293-.289q-.072-.063-.14-.133t-.129-.145q-.063-.076-.122-.159t-.114-.173A.971.971,0,0,1,6.7,8.232a1.353,1.353,0,0,1-.047-.3,1.767,1.767,0,0,1,.016-.329,2.1,2.1,0,0,1,.078-.347,2.253,2.253,0,0,1,.137-.336,2.167,2.167,0,0,1,.184-.3,1.872,1.872,0,0,1,.221-.253,1.462,1.462,0,0,1,.249-.192c.06-.028.12-.059.179-.091s.12-.067.179-.1l.181-.1c.061-.034.121-.067.183-.1L9.2,5.348l.935-.433.933-.433.93-.433a.551.551,0,0,0,.144-.068.78.78,0,0,0,.135-.112,1,1,0,0,0,.119-.149,1.144,1.144,0,0,0,.1-.179l.029-.062q.015-.03.031-.06l.033-.058.035-.057a1.762,1.762,0,0,1,.322-.389,1.167,1.167,0,0,1,.357-.222.7.7,0,0,1,.353-.044.553.553,0,0,1,.3.152.78.78,0,0,1,.195.328,1.314,1.314,0,0,1,.055.433,1.877,1.877,0,0,1-.087.488,2.085,2.085,0,0,1-.219.484,1.673,1.673,0,0,1-.26.3,1.192,1.192,0,0,1-.285.192.78.78,0,0,1-.288.075.559.559,0,0,1-.268-.05.38.38,0,0,1-.1-.047.4.4,0,0,1-.045-.035.433.433,0,0,1-.042-.042.413.413,0,0,0-.122-.1.385.385,0,0,0-.146-.046.466.466,0,0,0-.164.013A.656.656,0,0,0,12,4.86l-.751.347-.755.351-.757.353-.759.354-.307.155c-.1.049-.209.1-.313.153s-.209.107-.313.163-.209.117-.313.18a1.266,1.266,0,0,0-.24.179.442.442,0,0,0-.114.173.464.464,0,0,0-.016.2,1.605,1.605,0,0,0,.053.248.99.99,0,0,0,.044.1A.873.873,0,0,0,7.51,7.9a.78.78,0,0,0,.06.077.7.7,0,0,0,.068.067L8,8.386l.364.347.365.34.365.34a.173.173,0,0,0,.038.015.187.187,0,0,0,.041.006.214.214,0,0,0,.043,0,.26.26,0,0,0,.045-.012q.055-.019.109-.042l.109-.048.109-.055q.055-.029.108-.061a.828.828,0,0,1,.213-.069.62.62,0,0,1,.2,0,.533.533,0,0,1,.18.062.568.568,0,0,1,.153.126.727.727,0,0,1,.114.182,1,1,0,0,1,.068.225,1.34,1.34,0,0,1,.02.26,1.681,1.681,0,0,1-.029.283.922.922,0,0,0-.025.189.7.7,0,0,0,.016.173.48.48,0,0,0,.054.14.331.331,0,0,0,.087.1l1.723,1.535a5.418,5.418,0,0,1,.5.478,5.916,5.916,0,0,1,.446.55,6.571,6.571,0,0,1,.393.62,7.378,7.378,0,0,1,.337.685q.081.208.148.433t.117.455q.051.234.087.478t.055.5a.88.88,0,0,0,.023.184.638.638,0,0,0,.057.153.463.463,0,0,0,.087.118.375.375,0,0,0,.116.075.528.528,0,0,1,.185.145.727.727,0,0,1,.123.225,1.087,1.087,0,0,1,.055.289,1.521,1.521,0,0,1-.017.335,1.671,1.671,0,0,1-.059.335,1.883,1.883,0,0,1-.125.323,1.82,1.82,0,0,1-.179.292,1.5,1.5,0,0,1-.224.239,1.509,1.509,0,0,0-.133.15,1.707,1.707,0,0,0-.116.173,1.831,1.831,0,0,0-.173.387q-.07.187-.145.374t-.152.371q-.078.185-.159.368t-.166.365q-.211.4-.454.774t-.51.712q-.268.338-.559.639a7.479,7.479,0,0,1-.6.556q-.26.235-.534.448t-.544.4q-.275.19-.553.357t-.559.309L8.662,26l-.576.283-.577.283-.577.283Z" transform="translate(-0.937 -1.394)"/><path class="d" d="M2.706,30.757l-.045.022-.045.02-.045.019-.045.018-.073.028-.071.013a1.271,1.271,0,0,1-.664-.042,1.185,1.185,0,0,1-.514-.364,1.686,1.686,0,0,1-.321-.635A2.674,2.674,0,0,1,.8,28.982l0-.071.01-.073a3.831,3.831,0,0,1,.114-.527,4.225,4.225,0,0,1,.188-.518,4.273,4.273,0,0,1,.254-.491,3.966,3.966,0,0,1,.312-.447q.11-.136.227-.255a3.193,3.193,0,0,1,.241-.222,2.767,2.767,0,0,1,.251-.186,2.334,2.334,0,0,1,.257-.147q.066-.032.132-.059t.131-.047q.065-.021.13-.036t.129-.024a1.2,1.2,0,0,1,.259-.02,1.011,1.011,0,0,1,.24.037.942.942,0,0,1,.217.092.981.981,0,0,1,.19.144L7.629,24.4c.161-.079.32-.156.476-.234s.311-.156.465-.237.3-.164.455-.251.3-.178.447-.274l.027-.017.027-.015a6.734,6.734,0,0,0,.621-.407q.307-.225.6-.492t.577-.57q.281-.3.543-.64.1-.131.187-.271t.169-.287q.08-.147.149-.3T12.5,20.1a1.606,1.606,0,0,1-.121-.266,2.019,2.019,0,0,1-.08-.3,2.467,2.467,0,0,1-.038-.336,2.9,2.9,0,0,1,.006-.36,3.382,3.382,0,0,1,.061-.424,3.833,3.833,0,0,1,.115-.426,4.038,4.038,0,0,1,.165-.417,3.949,3.949,0,0,1,.21-.4l0-.019a4.769,4.769,0,0,0-.105-.625,3.89,3.89,0,0,0-.18-.562,3.177,3.177,0,0,0-.251-.491,2.655,2.655,0,0,0-.319-.413l-.007-.007-.007-.008q-.289-.327-.592-.638t-.618-.606q-.315-.295-.642-.572t-.664-.536a1.548,1.548,0,0,1-.347.089,1.252,1.252,0,0,1-.33,0,1.094,1.094,0,0,1-.3-.086,1.082,1.082,0,0,1-.268-.173,1.26,1.26,0,0,1-.221-.256,1.63,1.63,0,0,1-.164-.326,2.117,2.117,0,0,1-.1-.385,2.653,2.653,0,0,1-.037-.432l-.115-.11L7.43,10.9l-.116-.109L7.2,10.685l-.177-.166-.179-.169-.179-.173Q6.574,10.09,6.485,10t-.169-.162q-.082-.085-.159-.178t-.149-.193q-.072-.1-.138-.208a1.858,1.858,0,0,1-.208-.478,2.559,2.559,0,0,1-.09-.566A3.347,3.347,0,0,1,5.6,7.589a4.031,4.031,0,0,1,.15-.66,4.321,4.321,0,0,1,.261-.643,4.107,4.107,0,0,1,.35-.574,3.545,3.545,0,0,1,.421-.482,2.8,2.8,0,0,1,.475-.366l.051-.031.051-.024.069-.034.075-.04.079-.045.083-.048.091-.052.1-.054.1-.055.1-.054.013-.006.013-.006,3.626-1.678.033-.059.034-.059.034-.058.035-.057a3.768,3.768,0,0,1,.267-.375,3.3,3.3,0,0,1,.3-.321,2.747,2.747,0,0,1,.318-.26,2.2,2.2,0,0,1,.333-.192,1.675,1.675,0,0,1,.4-.129,1.281,1.281,0,0,1,.378-.015,1.1,1.1,0,0,1,.345.1,1.121,1.121,0,0,1,.3.209,1.529,1.529,0,0,1,.383.647,2.6,2.6,0,0,1,.107.86,3.71,3.71,0,0,1-.164.962,4.1,4.1,0,0,1-.431.954l-.027.044-.029.042a3.612,3.612,0,0,1-.246.316,3.1,3.1,0,0,1-.266.27,2.608,2.608,0,0,1-.282.22A2.176,2.176,0,0,1,13.234,6a1.758,1.758,0,0,1-.285.105,1.4,1.4,0,0,1-.276.047,1.177,1.177,0,0,1-.264-.012,1.087,1.087,0,0,1-.249-.071.91.91,0,0,1-.176-.081.931.931,0,0,1-.081-.054.978.978,0,0,1-.076-.064L8.867,7.251l-.028.013-.028.013-.028.013L8.756,7.3l.131.123.13.122.13.121.129.121.033.031.033.031.033.031.033.031.008,0,.008,0,.008,0,.008,0,.04-.023.04-.019.008,0a1.639,1.639,0,0,1,.426-.135,1.251,1.251,0,0,1,.4,0,1.079,1.079,0,0,1,.361.125,1.133,1.133,0,0,1,.3.252,1.426,1.426,0,0,1,.2.314,1.906,1.906,0,0,1,.133.384,2.494,2.494,0,0,1,.062.438,3.085,3.085,0,0,1-.013.479l1.58,1.426a6.039,6.039,0,0,1,.549.531,6.538,6.538,0,0,1,.491.609,7.264,7.264,0,0,1,.432.685,8.229,8.229,0,0,1,.372.758l.006.013.005.013q.092.234.167.483t.133.51q.058.262.1.536t.065.559a1.111,1.111,0,0,1,.33.3,1.525,1.525,0,0,1,.221.434,2.213,2.213,0,0,1,.1.542,3.036,3.036,0,0,1-.024.624,3.531,3.531,0,0,1-.122.639,3.892,3.892,0,0,1-.235.616,3.8,3.8,0,0,1-.332.563,3.276,3.276,0,0,1-.414.478l-.018.048q-.077.2-.158.409t-.167.407q-.085.2-.175.4t-.182.4l-.021.045-.023.044q-.252.479-.541.923t-.607.848q-.318.4-.664.762a9.033,9.033,0,0,1-.713.665q-.293.26-.593.5t-.6.447q-.3.211-.613.4t-.62.343l-.006,0-.006,0L7.6,27.411l-.016.156-.78.384L4.442,29.112l-.072.035-.069.035-.066.034-.063.034a4.416,4.416,0,0,1-.308.483,4,4,0,0,1-.355.421,3.35,3.35,0,0,1-.39.346A2.624,2.624,0,0,1,2.706,30.757Z" transform="translate(-0.794 -1.202)"/></g><g transform="translate(9.602 9.934)"><path class="d" d="M10.576,4.585l1.76-.806a.53.53,0,0,0,.075-.047.653.653,0,0,0,.07-.062.773.773,0,0,0,.065-.074.866.866,0,0,0,.058-.087,1.518,1.518,0,0,0,.087-.136c.027-.049.055-.094.082-.142l.081-.144a1.555,1.555,0,0,1,.087-.14,1.607,1.607,0,0,1,.234-.3,1.171,1.171,0,0,1,.266-.2.76.76,0,0,1,.275-.092.52.52,0,0,1,.26.033.58.58,0,0,1,.233.14.762.762,0,0,1,.163.243,1.14,1.14,0,0,1,.087.323,1.62,1.62,0,0,1,0,.385,1.993,1.993,0,0,1-.1.4,2.088,2.088,0,0,1-.173.368,1.851,1.851,0,0,1-.235.313,1.4,1.4,0,0,1-.281.233,1,1,0,0,1-.25.13.693.693,0,0,1-.241.039.543.543,0,0,1-.219-.051.562.562,0,0,1-.191-.138.419.419,0,0,0-.121-.1A.39.39,0,0,0,12.5,4.62a.467.467,0,0,0-.167.012.647.647,0,0,0-.173.068l-.607.278-.607.278-.607.279-.607.279q-.347.16-.7.331t-.7.347q-.347.179-.7.367t-.7.387a7.244,7.244,0,0,0-.627.389Q6,7.849,5.7,8.1t-.591.542q-.289.289-.565.611a6.774,6.774,0,0,0-.557.764,7.366,7.366,0,0,0-.458.848,7.453,7.453,0,0,0-.347.9,7.02,7.02,0,0,0-.221.932,1.479,1.479,0,0,0-.053.326,1.119,1.119,0,0,0,.023.293.757.757,0,0,0,.1.239.52.52,0,0,0,.163.166.536.536,0,0,1,.14.116.678.678,0,0,1,.1.165.915.915,0,0,1,.063.205,1.213,1.213,0,0,1,.02.238,1.522,1.522,0,0,1-.025.26,1.749,1.749,0,0,1-.068.26,1.837,1.837,0,0,1-.107.249,1.76,1.76,0,0,1-.143.23.978.978,0,0,0-.1.189.946.946,0,0,0-.054.2.76.76,0,0,0-.006.191.52.52,0,0,0,.043.166,6.1,6.1,0,0,0,.26.705,5.214,5.214,0,0,0,.327.63,4.5,4.5,0,0,0,.393.549,3.971,3.971,0,0,0,.456.462l.861.8q.428.394.867.78t.867.774l.867.769.459.409.459.408.457.408.452.408a.9.9,0,0,1,.186.281,1.332,1.332,0,0,1,.1.364,1.882,1.882,0,0,1,0,.422,2.381,2.381,0,0,1-.094.456,1.788,1.788,0,0,1-.124.329,1.733,1.733,0,0,1-.179.289,1.434,1.434,0,0,1-.221.231,1.021,1.021,0,0,1-.248.154c-.164.094-.332.188-.5.282s-.347.188-.52.282l-.52.28-.52.276L4.185,28.444a.57.57,0,0,0-.133.074.788.788,0,0,0-.123.113.974.974,0,0,0-.106.145,1.062,1.062,0,0,0-.082.169,2.08,2.08,0,0,1-.289.458,1.59,1.59,0,0,1-.356.32,1,1,0,0,1-.38.152.627.627,0,0,1-.359-.044.615.615,0,0,1-.252-.242.987.987,0,0,1-.123-.376,1.56,1.56,0,0,1,.013-.462,2.3,2.3,0,0,1,.292-.76,1.878,1.878,0,0,1,.167-.231,1.6,1.6,0,0,1,.191-.19,1.253,1.253,0,0,1,.208-.142.929.929,0,0,1,.211-.087.693.693,0,0,1,.2-.022.562.562,0,0,1,.185.04.548.548,0,0,1,.161.1.389.389,0,0,0,.119.071.406.406,0,0,0,.136.025.506.506,0,0,0,.147-.021.686.686,0,0,0,.153-.066l3.575-1.723.328-.159c.109-.054.218-.108.328-.165l.33-.173c.111-.058.221-.126.333-.194a.361.361,0,0,0,.076-.041.488.488,0,0,0,.072-.062.607.607,0,0,0,.064-.079.683.683,0,0,0,.054-.093.693.693,0,0,0,.039-.1.639.639,0,0,0,.023-.1.531.531,0,0,0,0-.1.4.4,0,0,0-.015-.087.832.832,0,0,0-.025-.11.685.685,0,0,0-.038-.1.567.567,0,0,0-.05-.087.479.479,0,0,0-.062-.071q-.356-.323-.717-.644l-.723-.643L7.035,22.1q-.362-.324-.724-.654l-.712-.65c-.234-.214-.465-.426-.693-.64s-.456-.427-.681-.644-.45-.433-.673-.663a3.611,3.611,0,0,1-.4-.451,4.16,4.16,0,0,1-.333-.53,4.871,4.871,0,0,1-.268-.607,5.732,5.732,0,0,1-.2-.672.849.849,0,0,0-.055-.178.642.642,0,0,0-.087-.144.511.511,0,0,0-.114-.106.465.465,0,0,0-.139-.063.544.544,0,0,1-.159-.087.624.624,0,0,1-.128-.138.8.8,0,0,1-.086-.183,1.073,1.073,0,0,1-.054-.222,1.391,1.391,0,0,1-.01-.249,1.693,1.693,0,0,1,.033-.26,1.907,1.907,0,0,1,.074-.26,1.982,1.982,0,0,1,.114-.26c.071-.127.137-.26.2-.391s.113-.269.159-.406.087-.276.12-.414.06-.278.079-.417a8.415,8.415,0,0,1,.317-1.31,8.931,8.931,0,0,1,.52-1.253A8.59,8.59,0,0,1,3.83,9.1a7.5,7.5,0,0,1,.845-.985q.315-.322.641-.607t.662-.535q.335-.248.678-.458a7.845,7.845,0,0,1,.689-.377q.4-.2.807-.4l.8-.4.8-.392.8-.392Z" transform="translate(-0.571 -1.092)"/><path class="d" d="M2.86,30.754a1.919,1.919,0,0,1-.319.122,1.5,1.5,0,0,1-.308.054,1.244,1.244,0,0,1-.294-.015,1.146,1.146,0,0,1-.275-.084l-.01,0-.01,0a1.138,1.138,0,0,1-.274-.193,1.313,1.313,0,0,1-.218-.272,1.677,1.677,0,0,1-.157-.345A2.222,2.222,0,0,1,.9,29.6a2.816,2.816,0,0,1-.022-.449,3.346,3.346,0,0,1,.048-.47,3.811,3.811,0,0,1,.116-.48,4.141,4.141,0,0,1,.182-.478A4.09,4.09,0,0,1,1.5,27.2a3.72,3.72,0,0,1,.333-.455,3.158,3.158,0,0,1,.38-.375,2.524,2.524,0,0,1,.414-.281l.021-.011.021-.011.021-.011.021-.01a1.784,1.784,0,0,1,.368-.131,1.379,1.379,0,0,1,.352-.037,1.144,1.144,0,0,1,.327.057,1.081,1.081,0,0,1,.292.149L7.569,24.4l.035-.017.035-.017.035-.017.035-.017-.155-.138L7.4,24.056l-.154-.136-.153-.136-.4-.352-.4-.358-.4-.362-.4-.364-.088-.08-.087-.079-.087-.079-.087-.079-.623-.567q-.308-.282-.611-.564t-.6-.571q-.3-.289-.6-.588a4.23,4.23,0,0,1-.459-.523,4.922,4.922,0,0,1-.39-.616,5.749,5.749,0,0,1-.316-.7,6.667,6.667,0,0,1-.236-.777,1.111,1.111,0,0,1-.315-.18,1.274,1.274,0,0,1-.253-.278A1.64,1.64,0,0,1,.555,16.3a2.188,2.188,0,0,1-.106-.444,2.829,2.829,0,0,1-.021-.506,3.425,3.425,0,0,1,.066-.53,3.861,3.861,0,0,1,.15-.535,4.038,4.038,0,0,1,.231-.522l.011-.022L.9,13.719q.062-.11.113-.225t.091-.233c.027-.079.05-.158.069-.238s.034-.16.045-.24l0-.016,0-.016a10.29,10.29,0,0,1,.388-1.6,11.026,11.026,0,0,1,.637-1.539A10.617,10.617,0,0,1,3.1,8.2,9.191,9.191,0,0,1,4.129,6.993q.356-.364.724-.685t.745-.6q.377-.278.763-.513t.777-.424l.613-.306.612-.3.607-.3.6-.291.2-.1.2-.1.2-.1.2-.1.594-.29.022.043.973-.443,0-.007,0-.007,0-.007,0-.007.041-.073.046-.08.05-.085.055-.089a3.555,3.555,0,0,1,.254-.363,3.1,3.1,0,0,1,.284-.31A2.574,2.574,0,0,1,13,1.222a2.065,2.065,0,0,1,.321-.184,1.654,1.654,0,0,1,.259-.094A1.347,1.347,0,0,1,13.836.9a1.147,1.147,0,0,1,.242.008,1.054,1.054,0,0,1,.229.059,1.134,1.134,0,0,1,.445.281,1.517,1.517,0,0,1,.311.475,2.253,2.253,0,0,1,.16.628,3.147,3.147,0,0,1-.008.742l0,.014,0,.014a3.928,3.928,0,0,1-.193.776,4.137,4.137,0,0,1-.338.719,3.692,3.692,0,0,1-.455.615,2.8,2.8,0,0,1-.543.462l-.077.05-.077.046-.078.042-.078.038A1.62,1.62,0,0,1,12.986,6a1.273,1.273,0,0,1-.369.015,1.09,1.09,0,0,1-.633-.293L9.621,6.805C9.419,6.9,9.214,7,9,7.1s-.428.211-.653.326-.457.237-.7.366-.494.266-.758.412a6.042,6.042,0,0,0-.525.326q-.26.18-.514.393t-.5.455q-.243.242-.472.51a4.888,4.888,0,0,0-.4.553,5.4,5.4,0,0,0-.331.615,5.459,5.459,0,0,0-.251.655,5.066,5.066,0,0,0-.16.673l0,.029a1.2,1.2,0,0,1,.249.255A1.544,1.544,0,0,1,4.17,13a2.024,2.024,0,0,1,.112.406,2.571,2.571,0,0,1,.035.462,3.108,3.108,0,0,1-.031.4,3.567,3.567,0,0,1-.083.41,3.856,3.856,0,0,1-.132.406,3.916,3.916,0,0,1-.177.392A4.868,4.868,0,0,0,4.107,16a4.284,4.284,0,0,0,.261.463,3.755,3.755,0,0,0,.305.408,3.308,3.308,0,0,0,.346.347l.01.008.009.009q.436.409.874.81t.872.793q.434.391.86.77l.838.744h0l.152.137.153.136.153.136L9.1,20.9l.3.271.306.274.306.275.3.275.011.01.01.01a1.6,1.6,0,0,1,.326.493,2.366,2.366,0,0,1,.17.638,3.332,3.332,0,0,1,.009.74,4.179,4.179,0,0,1-.157.8,3.831,3.831,0,0,1-.254.666,3.7,3.7,0,0,1-.361.589,3.109,3.109,0,0,1-.443.479,2.3,2.3,0,0,1-.5.335l0,0,0,0,0,0,0,0q-.233.133-.474.266t-.484.265l-.489.263-.487.26-.112.06-.007,0-.007,0-2.8,1.437a4.081,4.081,0,0,1-.288.465,3.626,3.626,0,0,1-.333.4,3.051,3.051,0,0,1-.369.327A2.454,2.454,0,0,1,2.86,30.754Z" transform="translate(-0.424 -0.899)"/></g><g transform="translate(0 0)"><path class="a" d="M1.983,17.383,29.8,4.9a2.817,2.817,0,0,1,1.429-.267,2.143,2.143,0,0,1,1.173.491,2.836,2.836,0,0,1,.8,1.143,4.774,4.774,0,0,1,.311,1.7L34,41.543,7.254,54.865a3.24,3.24,0,0,1-1.484.373,2.23,2.23,0,0,1-1.242-.385,2.582,2.582,0,0,1-.867-1.058,4.256,4.256,0,0,1-.367-1.647Z" transform="translate(-0.264 -2.534)"/><path class="d" d="M35.232,42.348l-1.465.733L7.056,56.445a4.59,4.59,0,0,1-2.1.531A3.168,3.168,0,0,1,3.2,56.437a3.655,3.655,0,0,1-1.239-1.5,6,6,0,0,1-.526-2.333L.079,17.8,0,15.764l1.642-.733L29.5,2.6a3.969,3.969,0,0,1,2.024-.371,3.042,3.042,0,0,1,1.661.7A4.034,4.034,0,0,1,34.315,4.56a6.759,6.759,0,0,1,.438,2.4l.454,33.527Zm-31.807-24L4.616,51.042a2.481,2.481,0,0,0,.213.96,1.512,1.512,0,0,0,.506.619,1.3,1.3,0,0,0,.723.227,1.879,1.879,0,0,0,.865-.214L32.238,40.089l-.5-31.754a2.771,2.771,0,0,0-.184-.991,1.652,1.652,0,0,0-.469-.667,1.252,1.252,0,0,0-.686-.285,1.643,1.643,0,0,0-.833.157Z" transform="translate(0 -2.211)"/></g></g></g><g transform="translate(65.801 210.41)"><g class="h" transform="translate(-0.001 -35.493)"><path class="i" d="M533.947,1116.425c2,1.2-17.471-28.1-20.618-71.772-1.483-20.579.652-46.021-10.075-56.815-8.928-8.986-42.124-6.638-53.01-5.6a1.614,1.614,0,0,0-.988,2.749c4.771,4.76,14.894,15.878,16.881,26.384,2.619,13.847,14.741,23.551,26.05,26.864s17.523,6.12,21.555,25.011S528.273,1113.011,533.947,1116.425Z" transform="translate(-448.779 -981.172)"/><path class="j" d="M631.181,1075a52.351,52.351,0,0,1,19.57,6.76,41.047,41.047,0,0,1,8.29,6.387,35.472,35.472,0,0,1,6.24,8.448l.606,1.172c.2.392.361.8.543,1.2s.36.807.519,1.212l.474,1.2q.952,2.4,1.874,4.82,1.84,4.833,3.525,9.724c2.25,6.518,4.3,13.105,5.939,19.818a.312.312,0,0,1-.6.166v-.01c-1-3.278-2.066-6.551-3.193-9.8q-1.667-4.877-3.445-9.714l-1.792-4.832-1.846-4.812q-.922-2.407-1.883-4.8l-.476-1.2c-.157-.4-.336-.779-.5-1.163s-.325-.779-.513-1.153l-.572-1.125a35.222,35.222,0,0,0-5.921-8.148,39.074,39.074,0,0,0-3.761-3.394l-.494-.4-.511-.378c-.341-.251-.675-.512-1.022-.755-.7-.479-1.394-.967-2.12-1.407a52.4,52.4,0,0,0-9.143-4.519,54.776,54.776,0,0,0-9.839-2.811h-.016a.25.25,0,1,1,.078-.494Z" transform="translate(-615.138 -1066.88)"/></g><g class="k" transform="translate(35.914 -80.548)"><path class="l" d="M916.736,597.3s1.125-29.486-12.348-37.576-39.234-13.394-39.595-55.764c-.212-24.8-.67-35.656-1.013-40.387a2.793,2.793,0,0,1,3.341-2.943c12.832,2.608,54.488,13.185,62.843,41.84C939.864,536.442,916.736,597.3,916.736,597.3Z" transform="translate(-863.772 -460.575)"/><path class="j" d="M1006.84,598.475c.982.911,1.925,1.837,2.856,2.784.467.472.922.952,1.376,1.437s.916.96,1.357,1.454c.891.981,1.789,1.958,2.652,2.963l1.309,1.5,1.276,1.526,1.267,1.534,1.234,1.558,1.233,1.558c.411.519.8,1.058,1.2,1.585l1.192,1.6.6.8.575.812,2.3,3.25c1.471,2.209,2.972,4.4,4.345,6.675l1.051,1.693.526.846.5.865,2,3.449.495.865.467.88.933,1.761.936,1.76.468.88.44.895c1.152,2.4,2.375,4.749,3.412,7.228.279.606.514,1.236.764,1.856s.5,1.242.737,1.868l.679,1.888.339.944.309.952.618,1.908.561,1.925c.391,1.279.683,2.584,1.023,3.876a111.652,111.652,0,0,1,2.6,15.788,122.328,122.328,0,0,1,.441,15.964q-.157,3.99-.564,7.962c-.27,2.653-.626,5.274-1.157,7.923a.8.8,0,0,1-1.573-.271l.005-.034a116.308,116.308,0,0,0,1.153-15.632,133.384,133.384,0,0,0-.727-15.67,117.892,117.892,0,0,0-2.671-15.423,98.731,98.731,0,0,0-4.895-14.822,193.172,193.172,0,0,0-14.986-27.607l-2.188-3.276-.548-.818-.569-.8-1.134-1.61c-.379-.536-.748-1.08-1.137-1.61l-1.169-1.585-1.168-1.587-1.2-1.558a152.393,152.393,0,0,0-10.154-12.047l-.011-.012a.453.453,0,0,1,.639-.643Z" transform="translate(-993.767 -586.433)"/></g><rect class="m" width="243.092" height="3.226" rx="1.613" transform="translate(243.399 149.199) rotate(180)"/><path class="d" d="M950.157,498.67l-8.007,15.766h6.087l-2.083,11.7,12.44-15.68-8.222-.655Z" transform="translate(-860.613 -536.544)"/><path class="d" d="M1172.041,604.8l-10.86,9.3,4.579,1.881-5.219,8.245,14.187-7.907-5.974-3.056Z" transform="translate(-1060.103 -633.489)"/><path class="d" d="M698.54,620.65l2.762,14.028,3.888-3.064,4.616,8.6.085-16.242-5.6,3.7Z" transform="translate(-638.086 -647.967)"/><path class="d" d="M1945.037,488.54l-8.007,15.767h6.087l-2.083,11.7,12.44-15.68-8.222-.655Z" transform="translate(-1769.393 -527.29)"/><path class="d" d="M2166.92,594.68l-10.86,9.3,4.579,1.881-5.219,8.245,14.188-7.907-5.974-3.056Z" transform="translate(-1968.882 -624.245)"/><path class="d" d="M1693.42,610.52l2.76,14.028,3.89-3.064,4.616,8.6.085-16.241-5.6,3.7Z" transform="translate(-1546.866 -638.714)"/><circle class="n" cx="16.182" cy="16.182" r="16.182" transform="translate(41.044 -78.883) rotate(-45)"/><circle class="o" cx="17.172" cy="17.172" r="17.172" transform="translate(179.493 -76.134) rotate(-45)"/><circle class="n" cx="18.268" cy="18.268" r="18.268" transform="translate(133.486 -92.362) rotate(-45)"/><circle class="n" cx="18.268" cy="18.268" r="18.268" transform="translate(216.373 -44.248) rotate(-45)"/><circle class="o" cx="18.532" cy="18.532" r="18.532" transform="translate(80.388 -93.201) rotate(-45)"/><circle class="o" cx="18.532" cy="18.532" r="18.532" transform="translate(3.257 -48.201) rotate(-45)"/><path class="p" d="M961.38,1922.736s11.32,13.786,15.484,10.464-7.078-21.43-7.078-21.43Z" transform="translate(-937.018 -1866.726)"/><path class="q" d="M870.932,3001.222a.762.762,0,0,0-.021-.205c-1.022-4.053-6.1-6.577-6.1-6.577l-2.01.157a13.954,13.954,0,0,0-.822,6.74c.005.026.014.052.021.079A47.775,47.775,0,0,0,870.932,3001.222Z" transform="translate(-846.107 -2855.697)"/><path class="r" d="M863.48,2961.66l.852,4.1a.671.671,0,0,0,.573.552,5.647,5.647,0,0,0,1.319-.022.842.842,0,0,0,.667-.99l-.592-3.639Z" transform="translate(-847.591 -2825.754)"/><path class="q" d="M1034.662,3007.711a.57.57,0,0,0-.049-.092,15.535,15.535,0,0,0-9.238-5.8l-2.6-.081a12.47,12.47,0,0,0-1.18,5.739,12,12,0,0,0,3.963.566C1028.991,3008.139,1033.064,3007.844,1034.662,3007.711Z" transform="translate(-992.027 -2862.366)"/><path class="s" d="M1029.62,2949.54c.029.194.385,3.139.519,4.281a.566.566,0,0,0,.478.51,5.917,5.917,0,0,0,1.785-.027.768.768,0,0,0,.582-.771v-4.623Z" transform="translate(-999.352 -2814.108)"/><path class="t" d="M831.128,2335.14a231.318,231.318,0,0,1,6.157,53.818,1.159,1.159,0,0,1-.921,1.131,13.5,13.5,0,0,1-2.907.337,1.079,1.079,0,0,1-1.026-.9c-.879-5.156-5.925-34.2-8.8-38.917,0,0-1.892,25.87-1.287,39.291a.638.638,0,0,1-.562.663,10.742,10.742,0,0,1-2.337-.007.851.851,0,0,1-.758-.723c-.627-4.364-4.231-30.337-4.078-49.048.009-1.055,2.79-5.643,2.79-5.643Z" transform="translate(-802.946 -2253.456)"/><path class="u" d="M700.314,1907.208c-8.629-1.248-18.108-.1-22.709.476a6.07,6.07,0,0,0-3.833,2.058c-3.894,4.505-12.435,16.84-2.381,29.268a18.728,18.728,0,0,0,4.357-3.186c-1.112-3.136-1.2-7.143,1.125-12.057a11.563,11.563,0,0,0,.3,1.155,71.374,71.374,0,0,1,3.375,20.6.645.645,0,0,0,.4.606c4.229,1.694,12.37.686,15.1.279a.919.919,0,0,0,.769-1.043c-.962-6.964,2.3-17.148,4.9-23.832C702.75,1918.89,700.852,1907.948,700.314,1907.208Z" transform="translate(-667.814 -1862.047)"/><path class="v" d="M883.848,1796.15,882.656,1806a.92.92,0,0,0,.653,1,10.4,10.4,0,0,0,6.591-.086,1.076,1.076,0,0,0,.635-1.225l-1.507-6.932Z" transform="translate(-865.101 -1761.112)"/><path class="w" d="M767.063,1986.393a26.335,26.335,0,0,1-1.08-10.354l.47.054a25.809,25.809,0,0,0,1.054,10.136Z" transform="translate(-758.427 -1925.434)"/><path class="x" d="M725.577,2243.78a18.745,18.745,0,0,1-4.357,3.186,36.208,36.208,0,0,0,7.962,7.081l.416.935a2.323,2.323,0,0,0,2.011,1.373c4.811.229,6.145-.791,1.714-3.879C733.325,2252.475,727.662,2249.657,725.577,2243.78Z" transform="translate(-717.643 -2170.003)"/><path class="y" d="M1095.906,2002.57s-6.07,6.31-7.472,8.6.158,6.458,3.344,5.49,6.895-11.917,6.895-11.917Z" transform="translate(-1052.604 -1949.668)"/><path class="z" d="M1062.83,1899s5.334,14.069,7.02,17c1.956,3.4,7.67,1.232,7.385-1.612s-6.959-14.594-6.959-14.594Z" transform="translate(-1029.688 -1855.061)"/><path class="t" d="M687.766,1204.275l33.154-11.495-.348,31.107-33.712-7.522Z" transform="translate(-647.417 -1170.583)"/><ellipse class="aa" cx="3.258" cy="15.986" rx="3.258" ry="15.986" transform="translate(70.277 21.855)"/><g class="ab" transform="translate(71.472 22.768)"><path class="ac" d="M1479.3,1774.208c0,2.717-1.464,4.918-4.359,4.918a4.928,4.928,0,1,1,0-9.836C1477.839,1769.29,1479.3,1771.493,1479.3,1774.208Z" transform="translate(-1472.818 -1759.344)"/></g><path class="ad" d="M1052.127,1771.508a18.563,18.563,0,0,1,6.215.307,33.169,33.169,0,0,0,.245,12.991h-6.82a2.211,2.211,0,0,1-2.184-1.864,31.047,31.047,0,0,1-.312-8.678A3.269,3.269,0,0,1,1052.127,1771.508Z" transform="translate(-1017.125 -1738.484)"/><path class="i" d="M1069.583,1794.717h-5.314a.564.564,0,0,1-.474-.87.216.216,0,0,1,.362.235.132.132,0,0,0,.111.2h5.314a.132.132,0,0,0,.132-.133v-.377a.132.132,0,0,0-.132-.133h-5.354a.216.216,0,0,1,0-.433h5.354a.565.565,0,0,1,.564.564v.378A.565.565,0,0,1,1069.583,1794.717Z" transform="translate(-1010.488 -1758.427)"/><path class="i" d="M1064.13,1821.953h-5.313a.564.564,0,0,1-.474-.866.216.216,0,1,1,.363.235.132.132,0,0,0,.112.2h5.313a.132.132,0,0,0,.132-.132v-.378a.132.132,0,0,0-.132-.133h-5.353a.216.216,0,1,1,0-.433h5.353a.565.565,0,0,1,.564.564v.378A.565.565,0,0,1,1064.13,1821.953Z" transform="translate(-1005.509 -1783.309)"/><path class="i" d="M1199.479,1682.895a.215.215,0,0,1-.066-.421l25.11-7.991a.216.216,0,1,1,.131.411l-25.111,7.991A.221.221,0,0,1,1199.479,1682.895Z" transform="translate(-1154.312 -1649.965)"/><path class="i" d="M1160.27,1777.74a.216.216,0,0,1-.081-.417l1.292-.528a.216.216,0,0,1,.164.4l-1.293.528A.208.208,0,0,1,1160.27,1777.74Z" transform="translate(-1118.5 -1743.422)"/><path class="i" d="M1069.581,1853.757h-5.314a.563.563,0,0,1-.473-.87.216.216,0,0,1,.363.234.132.132,0,0,0,.111.2h5.314a.133.133,0,0,0,.133-.133v-.377a.134.134,0,0,0-.133-.133h-5.354a.216.216,0,1,1,0-.432h5.354a.565.565,0,0,1,.564.564v.377A.565.565,0,0,1,1069.581,1853.757Z" transform="translate(-1010.486 -1812.357)"/><path class="i" d="M1075.388,1889.088h-5.311a.563.563,0,0,1-.473-.865.216.216,0,0,1,.363.234.132.132,0,0,0,.111.2h5.314a.133.133,0,0,0,.133-.131v-.378a.133.133,0,0,0-.133-.132h-5.354a.216.216,0,0,1,0-.433h5.354a.564.564,0,0,1,.563.564v.378a.564.564,0,0,1-.566.565Z" transform="translate(-1015.795 -1844.63)"/><path class="i" d="M1113.107,1972.356a3.612,3.612,0,0,1-.756-.082,3.5,3.5,0,0,1-2.468-2l-4.246-9.434a.215.215,0,1,1,.393-.173l4.246,9.433a3.071,3.071,0,0,0,2.164,1.754,3.008,3.008,0,0,0,2.646-.676c.04-.034.079-.07.119-.106a.216.216,0,0,1,.291.319c-.042.039-.086.076-.126.113A3.424,3.424,0,0,1,1113.107,1972.356Z" transform="translate(-1068.768 -1911.264)"/><path class="i" d="M1093.578,1933.732a.216.216,0,0,1-.2-.127l-.474-1.052a.217.217,0,1,1,.394-.178l.473,1.053a.217.217,0,0,1-.108.286A.213.213,0,0,1,1093.578,1933.732Z" transform="translate(-1057.14 -1885.42)"/><path class="i" d="M1516.9,1780.208a.216.216,0,0,1-.215-.2,3.79,3.79,0,0,0-1.338-2.89,4.746,4.746,0,0,0-3.381-.692.216.216,0,1,1-.081-.424,5.108,5.108,0,0,1,3.721.773,4.2,4.2,0,0,1,1.508,3.2.216.216,0,0,1-.2.231Z" transform="translate(-1419.716 -1742.639)"/><path class="ae" d="M1141.2,1953.759s1.731-1.471,3.081,0,1.619,4.029,1.344,4.154S1136.991,1955.964,1141.2,1953.759Z" transform="translate(-1100.194 -1904.484)"/><path class="af" d="M880.358,1710.05s1.977,4.913,2.048,7.465.573,4.22-2.387,4.65a6.265,6.265,0,0,1-6.674-3.682s-2-3.969-1.479-5.558S880.358,1710.05,880.358,1710.05Z" transform="translate(-855.173 -1682.464)"/><path class="ag" d="M834.521,1661l.173-.069a.4.4,0,0,0,.213-.549c-.393-.814-1.151-2.677-.093-3.076,1.363-.52,6.734-1.455,7.94-3.317a3.527,3.527,0,0,0-1.212-4.879.2.2,0,0,0-.268.079l-.129.229a.2.2,0,0,1-.369-.049h0a.2.2,0,0,0-.359-.061c-.37.556-1.352,1.449-3.922,1.849-3.653.568-6.1,1.971-6.231,4.481a.2.2,0,0,1-.314.157c-.26-.173-.692-.26-1.279.207-1.021.811-.674,3,1.463,4.852a.2.2,0,0,1-.018.32c-.4.247-1.013.845.5,1.707a5.156,5.156,0,0,0,3.2.793.2.2,0,0,0,.169-.236l-.422-2.221a.2.2,0,0,1,.2-.238Z" transform="translate(-815.29 -1626.781)"/><path class="ah" d="M875.394,1766.469s-.719-3.124-2.133-2.293.624,3.494,1.738,3.642Z" transform="translate(-836.085 -1731.777)"/><path class="ai" d="M2690.26,1908.991s.449,19.608,21.066,23.047l3.7-3.654s-17.852-6.07-22.5-18.755l.993-6.727-.7-4.452Z" transform="translate(-2486.275 -1854.559)"/><path class="t" d="M2356.123,1498.63l56.293-2.906a1.809,1.809,0,0,1,2.067,1.48l1.271,34.089a1.829,1.829,0,0,1-1.967,1.644c-10.192.214-55.441,1.171-57.434,1.326-1.969.153-2.117-27.269-2.123-34.037A1.825,1.825,0,0,1,2356.123,1498.63Z" transform="translate(-2179.326 -1486.683)"/><path class="i" d="M2373.772,1545.645l-.04-.144c-.848-3.116-1.406-15.948-1.423-32.688a.394.394,0,0,1,.4-.37l56.293-2.907a.459.459,0,0,1,.287.086.349.349,0,0,1,.148.268l1.271,34.089a.391.391,0,0,1-.395.382h-.012c-8.109.173-48.935,1.032-56.377,1.282Zm55.252-35.734h-.007l-56.293,2.906a.073.073,0,0,0-.045.016c.021,16.443.558,29.1,1.377,32.427,7.827-.26,48.172-1.107,56.231-1.276h.007l-1.239-34.083C2429.056,1509.915,2429.047,1509.911,2429.025,1509.911Z" transform="translate(-2195.841 -1499.303)"/><path class="aj" d="M2801.24,1550.773c.04.865.357,1.548.711,1.533l15.647-.7c.354-.016.61-.727.572-1.589s-.355-1.548-.709-1.532l-15.647.692C2801.459,1549.2,2801.2,1549.911,2801.24,1550.773Z" transform="translate(-2587.647 -1534.883)"/><path class="ak" d="M2802.06,1608.1a.721.721,0,0,0,.676.752l15.647-.7a.8.8,0,0,0-.07-1.562l-15.647.7A.719.719,0,0,0,2802.06,1608.1Z" transform="translate(-2588.398 -1587.961)"/><path class="al" d="M2802.06,1645.61a.721.721,0,0,0,.676.752l15.647-.7a.8.8,0,0,0-.07-1.561l-15.647.7A.724.724,0,0,0,2802.06,1645.61Z" transform="translate(-2588.398 -1622.225)"/><path class="am" d="M2525.45,1584.681h-.629a.749.749,0,0,1-.742-.663l-1.363-11.747a.749.749,0,0,1,.662-.831,5.31,5.31,0,0,0,2.054-.745,5.789,5.789,0,0,0,.982-1.984,13.264,13.264,0,0,1,2.2-4.159c1.8-2.057,1.5-5.151,1.463-5.5a2.381,2.381,0,0,1,1.414-2.231c.561-.218,1.682-.331,2.905,1.362,1.528,2.114.862,4.961.42,6.845a10.434,10.434,0,0,0-.284,1.481.2.2,0,0,0,0,.057c.305.229,2.09-.047,3.157-.212.557-.087,1.125-.173,1.677-.238,1.939-.225,4.219-.141,4.646,2.526a2.906,2.906,0,0,1-.769,2.453,3.276,3.276,0,0,1,1.321,2.389,2.915,2.915,0,0,1-.673,1.858,2.788,2.788,0,0,1,.866,2.664,3.3,3.3,0,0,1-1.029,1.793,1.677,1.677,0,0,1,.432,1.157c-.036,1.3-1.607,2.6-3.734,3.091C2537.848,1584.644,2528.067,1584.681,2525.45,1584.681Zm-1.165-11.894,1.206,10.394c2.623,0,12.216-.047,14.6-.594,1.692-.389,2.561-1.282,2.572-1.673,0-.15-.277-.332-.7-.455a.749.749,0,0,1,.141-1.466,1.591,1.591,0,0,0,1.19-1.281,1.42,1.42,0,0,0-.9-1.608.75.75,0,0,1-.086-1.273,1.92,1.92,0,0,0,.765-1.316c-.021-.692-.79-1.334-1.43-1.745a.75.75,0,0,1,.032-1.281,1.739,1.739,0,0,0,.865-1.61c-.12-.746-.255-1.593-2.992-1.274-.531.061-1.082.147-1.62.23-2,.31-3.582.557-4.413-.194a1.457,1.457,0,0,1-.471-1.206,10.645,10.645,0,0,1,.322-1.747c.4-1.716.952-4.067-.173-5.625-.433-.606-.866-.933-1.125-.85a.981.981,0,0,0-.488.686c.047.4.4,4.1-1.824,6.641a11.915,11.915,0,0,0-1.928,3.7,5.459,5.459,0,0,1-1.557,2.7,6.506,6.506,0,0,1-1.98.847Z" transform="translate(-2333.226 -1542.386)"/><path class="an" d="M2920.59,2753.469s9.78,21.319,14.914,30.149c0,0,1.02,5.556,0,7.3l-.866.386,4.054-.12s.36-7.474.079-7.891a1.034,1.034,0,0,0-.843-.391s-1.739-13.771-6.773-16.71l-4.878-16.805Z" transform="translate(-2696.671 -2631.855)"/><path class="q" d="M3062.87,3145.671c-.006.1,3.165.053,4.888.022a1.372,1.372,0,0,0,1.314-1.081l1.3-6.837a1.229,1.229,0,0,0-.933-1.428l-.727-.167a3.877,3.877,0,0,0-.71,2.759c.329,1.338.616,4.805-.208,5.209a12.07,12.07,0,0,1-3.2.474S3062.924,3144.791,3062.87,3145.671Z" transform="translate(-2826.638 -2985.171)"/><path class="q" d="M2811.561,3209.663a.358.358,0,0,0,.18.669c2.883-.029,9.347-.12,9.918-.359.742-.308-.27-2.971-1.334-3.873l-5.876,1.917Z" transform="translate(-2596.913 -3049.04)"/><path class="ao" d="M2792.38,2780.81s6.318,30.58,8.109,36.544l-4.23,2.655s2.12-.36,3.692-.474,3.018-1.918,3.018-1.918l-.506-.809s-1.585-30.412-1.2-33.865Z" transform="translate(-2579.556 -2660.556)"/><path class="ap" d="M2535.939,1861.388s-.873,15.907,13.609,24.035l-3.487,7.953s-13.111-7.931-12.627-29.561a2.512,2.512,0,0,0-.615-1.694l-2.787-3.234a5,5,0,0,1-1.064-4.479l.367-1.472a.759.759,0,0,1,1.119-.472l.292.173a5.109,5.109,0,0,1,2.1,2.337l1.368,3.058a2.942,2.942,0,0,0,2.937,1.731l.846-.072Z" transform="translate(-2338.806 -1812.458)"/><path class="aq" d="M2725.635,2220.319c2.423.672,10.631,2.831,15.755,2.743l-3.147,17.754.251,2.9a26.586,26.586,0,0,1-10.258-.046,79.512,79.512,0,0,0-5.166-10.05c-.658-.966-.168-2.118.2-3.225l-.512-.341a1.394,1.394,0,0,1-.553-1.595l2.5-7.643A.764.764,0,0,1,2725.635,2220.319Z" transform="translate(-2515.396 -2148.546)"/><path class="ar" d="M2823.866,2038.893c-.209.129-6.664,2.8-5.28,9.5a1.256,1.256,0,0,0,.716.9,10.936,10.936,0,0,0,5.427.9c3.382-.346,5.6-6.247,5.5-7.962S2825.927,2037.609,2823.866,2038.893Z" transform="translate(-2603.318 -1982.557)"/><path class="as" d="M2836.214,2010.558c-.173.022-3.731,1.263-1.964,3.844s2.428,4.1,1.593,5.233c-.761,1.032-2.447.444-2.3,2.592a1.206,1.206,0,0,1-.513,1.089c-1.59,1.076-5.466,4.386-1.625,9.107a1.2,1.2,0,0,1,.135,1.345c-2.131,3.823-1.333,10.219,1.462,13.572a13.742,13.742,0,0,0,6.421,3.79,18.413,18.413,0,0,0,6.381,1.17,8.43,8.43,0,0,0,5.885-2.39,5.165,5.165,0,0,0,1.228-2.041,6.035,6.035,0,0,0,.173-2.235c-.322-3.643-2.615-6.817-5.208-9.395-1.144-1.137-2.419-2.294-2.807-3.86a6.644,6.644,0,0,1-.143-1.726,10.42,10.42,0,0,1,.647-3.721c.387-.952.984-1.8,1.385-2.749a9.277,9.277,0,0,0-.087-6.849,12.341,12.341,0,0,0-4.528-5.749C2840.478,2010.3,2838.419,2010.269,2836.214,2010.558Z" transform="translate(-2613.701 -1956.828)"/><path class="t" d="M2859.076,2485.21a17.469,17.469,0,0,1,4.605,5.885c2.453,7.62,4.44,20.725,6.433,33.774,2.958,1.46,4.684,7.364,6.364,13.426a6.148,6.148,0,0,1-3.444,1.442l-18.465-36.594-.8-15.975C2855.689,2487.449,2858.031,2485.923,2859.076,2485.21Z" transform="translate(-2635.634 -2390.538)"/><path class="t" d="M2782.192,2485.421a14.143,14.143,0,0,1-7.606-.184.577.577,0,0,0-.714.624h0c-3.405,14.257,1.677,35.08,7.044,55.962a3.121,3.121,0,0,0,3.5,0l-.426-37.426C2785.825,2498,2783.607,2492.793,2782.192,2485.421Z" transform="translate(-2561.643 -2390.548)"/><path class="t" d="M2793.862,2475.578c-2.223.779-6.007.924-10.385.828a.2.2,0,0,0-.2.158l-.321,1.464a.2.2,0,0,0,.19.246c5.654.242,10.182.042,11.98-1.228a.2.2,0,0,0,.03-.31l-1.082-1.107A.2.2,0,0,0,2793.862,2475.578Z" transform="translate(-2570.941 -2381.731)"/><path class="d" d="M117.889,140.649c-.1.463-.208.924-.312,1.383q-.664,2.931-1.33,5.863a.985.985,0,0,1-.185.427.856.856,0,0,1-.7.318H105.1l.23,1.125h9.438a.838.838,0,0,1,.824,1.006c-.055.277-.122.553-.186.83a.055.055,0,0,0,.034.074,1.967,1.967,0,0,1-.46,3.665c-.1.023-.205.035-.308.051H114.4c-.065-.009-.129-.018-.194-.029a1.961,1.961,0,0,1-1.63-1.8,1.929,1.929,0,0,1,.548-1.508l.029-.034h-7.356l.034.039a1.931,1.931,0,0,1,.518,1.7,1.956,1.956,0,0,1-1.493,1.579c-.1.023-.205.035-.308.051h-.273l-.039-.009a1.872,1.872,0,0,1-.691-.194,1.951,1.951,0,0,1-1.082-2.015,1.911,1.911,0,0,1,.926-1.43.063.063,0,0,0,.035-.08q-.21-1.02-.417-2.041-.346-1.7-.694-3.391-.327-1.6-.653-3.193-.307-1.5-.614-3c-.027-.13-.055-.26-.081-.394H98.487a.83.83,0,0,1-.8-.627c-.011-.04-.019-.082-.028-.122v-.751a.111.111,0,0,0,.008-.023.84.84,0,0,1,.836-.726h3.6a.841.841,0,0,1,.825.678q.154.747.306,1.493c.015.075.015.075.092.075h13.755a.839.839,0,0,1,.8,1.012Z" transform="translate(-2.272 -239.8)"/><path class="d" d="M20.5,21.784H5.779A1.28,1.28,0,0,1,4.5,20.5v-7.68a32.589,32.589,0,0,0,6.4,2.422v.778a.639.639,0,0,0,.64.64h3.2a.64.64,0,0,0,.64-.64v-.778a32.608,32.608,0,0,0,6.4-2.422V20.5A1.28,1.28,0,0,1,20.5,21.784ZM14.1,14.1a.64.64,0,0,1,.64.64v.64a.64.64,0,0,1-.64.64h-1.92a.639.639,0,0,1-.64-.64v-.64a.639.639,0,0,1,.64-.64Zm1.28,0a.64.64,0,0,0-.64-.64h-3.2a.639.639,0,0,0-.64.64v.573a32.058,32.058,0,0,1-6.4-2.493V9.624a1.28,1.28,0,0,1,1.28-1.28h3.84V7.064a1.28,1.28,0,0,1,1.28-1.28h4.48a1.28,1.28,0,0,1,1.28,1.28v1.28H20.5a1.28,1.28,0,0,1,1.28,1.28v2.56a32.076,32.076,0,0,1-6.4,2.493V14.1Zm0-6.4a.64.64,0,0,0-.64-.64h-3.2a.639.639,0,0,0-.64.64v.64h4.48Z" transform="translate(190.644 -90.775)"/><path class="d" d="M6.524,12.084a3.953,3.953,0,0,0-3.8,2.824.6.6,0,0,1-.57.39C1.724,15.3.382,14.217,0,13.956,0,17.173,1.481,20,5,20c2.963,0,5-1.71,5-4.695a3.385,3.385,0,0,0-.038-.357L6.524,12.084ZM17.886,0a2.385,2.385,0,0,0-1.571.643C8.331,7.775,7.5,7.943,7.5,10.043a3.616,3.616,0,0,0,.341,1.512l2.493,2.077a3.594,3.594,0,0,0,.875.118c2.426,0,3.832-1.776,8.248-10.018A4.019,4.019,0,0,0,20,1.936,2.034,2.034,0,0,0,17.886,0Z" transform="translate(53.929 -89.069)"/><g transform="translate(17.5 -60.201)"><path class="at" d="M17.833,11.167A6.667,6.667,0,1,1,11.167,4.5a6.667,6.667,0,0,1,6.667,6.667Z"/><path class="at" d="M28.6,28.6l-3.625-3.625" transform="translate(-9.1 -9.1)"/></g><path class="d" d="M5.336,5.421A2.5,2.5,0,0,0,3.644,7.037L0,17.969l.574.574,5.864-5.864a1.893,1.893,0,1,1,.884.884L1.457,19.426,2.031,20l10.932-3.644a2.5,2.5,0,0,0,1.615-1.692L16.25,8.75l-5-5ZM19.451,2.9,17.1.549a1.876,1.876,0,0,0-2.653,0L12.241,2.758l5,5L19.451,5.55a1.876,1.876,0,0,0,0-2.653Z" transform="translate(149.321 -103.201)"/><path class="d" d="M3.794,14.165c-.339-.339-.162-.244-.981-.463a2.818,2.818,0,0,1-.993-.52L.047,17.527a.625.625,0,0,0,.6.861l2.058-.079,1.416,1.5a.625.625,0,0,0,1.032-.194l2.033-4.985a2.8,2.8,0,0,1-3.4-.461Zm11.159,3.362-1.772-4.345a2.812,2.812,0,0,1-.993.52c-.823.22-.643.124-.981.463a2.8,2.8,0,0,1-3.4.461L9.843,19.61a.625.625,0,0,0,1.032.194l1.416-1.5,2.058.079a.625.625,0,0,0,.6-.861Zm-4.68-4.246c.6-.607.665-.555,1.515-.787A1.587,1.587,0,0,0,12.9,11.362a2.51,2.51,0,0,1,1.014-1.787,1.62,1.62,0,0,0,.407-1.546,2.54,2.54,0,0,1,0-2.064,1.62,1.62,0,0,0-.407-1.546A2.511,2.511,0,0,1,12.9,2.632,1.587,1.587,0,0,0,11.788,1.5,2.449,2.449,0,0,1,10.033.468,1.554,1.554,0,0,0,8.513.054a2.417,2.417,0,0,1-2.027,0A1.553,1.553,0,0,0,4.967.468,2.447,2.447,0,0,1,3.212,1.5,1.587,1.587,0,0,0,2.1,2.632,2.51,2.51,0,0,1,1.086,4.419,1.619,1.619,0,0,0,.679,5.965a2.539,2.539,0,0,1,0,2.063,1.621,1.621,0,0,0,.407,1.546A2.51,2.51,0,0,1,2.1,11.362a1.587,1.587,0,0,0,1.112,1.132c.874.238.939.2,1.515.787a1.552,1.552,0,0,0,1.943.227,1.55,1.55,0,0,1,1.661,0A1.552,1.552,0,0,0,10.273,13.281ZM3.815,6.873A3.686,3.686,0,1,1,7.5,10.624,3.718,3.718,0,0,1,3.815,6.873Z" transform="translate(234.708 -54.248)"/></g></g></svg>