<svg xmlns="http://www.w3.org/2000/svg" width="350" height="268.511" viewBox="0 0 350 268.511"><defs><style>.a{fill:#f8a37c;opacity:0.172;}.b{fill:#f7a491;}.c{fill:#f47458;}.d{fill:#f7cc7f;}.e{fill:#fff;}.f{fill:#e0973f;}.g{fill:#b75742;}.h{fill:#fae0b2;}.i{fill:#b26a0b;}.j{fill:#13375b;}.k{fill:#466eb6;}.l{fill:#86b1f2;}.m{fill:#50bfa5;}.n{fill:#96d9c9;}.o{fill:#f48c7f;}.p{fill:#07345a;}.q{fill:#3c8f7c;}.r{fill:#184655;}.s{fill:#355389;}.t{fill:#966259;}.u{fill:#6b4744;}.v{fill:#9bc1f9;}.w{fill:#f79c8d;}.x{fill:#f27a6a;}.y{fill:#f36a35;}</style></defs><g transform="translate(-13 -120)"><path class="a" d="M489.184,271.622c-.347.313-.666.617-1.005.913a33.528,33.528,0,0,1-3.928,2.961c-7.135,4.65-15.93,6.921-24.5,8.464-19.214,3.463-38.83,4.135-58.362,4.8-52.777,1.791-105.682,3.578-158.331-.549-20.8-1.628-42.061-4.354-60.91-12.711q-4.053-1.791-7.946-3.951a64.25,64.25,0,0,1-14.492-10.714,38.57,38.57,0,0,1-9.049-13.739c-3.983-10.816-1.876-22.966,2.673-33.568a110.022,110.022,0,0,1,6.376-12.329c3.512-5.97,7.385-11.768,10.917-17.733,12.571-21.2,20.774-48.032,9.17-69.78-3.335-6.248-8.154-11.734-10.872-18.256-3.467-8.344-3.2-17.609-2.1-26.609q.215-1.714.454-3.394c1.883-13.345,5.426-27.723,16.35-36.054,11.347-8.657,27.462-8.22,41.544-5.143,21.9,4.834,42.1,14.9,62.519,23.982s41.776,17.386,64.214,18.278c19.814.789,42.924-5.113,56.074-20.45C420.758,31.138,444.766,30,462.069,39a50.024,50.024,0,0,1,24.477,29.814,46.5,46.5,0,0,1,1.626,7.765,44.178,44.178,0,0,1,.291,7.324c-.052,1.209-.153,2.4-.291,3.587-2.891,24.693-23.7,44.17-36.354,66.228-6.181,10.774-10.546,23.716-6.3,35.334,6.483,17.7,29.029,24,42.643,37.172a37.1,37.1,0,0,1,6.691,8.485C501.461,246.437,499.023,262.271,489.184,271.622Z" transform="translate(-135.559 97.787)"/><g transform="translate(56 205.527)"><path class="b" d="M1224.5,693.342s-.014,6.025.352,7.013c.161.428.985,1.112,1.579,2.309a15.381,15.381,0,0,1,1.19,4.727l1.89,6.88,2.968-4.2s-1-4.168-1.207-5.579a21.723,21.723,0,0,1-.271-4.174,12.946,12.946,0,0,1-1.944-2.169,16.643,16.643,0,0,0-2.326-4.333c-.745-.745.358,4.5.358,4.5s-.925-5.781-1.6-5.781.021,3.665.021,3.665S1225.543,692.97,1224.5,693.342Z" transform="translate(-1127.381 -676.053)"/><path class="b" d="M1526.62,663.664c-.355-.041-.517.259-.57.686-.123-.713-.306-1.307-.57-1.246-.371.086-.4,2.006-.358,3.649-.1-1.313-.265-2.6-.562-2.125-.416.667-.78,3.8-.937,5.341a1.355,1.355,0,0,1-.773,1.085s-.57-3.886-1.152-2.956.533,7.652.533,7.652l.4,6.012,3.614.5.165-3.535a8.007,8.007,0,0,1-.2-3.468,16.812,16.812,0,0,1,1.659-4.684C1528.419,669.682,1526.62,663.664,1526.62,663.664Z" transform="translate(-1382.074 -650.809)"/><path class="c" d="M1534.551,685.51a5.3,5.3,0,0,1-.465,2.733c-.636,1.108-3.341,2.526-3.341,2.526l-.2-.586Z" transform="translate(-1389.807 -670.025)"/><path class="d" d="M1216.166,393.228c0,3.24-3.056,5.958-4.005,8.883-.985,3.03-.142,7.019-1.978,9.542-1.853,2.549-5.921,2.972-8.468,4.825-2.523,1.836-4.172,5.583-7.2,6.568-2.925.949-6.449-1.082-9.693-1.082s-6.764,2.031-9.693,1.082c-3.031-.985-4.574-5.119-7.1-6.953-2.547-1.853-6.719-1.892-8.574-4.44-1.836-2.523-1-6.511-1.978-9.542-.949-2.925-4.005-5.643-4.005-8.883s3.056-5.958,4.005-8.883c.985-3.03.142-7.02,1.978-9.542,1.853-2.549,5.921-2.972,8.469-4.826,2.523-1.834,4.172-5.582,7.2-6.567,2.925-.949,6.448,1.082,9.693,1.082s6.764-2.031,9.693-1.082c3.03.985,4.68,4.732,7.2,6.567,2.547,1.853,6.614,2.281,8.468,4.826,1.836,2.522,1,6.511,1.978,9.542C1213.109,387.27,1216.166,389.988,1216.166,393.228Z" transform="translate(-1066.477 -393.621)"/><circle class="e" cx="24.844" cy="24.844" r="24.844" transform="translate(83.212 -0.393) rotate(-45)"/><path class="f" d="M1431.4,482.68a1.734,1.734,0,0,1-.249.641c-.241.241-.469.49-.686.745.15-.01.3-.014.45-.014a6.379,6.379,0,0,1,3.9,1.22,2.977,2.977,0,0,1,0,5.082,6.831,6.831,0,0,1-7.788.006c-.074.182-.143.365-.224.547a1.393,1.393,0,1,0,1.853,1.752,8.52,8.52,0,0,0,2.265.3c3.706,0,6.7-2.3,6.7-5.147C1437.621,485.1,1434.877,482.868,1431.4,482.68Z" transform="translate(-1300.117 -496.107)"/><path class="f" d="M1244.326,482.68a1.785,1.785,0,0,0,.25.641c.242.241.469.49.686.745-.143-.01-.3-.014-.449-.014a6.379,6.379,0,0,0-3.9,1.22,2.977,2.977,0,0,0,0,5.082,6.831,6.831,0,0,0,7.788.006l.222.547a1.393,1.393,0,1,1-1.853,1.752,8.5,8.5,0,0,1-2.264.3c-3.706,0-6.708-2.3-6.708-5.147C1238.1,485.1,1240.85,482.868,1244.326,482.68Z" transform="translate(-1139.044 -496.107)"/><path class="g" d="M1431.4,482.68a1.734,1.734,0,0,1-.249.641c-.241.241-.469.49-.686.745.15-.01.3-.014.45-.014a6.379,6.379,0,0,1,3.9,1.22,2.977,2.977,0,0,1,0,5.082,6.831,6.831,0,0,1-7.788.006c-.074.182-.143.365-.224.547a1.393,1.393,0,1,0,1.853,1.752,8.52,8.52,0,0,0,2.265.3c3.706,0,6.7-2.3,6.7-5.147C1437.621,485.1,1434.877,482.868,1431.4,482.68Z" transform="translate(-1300.117 -496.107)"/><path class="g" d="M1244.326,482.68a1.785,1.785,0,0,0,.25.641c.242.241.469.49.686.745-.143-.01-.3-.014-.449-.014a6.379,6.379,0,0,0-3.9,1.22,2.977,2.977,0,0,0,0,5.082,6.831,6.831,0,0,0,7.788.006l.222.547a1.393,1.393,0,1,1-1.853,1.752,8.5,8.5,0,0,1-2.264.3c-3.706,0-6.708-2.3-6.708-5.147C1238.1,485.1,1240.85,482.868,1244.326,482.68Z" transform="translate(-1139.044 -496.107)"/><path class="d" d="M1307.126,475.684v1.425a11.634,11.634,0,0,1-11.631,11.633h-3.127a11.669,11.669,0,0,1-2.01-.174,11.4,11.4,0,0,1-1.953-.519c-.24-.086-.476-.181-.713-.285a11.627,11.627,0,0,1-3.458-2.336c-.143-.143-.285-.285-.413-.428q-.367-.393-.693-.821a11.582,11.582,0,0,1-2.4-7.074V475.68Z" transform="translate(-1175.597 -490.104)"/><path class="h" d="M1312.989,475.71l-4.191,12.078a11.628,11.628,0,0,1-3.458-2.336l3.372-9.741Z" transform="translate(-1196.699 -490.13)"/><path class="h" d="M1340.993,475.71l-4.469,12.88a11.4,11.4,0,0,1-1.954-.519l4.288-12.361Z" transform="translate(-1221.762 -490.13)"/><path class="h" d="M1301.5,475.71l-3.233,9.317q-.366-.393-.693-.821l2.948-8.5Z" transform="translate(-1190.036 -490.13)"/><path class="d" d="M1303.443,470.06h-24.021c-.877,0-1.591.487-1.642,1.1h27.305C1305.037,470.547,1304.324,470.06,1303.443,470.06Z" transform="translate(-1173.068 -485.286)"/><path class="d" d="M798.87,201.74l1.358,6.977h5.944l1.683-6.977Z" transform="translate(-684.998 -203.447)"/><path class="g" d="M807.856,201.75l-.379,1.574h-8.3l-.306-1.574Z" transform="translate(-684.998 -203.455)"/><path class="d" d="M807.856,269.277H798.87l.674-3.464.684-3.514h5.944l.848,3.514Z" transform="translate(-684.998 -255.375)"/><path class="g" d="M807.856,290.414H798.87l.674-3.464h7.476Z" transform="translate(-684.998 -276.511)"/><rect class="h" width="9.311" height="1.653" rx="0.827" transform="translate(113.547 5.271)"/><path class="d" d="M781.382,291.95h11.006a1.554,1.554,0,0,1,1.554,1.554v.724H779.83V293.5A1.555,1.555,0,0,1,781.382,291.95Z" transform="translate(-668.672 -280.798)"/><path class="d" d="M1313.712,671.947v.693H1290.27v-.693a1.445,1.445,0,0,1,1.447-1.447h20.549a1.445,1.445,0,0,1,1.447,1.447Z" transform="translate(-1183.777 -657.154)"/><path class="h" d="M775.471,307.34l-.743,2.14h-.978l.741-2.14Z" transform="translate(-663.458 -293.994)"/><path class="h" d="M765.632,307.34l-.743,2.14h-.979l.743-2.14Z" transform="translate(-655.021 -293.994)"/><path class="h" d="M784.2,307.34l-.741,2.14h-.979l.743-2.14Z" transform="translate(-670.944 -293.994)"/><path class="d" d="M1335.478,555.66v.523a1.639,1.639,0,0,1-1.638,1.639h-11.831a1.639,1.639,0,0,1-1.639-1.639v-.523Z" transform="translate(-1209.587 -558.684)"/><path class="i" d="M1335.451,559.33a1.655,1.655,0,0,1-1.185,1.611,1.783,1.783,0,0,1-.534.068h-.53l-1.062.01-4.245.017-4.245-.017-1.062-.01h-.53a1.782,1.782,0,0,1-.534-.068,1.655,1.655,0,0,1-1.185-1.611,1.657,1.657,0,0,0,.349.976,1.6,1.6,0,0,0,.855.57,1.736,1.736,0,0,0,.516.057h.53l1.062-.01,4.245-.017,4.245.017,1.062.01h.53a1.785,1.785,0,0,0,.516-.056,1.6,1.6,0,0,0,.855-.57A1.656,1.656,0,0,0,1335.451,559.33Z" transform="translate(-1209.56 -561.831)"/><path class="b" d="M1522.588,694.462c-1.234.939.093,8.091.093,8.091l1.615-4.665a.949.949,0,0,1-.855-.552C1522.846,696.161,1523.4,693.845,1522.588,694.462Z" transform="translate(-1382.529 -677.613)"/><path class="j" d="M543.17,1714.766h0a1.146,1.146,0,0,0,1.045,1.224H804.476a1.149,1.149,0,0,0,1.043-1.224h0a1.145,1.145,0,0,0-1.043-1.226H544.215A1.146,1.146,0,0,0,543.17,1714.766Z" transform="translate(-543.17 -1551.518)"/><path class="k" d="M2175.476,1301.6s1.226,15.394,1.226,16.736-5.217,1.71-5.217,1.71l-1.595-15.8Z" transform="translate(-1938.015 -1198.296)"/><path class="l" d="M2154.49,1270.06s3.384-1.853,6.175-.154,3.551,11.63,3.551,11.63l-8.939,1.09Z" transform="translate(-1924.81 -1170.505)"/><path class="m" d="M2080.263,1280.51a6.584,6.584,0,0,0-2.533,2.708c-.808,1.582-2.941,8.2-2.941,8.2l3.511,1.31Z" transform="translate(-1856.47 -1180.213)"/><path class="b" d="M2192.686,1662.736a10.079,10.079,0,0,0,1.038,2.566c.459.475,1.979,2.281,1.605,3.177s-9.639,2.187-9.991,1.829,1.6-1.874,2.708-2.8,1.9-2.073,1.435-3.458a8.487,8.487,0,0,1-.463-1.385A32.781,32.781,0,0,1,2192.686,1662.736Z" transform="translate(-1951.225 -1507.852)"/><path class="g" d="M2185.146,1685.713c-.4-.344.882-1.752,2.77-2.851a11.758,11.758,0,0,0,2.734-.285,5.8,5.8,0,0,0,2.785-1.987c.029.041,2.281,2.244,1.836,3.3C2194.9,1684.782,2185.544,1686.052,2185.146,1685.713Z" transform="translate(-1951.033 -1523.265)"/><path class="b" d="M2079.159,1665.022a7.76,7.76,0,0,0,.177,2.708c.348.56,1.568,2.77.885,3.459-.61.621-9.1.222-9.364-.205s1.186-1.71,2.464-2.365,2.3-1.6,2.138-3.055a7.926,7.926,0,0,1-.155-1.455A38.513,38.513,0,0,1,2079.159,1665.022Z" transform="translate(-1853.071 -1509.124)"/><path class="g" d="M2063.271,1692.334c-.442-.285,1.514-2.088,3.591-2.745a11.853,11.853,0,0,0,2.729.332,5.732,5.732,0,0,0,3.145-1.321c.019.047,1.953,2.9,1.086,3.626C2073.145,1692.791,2063.944,1692.769,2063.271,1692.334Z" transform="translate(-1846.539 -1530.133)"/><path class="c" d="M2125,1454.356l5.479,16.17,6.285,14.967,5.266-1.347s-1.9-10.375-3.685-13.635c-1.351-2.466-2.294-16.62-2.294-16.62Z" transform="translate(-1899.523 -1328.879)"/><path class="g" d="M2096.575,1437.49l-1.9,28.417h-4.487s-1.96-29.773-1.241-32.6,8.192-2.194,8.192-2.194Z" transform="translate(-1868.474 -1309.292)"/><path class="n" d="M2089.758,1270.549s5.783-1.765,6.674-1.651a16.166,16.166,0,0,1,3.343,1.4s-.143,10.223.274,13.114,3.35,12.152,3.35,12.152-4.134,2.438-11.067,1.645-6.461-2.5-6.461-2.5.658-10.236,1.317-14.745A50.817,50.817,0,0,1,2089.758,1270.549Z" transform="translate(-1865.964 -1170.251)"/><path class="d" d="M2186.628,1151.783a1.692,1.692,0,0,1-1.169,1.943c-1.474.506-2.388-4.772-3.226-5.816a3.041,3.041,0,0,0-4.7.755,8.823,8.823,0,0,0-1.01,1.853c-.047.177.02.165.02.165l.4.76a1.127,1.127,0,0,1,1.76.653c.478,1.444-.939,3.8.285,5.763s3.454.57,3.454.57c1.853,1.269,3.991-.668,4.674-2.5S2186.628,1151.783,2186.628,1151.783Z" transform="translate(-1943.685 -1065.827)"/><path class="b" d="M2123.646,1231.16l.2,2.121,1.865,3.263s-3.675,4.53-4.809,3.448a42.232,42.232,0,0,1-.892-5.036Z" transform="translate(-1895.244 -1137.897)"/><path class="o" d="M2123.847,1233.241l.391.724a13.528,13.528,0,0,1-4,2.531c-.13-.879-.224-1.581-.224-1.581l3.636-3.8Z" transform="translate(-1895.244 -1137.863)"/><path class="b" d="M2104.944,1182.164a13.246,13.246,0,0,0-1.329,1.4c-2.124,3.015-.4,8.959.713,9.452,1.679.748,3.864-.258,6.327-1.958s3.241-4.456.987-6.851S2104.944,1182.164,2104.944,1182.164Z" transform="translate(-1880.322 -1095.87)"/><path class="d" d="M2118.179,1170.308l-.671-.654c-2.632,0-4.728-1.616-7.682.009-1.948,1.072-1.147,2.58-1.147,2.58,7.217,0,4.613,5.792,5.5,8.1S2120.578,1177.659,2118.179,1170.308Z" transform="translate(-1885.389 -1084.544)"/><path class="b" d="M2140.389,1214.839s.1-1.9,1.247-1.525.252,3.241-.7,3.136S2140.389,1214.839,2140.389,1214.839Z" transform="translate(-1912.647 -1122.552)"/><path class="m" d="M2167.852,1168.49s-1.086.687-1.525.63.672,1.391,1.26,1.541.38-.428.5-.624.582-.044.687-.19C2169.02,1169.515,2168.367,1168.554,2167.852,1168.49Z" transform="translate(-1934.873 -1084.16)"/><path class="k" d="M2147.467,1270.555s-1.3-.2-2.416,4.1c-1.266,4.872.1,9.918,2.188,11.2s2.955,1.032,2.955,1.032l.221,3s-6.731-1.408-7.572-6.789c-1.38-8.818,2.69-13.359,2.69-13.359a4.922,4.922,0,0,1,1,.222A7.481,7.481,0,0,1,2147.467,1270.555Z" transform="translate(-1914.578 -1170.978)"/><path class="d" d="M1961.71,1272.782a.65.65,0,0,0,.526.449,9.1,9.1,0,0,1,3.772,2.214l-1.09,5.881a8.823,8.823,0,0,1-4.289.582.627.627,0,0,0-.649.211l-2.943,3.564a.7.7,0,0,0-.107.7,10.182,10.182,0,0,1,.053,4.54l-5.394,1.954a9.615,9.615,0,0,1-2.619-3.608.655.655,0,0,0-.5-.485l-4.4-.891a.631.631,0,0,0-.634.255,9.231,9.231,0,0,1-3.717,2.326l-4.3-3.923a9.941,9.941,0,0,1,1.672-4.189.7.7,0,0,0,.151-.7l-1.459-4.449a.646.646,0,0,0-.526-.449,9.1,9.1,0,0,1-3.772-2.214l1.091-5.881a8.822,8.822,0,0,1,4.289-.583.624.624,0,0,0,.648-.211l2.944-3.563a.7.7,0,0,0,.107-.7,10.154,10.154,0,0,1-.053-4.538l5.394-1.958a9.6,9.6,0,0,1,2.619,3.608.654.654,0,0,0,.5.483l4.4.891a.629.629,0,0,0,.634-.255,9.211,9.211,0,0,1,3.718-2.325l4.3,3.921a9.944,9.944,0,0,1-1.672,4.191.7.7,0,0,0-.151.7Z" transform="translate(-1733.588 -1160.157)"/><path class="e" d="M1983.018,1325.17a11.413,11.413,0,0,1-8.785-13.422,11.225,11.225,0,0,1,13.179-8.947,11.416,11.416,0,0,1,8.785,13.423A11.22,11.22,0,0,1,1983.018,1325.17Z" transform="translate(-1770.059 -1199.135)"/><path class="b" d="M2069.838,1342.008l-2.463,5.769c-.428,1-4.468,7.314-6.852,9.031s-5.378,3.485-5.831,3.461-1.535.143-1.783-.493-.683-.59-1.129-1.075.519-1.01,1.621-1.452,1.345-.556,1.273-.744-1,.265-1.283,0,.75-1.2,1.785-1.226,2.747-.224,3.059-.594.262-.261.31-.372,3.9-6.444,4.466-7.767,2.784-5.455,2.784-5.455Z" transform="translate(-1836.644 -1232.157)"/><path class="m" d="M2149.675,1275.108a4.85,4.85,0,0,1,1.568,3.759c0,1.863-.453,6.322-1.642,8.5,0,0-5.642-1.655-5.548-1.879s1.085-6.671,2.757-8.964C2148.265,1274.52,2148.855,1274.614,2149.675,1275.108Z" transform="translate(-1915.859 -1175.324)"/><path class="p" d="M1363.312,851.513a2.579,2.579,0,0,0-4.326.547,1.916,1.916,0,0,0-2.527.651s-2.684-.808-3.335,3.206c0,0-1.381-.261-1.568,1.381a4.062,4.062,0,0,0,.651,2.735s-.777.582-.428,2.091a1.87,1.87,0,0,0,1.361,1.48s.285,2.162,1.225,2.814a3.061,3.061,0,0,0,2.215.339,1.445,1.445,0,0,0,1.434,1.068c1.095-.105,2.449-1.14,3.673-.677s4.4-.026,4.4-.026,3.564-1.589,2.5-5.238a2.668,2.668,0,0,0,.234-3.726s1.2-3.179-1.172-5.056A6.161,6.161,0,0,0,1363.312,851.513Z" transform="translate(-1236.301 -811.527)"/><path class="b" d="M1196.913,1478.7a36.066,36.066,0,0,1-4.819-.81c-.686-.336-4.154,2.978-3.465,4.64.388.937,1.614.817,1.614.817l1-.966,5.244,1.092Z" transform="translate(-1096.547 -1349.434)"/><path class="b" d="M1395.328,1605.9a35.978,35.978,0,0,1-2.771,4.023c-.594.478.939,5.025,2.737,5.1,1.013.046,1.425-1.116,1.425-1.116l-.458-1.307,3.21-4.291Z" transform="translate(-1271.373 -1459.221)"/><path class="p" d="M1369.074,1633.15a27.6,27.6,0,0,0,1.933,2.229,22.981,22.981,0,0,0,2.008,1.619s1.283,2.319,1.626,3.127c.777,1.8,1.649,3.809,1.524,4.816-.04.324-.767.666-1.374.48-2.522-.775-8.973-6.677-9.787-8.267C1364.065,1635.335,1369.074,1633.15,1369.074,1633.15Z" transform="translate(-1247.758 -1482.587)"/><path class="g" d="M1414.781,1243.293c-.234-.656-.459-1.263-.676-1.833-2.684.586-5.715,1.23-8.838,1.894l-.38,11.428c0-.882,2.345,18.227,2.345,18.227s-6.369,12.651-10.512,20.468a16.826,16.826,0,0,0,5.469,4.5c6.433-7.711,14.652-21.3,15-23.647C1417.4,1272.976,1417.578,1251.161,1414.781,1243.293Z" transform="translate(-1275.053 -1146.729)"/><path class="c" d="M1245.2,1257.984c.73,7.922,1.936,19.914,2.157,23.947-5.122.738-17.222,4.377-19.478,4.375a9.14,9.14,0,0,0-.734,6.142c.117.376,23.87,1.14,30-2.78,1.6-1.021,2.093-11.962,2.117-23.5l.381-11.428C1254.451,1255.849,1249.674,1256.935,1245.2,1257.984Z" transform="translate(-1129.425 -1158.116)"/><path class="e" d="M1368.353,992.75l-5.83.878s-4.393.068-5.559.08c-.1,0-4.674,22.306-5.786,30.7s-.251,9.88-.251,9.88,7.753,1.745,13.489,1.236c5.964-.529,12.675-3.749,12.675-3.749s-5.774-16.02-6.785-21.058S1368.353,992.75,1368.353,992.75Z" transform="translate(-1235.516 -933.47)"/><path class="q" d="M1451.943,770.012s-.512,20.669-1.14,21.936c-.912,1.853-7.432,15.042-7.432,15.042s4.9,20.526,6.966,27.613c.208.713,1.127,5.325,1.127,5.774,0,1-4.339,2.262-4.855,2.187-.46-.067-4.246-19.591-6.664-29.146a27.326,27.326,0,0,0-4.145-9.027L1434.12,802l9.961-12.056s2.159-19.079,2.159-20.277C1446.24,769.363,1451.318,768.839,1451.943,770.012Z" transform="translate(-1307.122 -741.858)"/><path class="q" d="M1253.752,808.858l-9.978-15.052s-6.479-15.814-6.637-16.392-5.25.083-6.859-.074c-.516-.05,5.724,16.655,6.494,19.43.911,3.278,6.842,16.055,6.842,16.055s3.365,7.682,2.841,13.617c-.872,9.857-2.6,24.062-2.181,24.489,2.614,1.646,10.84,1.586,11.476.57C1262.756,840.195,1253.752,808.858,1253.752,808.858Z" transform="translate(-1132.31 -748.621)"/><path class="b" d="M1400.227,947.282l.428,3.219s.972,4.64-.285,5.533-5.32-5.666-5.32-5.666l.428-8.158Z" transform="translate(-1273.622 -890.134)"/><path class="c" d="M1397.18,944.854a9.258,9.258,0,0,0,5.241,5.157l-.368-2.73-4.734-5.072Z" transform="translate(-1275.448 -890.134)"/><path class="p" d="M1351.46,889.779c0,1.243.713,2.249,1.578,2.249s1.578-1.006,1.578-2.249-.706-2.249-1.578-2.249S1351.46,888.536,1351.46,889.779Z" transform="translate(-1236.245 -843.249)"/><path class="p" d="M1384.68,861.6c0,.713.855,1.293,1.92,1.293s1.92-.579,1.92-1.293-.855-1.293-1.92-1.293S1384.68,860.889,1384.68,861.6Z" transform="translate(-1264.73 -819.909)"/><path class="b" d="M1393.115,880.715a4.3,4.3,0,0,1,5.632,3.421,32.573,32.573,0,0,1,.349,4.134c.068,3.762-1.879,7.421-3.586,7.421s-6.427-2.435-6.6-7.773C1388.806,884.627,1390.452,881.632,1393.115,880.715Z" transform="translate(-1268.354 -837.211)"/><path class="b" d="M1383,926.562a1.253,1.253,0,1,1-1.229-1.5A1.387,1.387,0,0,1,1383,926.562Z" transform="translate(-1261.18 -875.429)"/><path class="p" d="M1437.328,862.077c1.765,1.4,2.382,3.521,1.381,4.742s-3.243,1.079-5.008-.318-2.382-3.521-1.38-4.742S1435.57,860.673,1437.328,862.077Z" transform="translate(-1305.169 -820.437)"/><path class="p" d="M1418.278,870.389c0,.607-.733,1.1-1.638,1.1s-1.641-.493-1.641-1.1.734-1.1,1.638-1.1S1418.278,869.78,1418.278,870.389Z" transform="translate(-1290.728 -827.609)"/><path class="p" d="M1455.347,901.273a1.4,1.4,0,1,1-1.4-1.413A1.4,1.4,0,0,1,1455.347,901.273Z" transform="translate(-1322.926 -853.821)"/><path class="p" d="M1160.577,1463.933a27.437,27.437,0,0,0-1.2,2.694,23.006,23.006,0,0,0-.617,2.506s-1.568,2.138-2.138,2.8c-1.3,1.467-2.9,3.2-3.866,3.514-.309.1-1.192-.164-1.183-.855.033-2.638,2.566-11.244,3.656-12.652C1156.477,1460.32,1160.577,1463.933,1160.577,1463.933Z" transform="translate(-1064.847 -1335.421)"/><path class="d" d="M749.786,928.4a6.387,6.387,0,0,0-6.3,6.565,6.538,6.538,0,0,0,6.443,6.548,6.392,6.392,0,0,0,6.3-6.565A6.541,6.541,0,0,0,749.786,928.4Z" transform="translate(-714.933 -878.293)"/><path class="d" d="M722.994,895.887a6.935,6.935,0,0,0-3.136-1.059.49.49,0,0,1-.458-.25l-1.74-3.04a.519.519,0,0,1,.011-.532,7.365,7.365,0,0,0,.631-3.317l-3.784-2.229a7.033,7.033,0,0,0-2.43,2.258.485.485,0,0,1-.436.285H708.24a.5.5,0,0,1-.442-.285,7.2,7.2,0,0,0-2.48-2.252l-3.736,2.239a7.461,7.461,0,0,0,.706,3.315.52.52,0,0,1,.023.532l-1.673,3.05a.48.48,0,0,1-.453.251,6.838,6.838,0,0,0-3.113,1.066l.05,4.469a6.943,6.943,0,0,0,3.136,1.059.493.493,0,0,1,.459.249l1.739,3.04a.514.514,0,0,1-.011.532,7.364,7.364,0,0,0-.632,3.317l3.784,2.229a6.949,6.949,0,0,0,2.423-2.258.486.486,0,0,1,.436-.285h3.412a.494.494,0,0,1,.442.285,7.188,7.188,0,0,0,2.482,2.252l3.735-2.239a7.461,7.461,0,0,0-.706-3.315.52.52,0,0,1-.021-.532l1.672-3.045a.482.482,0,0,1,.453-.251,6.832,6.832,0,0,0,3.113-1.066Zm-12.847,10.387a8.12,8.12,0,0,1-7.994-8.125A7.93,7.93,0,0,1,709.967,890a8.117,8.117,0,0,1,7.994,8.125A7.93,7.93,0,0,1,710.147,906.274Z" transform="translate(-675.133 -841.474)"/><path class="d" d="M1984.25,903.975a6.688,6.688,0,0,0-3.036-1.023.482.482,0,0,1-.445-.242l-1.685-2.943a.5.5,0,0,1,.01-.515,7.125,7.125,0,0,0,.611-3.211l-3.663-2.159a6.763,6.763,0,0,0-2.354,2.187.47.47,0,0,1-.428.272h-3.3a.48.48,0,0,1-.428-.272,6.93,6.93,0,0,0-2.4-2.178l-3.616,2.167a7.212,7.212,0,0,0,.683,3.21.507.507,0,0,1,.023.516l-1.615,2.954a.465.465,0,0,1-.438.244,6.6,6.6,0,0,0-3.015,1.032l.048,4.328a6.659,6.659,0,0,0,3.036,1.023.477.477,0,0,1,.443.242l1.685,2.943a.5.5,0,0,1-.011.515,7.142,7.142,0,0,0-.612,3.211l3.663,2.159a6.778,6.778,0,0,0,2.355-2.187.469.469,0,0,1,.428-.272h3.3a.479.479,0,0,1,.427.272,6.974,6.974,0,0,0,2.4,2.18l3.616-2.168a7.214,7.214,0,0,0-.683-3.21.5.5,0,0,1-.021-.515l1.619-2.948a.468.468,0,0,1,.439-.244,6.6,6.6,0,0,0,3.013-1.032Zm-12.435,10.058a7.86,7.86,0,0,1-7.74-7.868,7.68,7.68,0,0,1,7.566-7.887,7.856,7.856,0,0,1,7.74,7.868A7.682,7.682,0,0,1,1971.815,914.033Z" transform="translate(-1757.314 -848.693)"/><path class="n" d="M1669.868,686.8a4.037,4.037,0,0,0-3.979,4.148,4.13,4.13,0,0,0,4.071,4.134,4.04,4.04,0,0,0,3.98-4.148A4.126,4.126,0,0,0,1669.868,686.8Z" transform="translate(-1505.854 -671.131)"/><path class="n" d="M1652.9,666.248a4.329,4.329,0,0,0-1.981-.668.308.308,0,0,1-.285-.158l-1.1-1.92a.327.327,0,0,1,0-.336,4.663,4.663,0,0,0,.4-2.1l-2.392-1.41a4.46,4.46,0,0,0-1.537,1.425.3.3,0,0,1-.275.178h-2.157a.317.317,0,0,1-.285-.178,4.58,4.58,0,0,0-1.568-1.425l-2.361,1.414a4.714,4.714,0,0,0,.445,2.1.328.328,0,0,1,.016.336l-1.058,1.923a.305.305,0,0,1-.285.16,4.329,4.329,0,0,0-1.967.673l.031,2.824a4.335,4.335,0,0,0,1.981.668.314.314,0,0,1,.285.158l1.1,1.921a.325.325,0,0,1,0,.335,4.647,4.647,0,0,0-.4,2.1l2.39,1.408a4.459,4.459,0,0,0,1.537-1.425.305.305,0,0,1,.275-.177h2.157a.314.314,0,0,1,.285.177,4.569,4.569,0,0,0,1.568,1.425l2.361-1.415a4.725,4.725,0,0,0-.445-2.1.322.322,0,0,1-.014-.335l1.056-1.924a.308.308,0,0,1,.285-.158,4.348,4.348,0,0,0,1.967-.674Zm-8.125,6.557a5.131,5.131,0,0,1-5.052-5.131,5.014,5.014,0,0,1,4.939-5.149,5.128,5.128,0,0,1,5.05,5.131,5.015,5.015,0,0,1-4.931,5.156Z" transform="translate(-1480.663 -647.86)"/><path class="d" d="M949.732,712.125a.684.684,0,0,1-.546-.478L947.761,707a.713.713,0,0,1,.177-.713,10.239,10.239,0,0,0,1.865-4.3l-4.447-4.169a9.7,9.7,0,0,0-3.978,2.319.673.673,0,0,1-.676.248l-4.624-1.031a.691.691,0,0,1-.513-.515,9.967,9.967,0,0,0-2.674-3.8l-5.74,1.9a10.335,10.335,0,0,0-.053,4.7.713.713,0,0,1-.13.727l-3.2,3.609a.667.667,0,0,1-.69.2,9.465,9.465,0,0,0-4.539.5l-1.293,6.065a9.574,9.574,0,0,0,3.924,2.389.683.683,0,0,1,.544.479l1.425,4.645a.713.713,0,0,1-.177.713,10.225,10.225,0,0,0-1.864,4.3l4.447,4.169a9.7,9.7,0,0,0,3.978-2.318.67.67,0,0,1,.676-.248l4.623,1.031a.683.683,0,0,1,.513.513,9.992,9.992,0,0,0,2.676,3.8l5.739-1.9a10.334,10.334,0,0,0,.054-4.7.713.713,0,0,1,.13-.727l3.192-3.615a.668.668,0,0,1,.69-.2,9.465,9.465,0,0,0,4.539-.5l1.293-6.067A9.578,9.578,0,0,0,949.732,712.125Z" transform="translate(-863.928 -678.197)"/><path class="e" d="M969.407,764.377a12.116,12.116,0,1,1,14.477-9.17A12.116,12.116,0,0,1,969.407,764.377Z" transform="translate(-900.535 -717.122)"/><path class="d" d="M996.006,776.073l-.781-5.368,3.98-3.686a.744.744,0,0,0-.379-1.283l-5.347-.918-2.281-4.925a.745.745,0,0,0-1.336-.034l-2.52,4.811-5.387.641a.745.745,0,0,0-.446,1.26l3.787,3.886-1.055,5.321a.746.746,0,0,0,1.062.814l4.865-2.4,4.735,2.647a.746.746,0,0,0,1.1-.766Z" transform="translate(-918.847 -733.435)"/><path class="b" d="M1702.671,1100.854s-2.958-5.515-3.37-7.291.111-9.123.219-9.708,2.246-2,1.976-2.479-2.982-1.115-3.451-1.068-1.757-.3-1.757.219c0,.55.669,2.291.619,2.624-.344,2.281-2.328,9.442-2.082,11.452.285,2.311,4.494,10,4.494,10Z" transform="translate(-1530.648 -1008.486)"/><path class="r" d="M1761.173,1140.219c1.32,2.355.744,7.012-.355,8.51s-3.706,1.97-3.706,1.97l-3.836,1.179a30.513,30.513,0,0,1-3.522-6.218,6.221,6.221,0,0,1,0-3.508c.446-2.55,1.1-3.87,3.887-4.176C1756.337,1137.677,1759.575,1137.371,1761.173,1140.219Z" transform="translate(-1577.559 -1057.836)"/><path class="b" d="M1745.28,1188.542c.134.855.724,1.48,1.321,1.393s.971-.855.837-1.711-.724-1.479-1.32-1.393S1745.147,1187.687,1745.28,1188.542Z" transform="translate(-1573.906 -1099.88)"/><path class="b" d="M1819.994,1580.515a10.062,10.062,0,0,0,2.2,2.033,67.969,67.969,0,0,1-6.557,5.786s-.631-.654-.348-1.254,1.669-4.316,1.042-5.538a28.853,28.853,0,0,0-2.415-4.005,38.175,38.175,0,0,0,4.062-1.756C1818.809,1577.469,1819.868,1580.27,1819.994,1580.515Z" transform="translate(-1632.785 -1433.394)"/><path class="p" d="M1827.233,1612.1s-3.668,3.9-4.376,4.321c-.57.338-1.336,4.48-.508,4.6s7.02-6.192,7.2-7.052S1827.233,1612.1,1827.233,1612.1Z" transform="translate(-1639.701 -1464.537)"/><path class="b" d="M1693.826,1519.211a10.638,10.638,0,0,0,2.378,1.89,65.81,65.81,0,0,1-6.017,6.181s-.688-.613-.459-1.23,1.283-4.407.546-5.588a30.023,30.023,0,0,0-2.764-3.849,38.356,38.356,0,0,0,3.9-2.005C1692.372,1516.248,1693.678,1518.975,1693.826,1519.211Z" transform="translate(-1524.394 -1380.944)"/><path class="p" d="M1705.668,1552.05s-3.628,3.876-4.335,4.295c-.57.341-1.316,4.484-.485,4.6s7.3-5.769,7.478-6.628S1705.668,1552.05,1705.668,1552.05Z" transform="translate(-1535.513 -1413.047)"/><path class="s" d="M1665.62,1382.86s-12.916,5.551-13.876,9.754c-.52,2.281,6.05,14.3,6.05,14.3l5.132-2.138a48.772,48.772,0,0,0-2.423-7.337c-.624-1.351-1.045-2.138-1.045-2.138,1.055-.885,13.2-4.55,13.2-4.55l-2.171-7.188Z" transform="translate(-1493.7 -1267.973)"/><path class="k" d="M1774.107,1382.86s1.041,1.646-.865,6.042c-1.25,2.882-5.2,11.311-5.1,11.479,2.8,4.732,6.48,11.767,6.48,11.767l-6.069,2.962c-.088.153-7.71-10.247-8.007-13.4-.228-2.41,1.8-18.315,1.8-18.315Z" transform="translate(-1587.001 -1267.973)"/><path class="b" d="M1848.709,1093.745a60.745,60.745,0,0,0,4.4-7.521,4.223,4.223,0,0,1,.513-2.361c.45-.941.507-2.812,1.045-2.44s-.16,2.047.316,1.92,2.162-3.524,2.65-3.186-1.308,3.444-.882,3.331,1.766-3.12,2.456-2.643-1.89,3.4-1.52,3.652,1.95-1.625,2.5-1.24-2.281,2.467-2.024,2.4,2.041-.627,2.138-.274c.116.4-4.3,2.328-4.692,3.187h0c-.713,2.3-1.961,6.489-3.73,8.672-2.164,2.673-6.927,8.59-6.927,8.59l-4.339-3.278S1847.315,1095.35,1848.709,1093.745Z" transform="translate(-1655.679 -1008.399)"/><path class="o" d="M1942.9,1108.74a1.971,1.971,0,0,1,.371.713,2.028,2.028,0,0,1-.221,1.693A3.429,3.429,0,0,0,1942.9,1108.74Z" transform="translate(-1743.38 -1032.927)"/><path class="d" d="M1729.665,1205.3s4.636,4.061,4.6,4.157c-.248.723-5.013,3.9-5.013,5.821,0,2.182,1.514,16.994,1.514,16.994a22.152,22.152,0,0,1-9.291.607,22.892,22.892,0,0,1-8.625-3.151s.314-4.028.314-7.751a44.493,44.493,0,0,0-.57-6.929l-3.9-8.744,4.846-2.673s3.357,6.447,4.245,6.447a42.122,42.122,0,0,0,5.388-.436Z" transform="translate(-1542.563 -1114.291)"/><path class="b" d="M1770.042,1216.921s.57,4.057-.643,5.154c-1.283,1.157,4.647.839,5.066-1.075.227-1.035-.584-5.6-.584-5.6Z" transform="translate(-1594.455 -1124.383)"/><path class="o" d="M1778.834,1215.4l-3.834,1.521a16.456,16.456,0,0,1,.142,2.138,4.971,4.971,0,0,0,3.159-.713,6.481,6.481,0,0,0,.908-.623C1779.027,1216.483,1778.834,1215.4,1778.834,1215.4Z" transform="translate(-1599.413 -1124.383)"/><path class="b" d="M1756.926,1154.891a5.274,5.274,0,0,1,2.879,2.178c1.066,1.71,1.654,6.668-2.151,8.838s-6.575-1.19-6.5-4.365S1752.677,1154.308,1756.926,1154.891Z" transform="translate(-1578.963 -1072.451)"/><path class="b" d="M1756.926,1154.891a5.274,5.274,0,0,1,2.879,2.178c1.066,1.71,1.654,6.668-2.151,8.838s-6.575-1.19-6.5-4.365S1752.677,1154.308,1756.926,1154.891Z" transform="translate(-1578.963 -1072.451)"/><path class="b" d="M1810.3,1194.479c-.3.815-.085,1.636.482,1.833s1.271-.3,1.568-1.117.084-1.636-.483-1.834S1810.6,1193.663,1810.3,1194.479Z" transform="translate(-1629.567 -1105.448)"/><path class="l" d="M1631.911,876.551a.665.665,0,0,0,.54.452,9.37,9.37,0,0,1,3.867,2.229l-1.118,5.923a9.192,9.192,0,0,1-4.4.586.651.651,0,0,0-.666.214l-3.018,3.582a.7.7,0,0,0-.111.713,10.011,10.011,0,0,1,.054,4.571l-5.532,1.973a9.745,9.745,0,0,1-2.685-3.633.666.666,0,0,0-.509-.487l-4.514-.9a.654.654,0,0,0-.651.257,9.415,9.415,0,0,1-3.813,2.342l-4.419-3.95a10.079,10.079,0,0,1,1.71-4.219.7.7,0,0,0,.154-.7l-1.5-4.48a.667.667,0,0,0-.54-.453,9.355,9.355,0,0,1-3.867-2.229l1.118-5.923a9.208,9.208,0,0,1,4.4-.586.65.65,0,0,0,.666-.212l3.018-3.583a.7.7,0,0,0,.111-.713,10.012,10.012,0,0,1-.056-4.571l5.532-1.973a9.746,9.746,0,0,1,2.686,3.633.667.667,0,0,0,.51.487l4.514.9a.647.647,0,0,0,.65-.257,9.434,9.434,0,0,1,3.813-2.342l4.419,3.95a10.062,10.062,0,0,1-1.711,4.219.7.7,0,0,0-.148.7Z" transform="translate(-1450.129 -820.312)"/><path class="e" d="M1651.028,929.244a11.487,11.487,0,1,1,13.517-9.01A11.487,11.487,0,0,1,1651.028,929.244Z" transform="translate(-1485.192 -859.506)"/><path class="e" d="M1700.844,946.341a1.233,1.233,0,0,1,.448.472l.5-.831-1.071-.651-.506.832A1.218,1.218,0,0,1,1700.844,946.341Z" transform="translate(-1535.292 -892.81)"/><path class="e" d="M1686.661,949.592a1.229,1.229,0,0,1,.472-.446l-.831-.506-.651,1.07.833.506A1.217,1.217,0,0,1,1686.661,949.592Z" transform="translate(-1522.799 -895.648)"/><path class="e" d="M1689.947,964.342a1.225,1.225,0,0,1-.448-.472l-.5.831,1.071.651.506-.831A1.232,1.232,0,0,1,1689.947,964.342Z" transform="translate(-1525.671 -908.707)"/><path class="e" d="M1704.841,959.9a1.242,1.242,0,0,1-.18.626,1.229,1.229,0,0,1-.472.446l.828.51.651-1.07Z" transform="translate(-1538.696 -905.303)"/><path class="e" d="M1746.635,986.65a1.606,1.606,0,1,1-.539-2.207,1.606,1.606,0,0,1,.539,2.207Z" transform="translate(-1572.536 -926.147)"/><path class="t" d="M825.277,1144.842c-1.3-1.413-4.05-7.291-4.978-8.96a4.719,4.719,0,0,0-.636-2.566c-.516-1.008-.647-3.066-1.207-2.62s.248,2.244-.265,2.138-2.437-3.739-2.945-3.334,1.525,3.706,1.066,3.611-2-3.321-2.708-2.75,2.138,3.616,1.758,3.923-2.138-1.661-2.717-1.2,2.517,2.566,2.246,2.51-2.2-.556-2.292-.16c-.107.448,4.675,2.281,5.123,3.2h0c.855,2.487,2.336,7.017,4.3,9.307,2.408,2.8,9.334,10.565,9.334,10.565l2.876-5.461S826.824,1146.517,825.277,1144.842Z" transform="translate(-774.172 -1050.701)"/><path class="u" d="M848,1159.87a2.388,2.388,0,0,0-.067,2.653A3.92,3.92,0,0,1,848,1159.87Z" transform="translate(-804.177 -1076.769)"/><path class="t" d="M1031.054,1632.544a27.883,27.883,0,0,0,1.155,5.489c.714,1.666,3.072,2.72,5.144,3.136s1.381.735,1.078,1.039-9.285.509-10.87.222c0,0,.609-3.136.609-3.618s-2.479-8.173-2.479-8.173Z" transform="translate(-956.911 -1480.435)"/><path class="c" d="M1038.81,1702.526s.124-.637.26-1.381a43.975,43.975,0,0,0,7.684-.4,12.471,12.471,0,0,0,1.954.418c2.073.409,1.917.953,1.4,1.331A77.722,77.722,0,0,1,1038.81,1702.526Z" transform="translate(-968.161 -1540.542)"/><path class="t" d="M909.938,1630.289s.244,4.7-.26,6.385c-.517,1.739-1.26,2.037-3.3,2.6-2,.556-1.239,1.445-.935,1.749s7.3.324,8.88.037c0,0-.61-3.136-.61-3.618s.74-8.386.74-8.386Z" transform="translate(-853.469 -1479.08)"/><path class="c" d="M901.031,1702.526s-.124-.637-.261-1.381a43.977,43.977,0,0,1-7.684-.4,16.586,16.586,0,0,0-1.853.525c-1.983.726-1.806.921-1.5,1.224S899.445,1702.813,901.031,1702.526Z" transform="translate(-840.172 -1540.542)"/><path class="t" d="M1031,1284.39a3.5,3.5,0,0,1,1.173,1.688c.487,1.26,3.016,11.629,3.383,13.134.285,1.162,2.851,4.573,4.121,6.216.375.485.664.89.847.89,1.118,0,2.972.62,2.972,1.083s-.438.512-1.169.349-.178.63.085.9,1.39,1.772,1,2.169a3.227,3.227,0,0,1-1.8.677,2.491,2.491,0,0,1-1.635-.763c-.758-.619-1.873-1.884-2.69-2.613-2.938-2.623-5.357-8.125-5.8-9.394S1031,1284.39,1031,1284.39Z" transform="translate(-961.464 -1183.539)"/><path class="k" d="M921.716,1473.844a43.874,43.874,0,0,1-10.148,1.283c-5.394,0-16-2.744-16-2.744a77.317,77.317,0,0,0,3.93-12.5c1-5.428,1.738-14.76,1.738-14.76h16.094l1,6.46Z" transform="translate(-845.338 -1321.359)"/><path class="h" d="M945.657,1279.558s1.051,1.22,1.051,5a111.8,111.8,0,0,0,.488,11.4c.3,1.95,1.219,6.8,1.219,6.8s-2.681,2.227-9.63,1.616-7.314-1.545-7.314-1.545.975-15.715.975-17.363,1.491-6.414,1.491-6.414a47.66,47.66,0,0,1,5.844-.274C941.609,1278.925,945.657,1279.558,945.657,1279.558Z" transform="translate(-876.121 -1178.707)"/><path class="j" d="M938.9,1150.24a3.735,3.735,0,0,1,2.681,3.833c-.224,2.77-1.585,2.63-1.585,2.63s1,3.926-2.011,5.065c-2.835,1.073-3.9,0-3.9,0s-1.23,3.26-5.437,2-3.829-3.81-3.829-3.81-1.792.7-3.864-2.589-.889-5.666,1.853-7.127c0,0-.914-4.193,3.278-4.865s5.223,1.632,5.223,1.632.745-2.566,5.211-.8A3.675,3.675,0,0,1,938.9,1150.24Z" transform="translate(-866.206 -1064.232)"/><path class="t" d="M958.37,1216.971c.308.855.087,1.73-.5,1.938s-1.3-.321-1.614-1.183-.087-1.73.5-1.939S958.061,1216.108,958.37,1216.971Z" transform="translate(-897.259 -1124.677)"/><path class="t" d="M1025.27,1219.4c-.143.905-.751,1.568-1.363,1.465s-1-.907-.855-1.81.751-1.568,1.361-1.467S1025.411,1218.494,1025.27,1219.4Z" transform="translate(-954.623 -1126.251)"/><path class="t" d="M976.849,1246.454l-.162,3.564a1.716,1.716,0,0,1-1.524,1.568,2.417,2.417,0,0,1-2.762-2.054c0-.143.713-5.022.713-5.022Z" transform="translate(-911.217 -1149.344)"/><path class="u" d="M976.455,1244.45l3.737,1.953-.057,1.264a4.913,4.913,0,0,1-2.482-.527,3.186,3.186,0,0,1-1.354-1.621C976.39,1244.895,976.455,1244.45,976.455,1244.45Z" transform="translate(-914.561 -1149.293)"/><path class="t" d="M968.154,1176.758a5.327,5.327,0,0,0-2.828,2.293c-1.06,1.787-1.7,6.92,1.971,9.113s6.129-1.327,6.382-4.6C973.98,1179.691,972.3,1176.1,968.154,1176.758Z" transform="translate(-904.444 -1091.182)"/><path class="o" d="M957.535,1297.832a8.4,8.4,0,0,0-3.807-1.283.6.6,0,0,1-.556-.3l-2.113-3.692a.629.629,0,0,1,.014-.646,8.951,8.951,0,0,0,.767-4.03l-4.593-2.708a8.406,8.406,0,0,0-2.951,2.741.591.591,0,0,1-.529.342h-4.142a.6.6,0,0,1-.537-.339,8.713,8.713,0,0,0-3.01-2.734l-4.533,2.72a9.057,9.057,0,0,0,.855,4.027.627.627,0,0,1,.027.644l-2.03,3.693a.586.586,0,0,1-.55.307,8.273,8.273,0,0,0-3.777,1.294l.058,5.428a8.41,8.41,0,0,0,3.807,1.283.6.6,0,0,1,.556.3l2.111,3.692a.629.629,0,0,1-.013.646,8.94,8.94,0,0,0-.767,4.028l4.593,2.708a8.476,8.476,0,0,0,2.951-2.743.588.588,0,0,1,.529-.341h4.142a.6.6,0,0,1,.536.341,8.758,8.758,0,0,0,3.012,2.734l4.533-2.72a9.048,9.048,0,0,0-.855-4.027.629.629,0,0,1-.027-.646l2.03-3.7a.583.583,0,0,1,.55-.305,8.275,8.275,0,0,0,3.777-1.3Z" transform="translate(-871.491 -1184.208)"/><ellipse class="e" cx="10.337" cy="10.344" rx="10.337" ry="10.344" transform="translate(60.003 106.006)"/><path class="v" d="M796.359,734.029l-1.447-2.767-3.1-.381a.428.428,0,0,1-.254-.726l2.184-2.229-.6-3.065a.428.428,0,0,1,.612-.466l2.8,1.388,2.728-1.517a.428.428,0,0,1,.633.438l-.456,3.089,2.281,2.127a.428.428,0,0,1-.221.737l-3.073.523-1.317,2.837a.428.428,0,0,1-.764.011Z" transform="translate(-756.044 -703.211)"/><path class="v" d="M1910.1,727.684l-8.433,4.018a2,2,0,0,1-2.658-.942l-2.263-4.748a2,2,0,0,1,.944-2.66l8.433-4.018a2,2,0,0,1,2.658.944l2.263,4.748A2,2,0,0,1,1910.1,727.684Z" transform="translate(-1703.633 -698.861)"/><path class="v" d="M1354.256,419.32l-1.806,5.381,4.012-2.966Z" transform="translate(-1159.669 -390.013)"/><path class="e" d="M1928.376,743.1l1.068-.543s.864-1.671.731-2.048-.723-1.028-.559-1.226a.785.785,0,0,1,1.085-.151c.372.245.811,1.584.979,1.606a6.831,6.831,0,0,0,1.177-.5.886.886,0,0,1,.915.08h0a.474.474,0,0,1,.152.57l-.142.318.311.158a.475.475,0,0,1,.207.634l-.12.237.2.086a.472.472,0,0,1,.229.666l-.111.2.049.034a.473.473,0,0,1,.131.624l-.115.2-2.841,1.443a2.191,2.191,0,0,1-.855.234l-1.083.342a.247.247,0,0,1-.3-.127l-1.224-2.506a.247.247,0,0,1,.111-.322Z" transform="translate(-1730.811 -715.875)"/><path class="o" d="M90.467,644.09l-2.088.418.259,1.967-2.04.5.016,1.911-1.464.624.316.741,1.959-.835-.016-1.81,2.121-.522-.255-1.936,1.893-.376Z" transform="translate(-73.013 -582.744)"/><path class="w" d="M1113.967,180.56l-2.088.416.259,1.967-2.038.5.016,1.91-1.465.626.316.741,1.96-.835-.016-1.812,2.121-.522-.255-1.934,1.893-.378Z" transform="translate(-950.621 -185.286)"/><path class="m" d="M463.019,182.871l-2.715.7-1.457-3.542-3.385.308-1.385-2.651-1.246.8,2.108,3.291,3.274-.579,1.589,3.68,3.425-1.051Z" transform="translate(-388.283 -182.825)"/><path class="m" d="M1636.108,670.35l-.386,1.745-2.43-.2-.807,2.008-1.9.019.091.937,2.477-.242.62-2.023,2.547.164.4-2.246Z" transform="translate(-1398.154 -605.26)"/><path class="b" d="M1708.322,1075.248c.227.409-1.474,1.192-1.932,1.829l-.57-1.116C1706.258,1075.743,1708.061,1074.785,1708.322,1075.248Z" transform="translate(-1540.094 -1004.102)"/><path class="o" d="M655.126,1269.88a5.385,5.385,0,0,1,3.545,3.991c.871,3.325,1.313,11.118,2.067,11.935s5.679,5.045,6.571,4.9,2.881-2.646,3.5-2.646.54.6.231.937-.686.713-.5.917l.184.2s2.108-.629,2.566-.336-.64,1.817-.7,2.368-1.425,1.652-1.662,1.911-1.095.546-4.072.108a14.158,14.158,0,0,1-9.3-5.559c-2.687-3.583-3.769-14.573-3.706-15.7C654.016,1270.064,655.126,1269.88,655.126,1269.88Z" transform="translate(-638.075 -1171.098)"/><path class="c" d="M657.339,1273.406a4.688,4.688,0,0,0-4-3.526s-1.517.184-1.683,3.026a52.006,52.006,0,0,0,1.219,8.916,15.343,15.343,0,0,1,5.744-2.306A52.146,52.146,0,0,0,657.339,1273.406Z" transform="translate(-636.189 -1171.098)"/><path class="b" d="M715.2,1626.38s1.786,7.287,3.117,8.431,5.675,3.333,4.539,3.563-9.55.428-9.315-.972.472-2.3.472-2.3l-2.224-5.206Z" transform="translate(-687.755 -1476.782)"/><path class="c" d="M733.464,1695.494a76.054,76.054,0,0,1-9.786.2s-.326-.066-.1-1.468c.056-.342.113-.656.167-.931,1.582.415,5.029-.47,6.394-.651a38.877,38.877,0,0,0,3.695,1.853C734.619,1694.627,734.619,1695.378,733.464,1695.494Z" transform="translate(-697.796 -1533.597)"/><path class="b" d="M599.066,1662.35s.332,2.951.332,3.763-.757,3.1-.406,3.454,10.367.308,10.367-.023-1.77-1.329-4.175-2.017-1.81-3.571-2.115-5.177Z" transform="translate(-590.956 -1507.625)"/><path class="c" d="M608.755,1701.238c0-.773-1.643-1.5-3.77-2.147-2.268.767-5.417.134-6.6-.091-.361.945-.51,2.228-.255,2.293C598.432,1701.372,608.755,1701.379,608.755,1701.238Z" transform="translate(-590.189 -1539.05)"/><path class="k" d="M93.461,1049.53l8.527,35.2-5.4,1.209L83.72,1051.548Z" transform="translate(-71.786 -930.391)"/><path class="l" d="M603.174,1424.36l-2.781,8.179-3.518,27.073-5.365-.349s-1.812-26.977-1.187-34.33Z" transform="translate(-583.489 -1303.558)"/><path class="g" d="M593.357,1290.2c-1.14-4.323-2.637-10.176-3.046-12.706a46.58,46.58,0,0,0-2.993-9.435,25.6,25.6,0,0,0-4.436-.3,78.252,78.252,0,0,0-8.882,1.259l1.8,23.729C581.562,1292.625,587.889,1292.122,593.357,1290.2Z" transform="translate(-569.605 -1169.268)"/><path class="n" d="M650.512,1262.805a.6.6,0,0,0,.562.306,8.51,8.51,0,0,1,3.839,1.3l.06,5.469a8.352,8.352,0,0,1-3.81,1.306.586.586,0,0,0-.555.308l-2.048,3.729a.634.634,0,0,0,.029.65,9.115,9.115,0,0,1,.862,4.058l-4.571,2.741a8.819,8.819,0,0,1-3.038-2.755.6.6,0,0,0-.54-.342h-4.178a.6.6,0,0,0-.533.345,8.54,8.54,0,0,1-2.975,2.763l-4.633-2.728a9.008,9.008,0,0,1,.774-4.061.63.63,0,0,0,.013-.65l-2.13-3.726a.6.6,0,0,0-.56-.305,8.5,8.5,0,0,1-3.839-1.3l-.061-5.469a8.358,8.358,0,0,1,3.81-1.306.586.586,0,0,0,.554-.308l2.048-3.718a.634.634,0,0,0-.027-.65,9.122,9.122,0,0,1-.864-4.058l4.573-2.744a8.8,8.8,0,0,1,3.036,2.755.6.6,0,0,0,.54.342h4.178a.594.594,0,0,0,.533-.345,8.543,8.543,0,0,1,2.976-2.762l4.631,2.728a9.025,9.025,0,0,1-.773,4.061.63.63,0,0,0-.014.65Z" transform="translate(-611.775 -1155.466)"/><path class="r" d="M578.421,1157.706c-.04,2.209.686,3.17,2.063,4.9a33.427,33.427,0,0,0,3.807,3.779l6.833-4.355s-.047-.935-.294-3.706C589.824,1147.018,578.451,1156,578.421,1157.706Z" transform="translate(-573.394 -1070.629)"/><path class="b" d="M589.867,1208.654c.277.864.974,1.414,1.558,1.227s.834-1.039.559-1.9-.974-1.414-1.558-1.227S589.592,1207.79,589.867,1208.654Z" transform="translate(-583.115 -1116.936)"/><path class="b" d="M655.783,1201.451c-.257.87.01,1.711.6,1.89s1.274-.389,1.531-1.259-.01-1.718-.6-1.892S656.041,1200.581,655.783,1201.451Z" transform="translate(-639.647 -1111.315)"/><path class="b" d="M611.255,1239.12l-.255,4.62s.56,1.568,3.093,1.568c1.87,0,1.655-4.165,1.655-4.165l-.143-2.023Z" transform="translate(-601.331 -1144.722)"/><path class="x" d="M617,1242.6h.037a11.025,11.025,0,0,0,.043-1.458l-.143-2.023h-4.349l-.034.617C613.1,1240.671,614.694,1242.6,617,1242.6Z" transform="translate(-602.66 -1144.723)"/><path class="b" d="M601.374,1164.727a4.852,4.852,0,0,0-3.311,2.519c-1.541,2.507-.285,6.2.143,7.046a5.71,5.71,0,0,0,4.624,3.022c2.509,0,4-2.921,4.212-5.157.285-2.993-.259-6.1-3.107-7.141A5.377,5.377,0,0,0,601.374,1164.727Z" transform="translate(-589.599 -1080.895)"/><path class="r" d="M587.414,1153.02s.713-3.991,2.979-4.891,5.622-.663,6.651,3.233c0,0-.637-4.69-1.87-5.923a6.716,6.716,0,0,0-3.733-1.37l.825.821a7.846,7.846,0,0,0-2.246-.3c-1.346,0-1.6.323-1.6.323s.922.143.922.448-2.44.4-2.44.4a5.734,5.734,0,0,1-.988,2.782C585.128,1149.333,587.414,1153.02,587.414,1153.02Z" transform="translate(-579.683 -1063.221)"/><circle class="e" cx="10.426" cy="10.426" r="10.426" transform="matrix(0.149, -0.989, 0.989, 0.149, 15.44, 120.451)"/><path class="d" d="M706.882,1323c3.777-.339,6.334,4.226,4.017,7.18a2.809,2.809,0,0,0-.57,1.911l.151,2.4a1.179,1.179,0,0,1-1.072,1.271l-1.425.13a1.34,1.34,0,0,1-1.4-1.051c-.527-2.378-.553-3.279-1.608-4.134C701.889,1328.247,703.1,1323.342,706.882,1323Z" transform="translate(-680.409 -1216.633)"/><path class="h" d="M715.439,1347.639a3.885,3.885,0,0,1-.54-.177c-1.023-.439-.958-1.375-.493-1.641a.807.807,0,0,1,1,.264,2.715,2.715,0,0,1,.428,1.14,5.338,5.338,0,0,0,1.877.068c-.061-1.179.57-1.659,1.081-1.441a.9.9,0,0,1,.513.884c-.018.222-.16.748-1.066.975.259,2.073.781,4.875.783,4.884l-.48.064c0-.009-.519-2.794-.78-4.861a5.8,5.8,0,0,1-1.8-.039c.583,2.516.961,4.66.975,4.737l-.48.063C716.427,1352.4,716.066,1350.323,715.439,1347.639Zm-.807-1.36c-.123.107-.164.539.676.8C715.171,1346.5,715.083,1346.3,714.632,1346.279Zm3.563.915c.345-.1.728-.319.6-.674-.164-.458-.617-.173-.592.674Z" transform="translate(-689.72 -1236.145)"/><path class="n" d="M727.316,1386.47v.06l.151,2.4a1.179,1.179,0,0,1-1.072,1.271l-1.425.13a1.34,1.34,0,0,1-1.4-1.05c-.234-1.058-.369-1.823-.54-2.423Z" transform="translate(-697.392 -1271.069)"/><path class="h" d="M675.24,1341.251l1.4.262c.365.069.911.267,1.25.056a.2.2,0,0,0,.066-.272c-.252-.329-.794-.338-1.175-.408l-1.4-.255c-.4-.073-.54.542-.143.617Z" transform="translate(-656.208 -1231.761)"/><path class="h" d="M689.583,1310.647c1.863,1.823,1.793,1.795,2.044,1.866a.269.269,0,0,0,.315-.339c-.076-.235-.05-.172-1.93-1.977-.285-.285-.713.171-.428.45Z" transform="translate(-668.634 -1205.59)"/><path class="h" d="M728.741,1294.354c.021-.479.041-.956.061-1.435a2.927,2.927,0,0,0-.061-1.327.243.243,0,0,0-.416.013,3,3,0,0,0-.152,1.34q-.027.713-.054,1.434C728.1,1294.781,728.724,1294.754,728.741,1294.354Z" transform="translate(-701.755 -1189.618)"/><path class="h" d="M769.468,1334.963a20.871,20.871,0,0,0,2.138-.436c.375-.105.2-.646-.174-.57-.713.142-1.415.314-2.138.44-.373.066-.2.627.172.57Z" transform="translate(-736.884 -1226.035)"/><path class="h" d="M756.259,1308.94c.344-.271.677-.55,1.008-.835.3-.258.74-.525.878-.907.074-.2-.165-.358-.339-.314-.215.054-.242.131-.958.75-.322.285-.651.552-.971.835-.257.227.11.684.382.47Z" transform="translate(-725.482 -1202.821)"/><path class="b" d="M565.8,1276.7a5.616,5.616,0,0,1,3.82,3.991c.937,3.325,1.415,11.118,2.228,11.935s6.129,5.042,7.081,4.895,3.1-2.644,3.77-2.644.583.6.251.936-.74.713-.542.917.13.181.2.2c.976.254,2.969-.781,3.469-.489s-.48.979-.48,1.478a5.785,5.785,0,0,1,.063,1.042,2.087,2.087,0,0,1-.458,1.25,13.713,13.713,0,0,1-6.749.77,15.531,15.531,0,0,1-10.019-5.559c-2.892-3.581-4.06-14.573-3.991-15.7C564.6,1276.885,565.8,1276.7,565.8,1276.7Z" transform="translate(-561.408 -1176.946)"/><path class="c" d="M567.788,1280.226a4.689,4.689,0,0,0-4-3.526s-1.515.184-1.682,3.026a51.8,51.8,0,0,0,1.217,8.916,15.32,15.32,0,0,1,5.744-2.3A52.435,52.435,0,0,0,567.788,1280.226Z" transform="translate(-559.402 -1176.946)"/><path class="b" d="M1553.944,668.191s-.69-4.989-1.254-5.132-.761.76-.522,1.542a18.707,18.707,0,0,1,.261,4.868C1552.262,670.6,1553.944,668.191,1553.944,668.191Z" transform="translate(-1408.258 -650.762)"/><path class="b" d="M1225.221,691.923s-.118-3.938.467-5.169c.081-.168.251-.358.428.066a19.912,19.912,0,0,1,.064,3.757s.024-5.094.713-5.094.349,1.753.349,2.453-.051,3.1-.051,3.1.285-5.4.351-5.716.613-.408.777.108.228,5.722.228,5.722-.321-5.362.44-5.362.328,6.665,1.032,7.371l1.577,1.587Z" transform="translate(-1127.992 -669.638)"/><path class="d" d="M3.262,6.042a1.977,1.977,0,0,0-1.9,1.412.3.3,0,0,1-.285.195c-.217,0-.888-.54-1.079-.671C0,8.586.74,10,2.5,10A2.259,2.259,0,0,0,5,7.653a1.692,1.692,0,0,0-.019-.178L3.262,6.042ZM8.943,0a1.193,1.193,0,0,0-.785.321c-3.992,3.566-4.408,3.65-4.408,4.7a1.808,1.808,0,0,0,.171.756L5.166,6.816a1.8,1.8,0,0,0,.437.059c1.213,0,1.916-.888,4.124-5.009A2.01,2.01,0,0,0,10,.968,1.017,1.017,0,0,0,8.943,0Z" transform="translate(64.675 110.473)"/><path class="k" d="M15.857,4.393V3.654a1.435,1.435,0,0,0-1.468-1.4H10.471A1.436,1.436,0,0,0,9,3.654v.739h4.071v.991H9V6.536h4.071v.991H9V8.679h4.071V9.67H9v1.12a1.431,1.431,0,0,0,1.471,1.4h.806V14.25h2.3V12.188h.809a1.431,1.431,0,0,0,1.468-1.4V9.67h-1.5V8.679h1.5V7.527h-1.5V6.536h1.5V5.384h-1.5V4.393Z" transform="translate(155.929 50.177)"/><path class="y" d="M1.429,2.929V1.5h.952V2.929H3.81v.952H2.381V5.31H1.429V3.881H0V2.929ZM2.857,5.786V4.357H4.286V2.929H7.619l.871.952H10a.955.955,0,0,1,.952.952v5.714A.955.955,0,0,1,10,11.5H2.381a.955.955,0,0,1-.952-.952V5.786ZM6.19,10.071A2.381,2.381,0,1,0,3.81,7.69,2.382,2.382,0,0,0,6.19,10.071ZM4.667,7.69A1.524,1.524,0,1,0,6.19,6.167,1.522,1.522,0,0,0,4.667,7.69Z" transform="translate(208.934 107.411)"/><path class="q" d="M7.781,2.225l-.72.72a.188.188,0,0,1-.266,0L5.061,1.21a.188.188,0,0,1,0-.266l.72-.72a.752.752,0,0,1,1.061,0l.939.939A.749.749,0,0,1,7.781,2.225ZM4.442,1.564l-4.1,4.1-.331,1.9A.375.375,0,0,0,.442,8l1.9-.333,4.1-4.1a.188.188,0,0,0,0-.266L4.709,1.564a.19.19,0,0,0-.267,0ZM1.94,5.315a.218.218,0,0,1,0-.309L4.347,2.6a.219.219,0,0,1,.309.309L2.25,5.315a.218.218,0,0,1-.309,0ZM1.376,6.629h.75V7.2l-1.008.177L.633,6.887.809,5.879h.567Z" transform="translate(211.155 52.64)"/></g></g></svg>