<svg xmlns="http://www.w3.org/2000/svg" width="350" height="268.753" viewBox="0 0 350 268.753"><defs><style>.a,.e{fill:#f3d93b;}.a{opacity:0.23;}.b{fill:#e6e6e6;}.c{fill:#ffb8b8;}.d{fill:#fff;}.f{fill:#ccc;}.g{fill:#707070;}.h{fill:#2f2e41;}.i{fill:#3f3d56;}.j{fill:#ff6584;}.k{opacity:0.2;}</style></defs><g transform="translate(15)"><path class="a" d="M489.184,271.622c-.347.313-.666.617-1.005.913a33.528,33.528,0,0,1-3.928,2.961c-7.135,4.65-15.93,6.921-24.5,8.464-19.214,3.463-38.83,4.135-58.362,4.8-52.777,1.791-105.682,3.578-158.331-.549-20.8-1.628-42.061-4.354-60.91-12.711q-4.053-1.791-7.946-3.951a64.25,64.25,0,0,1-14.492-10.714,38.57,38.57,0,0,1-9.049-13.739c-3.983-10.816-1.876-22.966,2.673-33.568a110.022,110.022,0,0,1,6.376-12.329c3.512-5.97,7.385-11.768,10.917-17.733,12.571-21.2,20.774-48.032,9.17-69.78-3.335-6.248-8.154-11.734-10.872-18.256-3.467-8.344-3.2-17.609-2.1-26.609q.215-1.714.454-3.394c1.883-13.345,5.426-27.723,16.35-36.054,11.347-8.657,27.462-8.22,41.544-5.143,21.9,4.834,42.1,14.9,62.519,23.982s41.776,17.386,64.214,18.278c19.814.789,42.924-5.113,56.074-20.45C420.758,31.138,444.766,30,462.069,39a50.024,50.024,0,0,1,24.477,29.814,46.5,46.5,0,0,1,1.626,7.765,44.178,44.178,0,0,1,.291,7.324c-.052,1.209-.153,2.4-.291,3.587-2.891,24.693-23.7,44.17-36.354,66.228-6.181,10.774-10.546,23.716-6.3,35.334,6.483,17.7,29.029,24,42.643,37.172a37.1,37.1,0,0,1,6.691,8.485C501.461,246.437,499.023,262.271,489.184,271.622Z" transform="translate(-163.558 -21.971)"/><path class="b" d="M622.19,85.414H611.106a8.23,8.23,0,0,1-7.62,11.338H554.841a8.23,8.23,0,0,1-7.62-11.338H536.868a17.323,17.323,0,0,0-17.323,17.323V322.291a17.323,17.323,0,0,0,17.323,17.323H622.19a17.323,17.323,0,0,0,17.323-17.323V102.737A17.323,17.323,0,0,0,622.19,85.414Z" transform="translate(-386.764 -79.028)"/><path class="b" d="M608.773,334.2H523.86a23.575,23.575,0,0,1-23.548-23.548V90.771A23.574,23.574,0,0,1,523.86,67.223h84.913a23.574,23.574,0,0,1,23.548,23.548V130.5h1.463V159.73h-1.463V310.647A23.574,23.574,0,0,1,608.773,334.2ZM523.86,67.925a22.872,22.872,0,0,0-22.846,22.846V310.647a22.872,22.872,0,0,0,22.846,22.846h84.913a22.872,22.872,0,0,0,22.845-22.846V159.028h1.463V131.2h-1.463V90.771a22.871,22.871,0,0,0-22.845-22.846Z" transform="translate(-374.283 -67.223)"/><path class="c" d="M428.057,473.609l5.617,8.7,18.267-.146s7.679-4.337,9.223,1.381c.529,1.958-7.51,2.488-8.266,2.534-1.892.115-20.765,3.389-21.93,1.712s-7.294-7.535-7.294-7.535Z" transform="translate(-324.549 -330.944)"/><path class="d" d="M585.146,184.892a1.23,1.23,0,0,0-1.229,1.229v72.318a1.23,1.23,0,0,0,1.229,1.229h72.318a1.23,1.23,0,0,0,1.229-1.229V186.121a1.23,1.23,0,0,0-1.229-1.229Z" transform="translate(-428.537 -143.583)"/><path class="e" d="M750.35,397.867h-13.3c-.832-7.4,1-12.916,0-15.963h13.3a83.287,83.287,0,0,0,0,15.963Z" transform="translate(-527.765 -271.433)"/><rect class="f" width="111.987" height="50.552" transform="translate(136.772 144.344)"/><path class="e" d="M670.99,246.068a23.107,23.107,0,1,1-23.107-23.107A23.107,23.107,0,0,1,670.99,246.068Z" transform="translate(-455.053 -168.289)"/><path class="d" d="M521.993,470.641a.879.879,0,0,0-.878.878v48.446a.879.879,0,0,0,.878.878H631.874a.878.878,0,0,0,.878-.878V471.518a.879.879,0,0,0-.878-.878Z" transform="translate(-387.783 -329.018)"/><path class="g" d="M743.575,500.586a.527.527,0,0,0-.526.527v2.553a.527.527,0,0,0,.526.527h15.034a.527.527,0,0,0,.526-.527v-2.553a.527.527,0,0,0-.526-.527Z" transform="translate(-531.804 -348.451)"/><path class="g" d="M581.423,500.586a.527.527,0,0,0-.527.527v2.553a.527.527,0,0,0,.527.527h4.38a.527.527,0,0,0,.527-.527v-2.553a.527.527,0,0,0-.527-.527Z" transform="translate(-426.577 -348.451)"/><path class="g" d="M548.473,500.586a.527.527,0,0,0-.527.527v2.553a.527.527,0,0,0,.527.527h4.379a.527.527,0,0,0,.527-.527v-2.553a.527.527,0,0,0-.527-.527Z" transform="translate(-405.194 -348.451)"/><path class="g" d="M615.241,500.586a.527.527,0,0,0-.527.527v2.553a.527.527,0,0,0,.527.527h37.864a.527.527,0,0,0,.527-.527v-2.553a.527.527,0,0,0-.527-.527Z" transform="translate(-448.523 -348.451)"/><path class="g" d="M640.387,573.423a.527.527,0,0,0-.527.527V576.5a.527.527,0,0,0,.527.527h4.38a.527.527,0,0,0,.527-.526V573.95a.527.527,0,0,0-.527-.527Z" transform="translate(-464.841 -395.718)"/><path class="g" d="M607.437,573.423a.527.527,0,0,0-.527.527V576.5a.527.527,0,0,0,.527.527h4.38a.527.527,0,0,0,.527-.526V573.95a.527.527,0,0,0-.527-.527Z" transform="translate(-443.459 -395.718)"/><path class="g" d="M674.2,573.423a.527.527,0,0,0-.527.527V576.5a.527.527,0,0,0,.527.527h37.864a.527.527,0,0,0,.527-.526V573.95a.527.527,0,0,0-.527-.527Z" transform="translate(-486.787 -395.718)"/><path class="g" d="M609.172,525.732a.527.527,0,0,0-.527.527v2.553a.527.527,0,0,0,.527.527h15.034a.527.527,0,0,0,.527-.527v-2.553a.527.527,0,0,0-.527-.527Z" transform="translate(-444.584 -364.769)"/><path class="g" d="M545.872,525.732a.527.527,0,0,0-.527.527v2.553a.527.527,0,0,0,.527.527h15.034a.527.527,0,0,0,.527-.527v-2.553a.527.527,0,0,0-.527-.527Z" transform="translate(-403.506 -364.769)"/><path class="g" d="M799.937,525.732a.527.527,0,0,0-.527.527v2.553a.527.527,0,0,0,.527.527h4.38a.527.527,0,0,0,.527-.527v-2.553a.527.527,0,0,0-.527-.527Z" transform="translate(-568.38 -364.769)"/><path class="g" d="M671.6,525.732a.527.527,0,0,0-.527.527v2.553a.527.527,0,0,0,.527.527h37.864a.527.527,0,0,0,.526-.527v-2.553a.527.527,0,0,0-.526-.527Z" transform="translate(-485.099 -364.769)"/><path class="g" d="M706.289,550.011a.527.527,0,0,0-.527.527v2.553a.527.527,0,0,0,.527.527h15.034a.527.527,0,0,0,.527-.527v-2.553a.527.527,0,0,0-.527-.527Z" transform="translate(-507.608 -380.525)"/><path class="g" d="M769.589,550.011a.527.527,0,0,0-.527.527v2.553a.527.527,0,0,0,.527.527h15.034a.527.527,0,0,0,.527-.527v-2.553a.527.527,0,0,0-.527-.527Z" transform="translate(-548.686 -380.525)"/><path class="g" d="M545.872,550.011a.527.527,0,0,0-.527.527v2.553a.527.527,0,0,0,.527.527h4.38a.527.527,0,0,0,.527-.527v-2.553a.527.527,0,0,0-.527-.527Z" transform="translate(-403.506 -380.525)"/><path class="g" d="M578.822,550.011a.527.527,0,0,0-.527.527v2.553a.527.527,0,0,0,.527.527h37.864a.527.527,0,0,0,.527-.527v-2.553a.527.527,0,0,0-.527-.527Z" transform="translate(-424.889 -380.525)"/><path class="h" d="M661.492,256.592s4.522-1.615,7.43,4.845A127.4,127.4,0,0,0,676.352,275l-2.584.646s-.646-4.522-2.261-5.168l.646,5.814s-19.382,6.784-28.1-.646l.323-2.261s-1.292.323-1.292,2.261l-.969-.969a17.361,17.361,0,0,1,3.876-4.522c1.908-1.7,2.564-4.923,2.789-6.941a8.4,8.4,0,0,1,1.934-4.574C652.642,256.406,656.162,254.026,661.492,256.592Z" transform="translate(-466.302 -189.391)"/><circle class="c" cx="8.362" cy="8.362" r="8.362" transform="translate(184.068 70.406)"/><path class="h" d="M683.224,276.3a23.6,23.6,0,0,1-7.55-7.453s-5.909,5.962-9.52,6.26-.328-7.155-.328-7.155l6.565-1.491,6.237.6,4.924,2.981Z" transform="translate(-480.805 -196.518)"/><rect class="c" width="6.319" height="6.319" transform="translate(189.257 85.366)"/><path class="h" d="M678.2,333.591a23.117,23.117,0,0,1-25.185-.783,9.492,9.492,0,0,1,8.566-5.417h7.723a9.481,9.481,0,0,1,8.9,6.2Z" transform="translate(-473.379 -236.058)"/><rect class="i" width="311.739" height="0.787" transform="translate(5.156 267.329)"/><path class="j" d="M779.318,620.893h13.3c.832-6.139-1-11.871,0-15.963h-13.3A17.9,17.9,0,0,0,779.318,620.893Z" transform="translate(-554.122 -416.164)"/><path class="e" d="M728.464,612.628h-13.3c.5-6.138,2.107-11.87,0-15.963h13.3A17.9,17.9,0,0,1,728.464,612.628Z" transform="translate(-513.707 -410.801)"/><path class="h" d="M406.414,381.217s4.571-1.633,7.51,4.9a128.788,128.788,0,0,0,7.51,13.714l-2.612.653s-.653-4.571-2.286-5.225l.653,5.878s-19.592,6.857-28.408-.653l.326-2.286s-1.306.327-1.306,2.286l-.98-.98a17.549,17.549,0,0,1,3.918-4.571c1.929-1.715,2.592-4.977,2.82-7.016a8.491,8.491,0,0,1,1.955-4.623C397.468,381.029,401.026,378.623,406.414,381.217Z" transform="translate(-300.634 -270.258)"/><path class="c" d="M346.237,741.9l-11.385,16.881,10.6,10.6,1.374-2.748-2.356-5.5s.393-5.1,1.767-6.478,7.459-9.618,7.459-9.618Z" transform="translate(-266.908 -505.052)"/><path class="h" d="M379.593,586.458s-2.159,3.417,2.356,18.139c0,0-21.059,35.542-17.722,37.9s12.367,7.568,14.723,6,19.487-54.772,19.487-54.772Z" transform="translate(-285.739 -404.177)"/><path class="h" d="M331.178,781.324l-3.435,3.435c-1.767,1.767-2.944,4.318.393,6.478s14.918,10.207,18.844,7.656-4.711-4.907-4.711-4.907-1.428-5.3-2.186-4.12a8.25,8.25,0,0,0-.758,3.531Z" transform="translate(-261.173 -530.634)"/><path class="c" d="M458.985,764.918s6.281,11.581,6.281,12.955-.393,5.3-.393,5.3l11.974,2.944,4.122-1.963-1.374-3.533s-7.459-2.552-9.03-7.459-3.337-10.011-3.337-10.011Z" transform="translate(-347.463 -518.841)"/><circle class="c" cx="8.244" cy="8.244" r="8.244" transform="translate(96.014 114.363)"/><path class="c" d="M421.224,431.524l-3.936,11.31-8.627-3.85s5.889-9.03,5.889-10.207Z" transform="translate(-314.806 -301.85)"/><path class="h" d="M420.277,551.231h-10.4s-7.459,11.385-3.141,23.359a62.079,62.079,0,0,1,1.973,7.439c1.507,6.984,3.007,16.444,4.545,25.137,2.16,12.211,4.393,22.907,6.82,23.1,4.907.393,14.45.327,14.45-1.636s-6.392-58.753-6.392-58.753l-1.374-2.356-.26-10.26A6.189,6.189,0,0,0,420.277,551.231Z" transform="translate(-312.682 -381.317)"/><path class="h" d="M473.892,804.809s-2.257,3.828-1.669,6.576,1.57,2.355,5.889,2.748,19.041.393,19.041-2.356-11.485-6.317-11.533-5.219-.441,3.257.737,3.649.1.1.1.1Z" transform="translate(-355.991 -545.874)"/><path class="h" d="M406.065,486.085c1.535,0,4.837-3.943,6.565-2.215,1.257,1.257,2.323,2.464,3.264,3.529,2.7,3.057,5.062,5.859,6.7,3.849.248-.3-.586.4.109-.075a1.682,1.682,0,0,0,.678-1.825c-2.381-7.458-3.863-14.6-1.97-20.572a4.842,4.842,0,0,0,.2-1.46q0-.108.01-.217c.1-1.1.075-5.046-4.445-9.566-4.131-4.131-4.923-6.669-5.028-7.814-.025-.267-6.683-7.175-6.683-7.175a1.674,1.674,0,0,0-2,.563l-2.133,2.933a28.051,28.051,0,0,0-2.925,14.857c.577,6.654,1.58,19.814,2.4,24.561a1.734,1.734,0,0,0,.642,1.094,1.653,1.653,0,0,0,1.693.2A7.127,7.127,0,0,1,406.065,486.085Z" transform="translate(-308.094 -310.699)"/><path class="k" d="M264.017,597.459l-3.869-25.777,3.147,27.827Z" transform="translate(-163.665 -370.989)"/><path class="c" d="M433.057,494.609l5.617,8.7,18.267-.146s7.679-4.337,9.223,1.381c.529,1.958-7.51,2.488-8.266,2.534-1.892.115-20.765,3.389-21.93,1.712s-7.294-7.535-7.294-7.535Z" transform="translate(-327.793 -344.572)"/><path class="h" d="M412.023,476.146s3.19-2.079,7.568,1.618,5.255,7.006,5.255,7.006l-10.315,6.13S404.454,480.172,412.023,476.146Z" transform="translate(-315.159 -332.213)"/><path class="h" d="M428.382,399.14a23.858,23.858,0,0,1-7.632-7.534s-5.973,6.027-9.623,6.328-.332-7.233-.332-7.233l6.637-1.507,6.3.6,4.977,3.014Z" transform="translate(-315.295 -276.165)"/><ellipse class="c" cx="0.878" cy="1.58" rx="0.878" ry="1.58" transform="translate(95.174 120.823)"/></g></svg>